M48
;GenerationSoftware,Autodesk,EAGLE,9.6.2*%
;CreationDate,2021-05-12T22:19:16Z*%
FMAT,2
ICI,OFF
METRIC,TZ,000.000
T13C0.330
T12C0.350
T11C0.800
T10C0.813
T9C1.000
T8C1.016
T7C1.100
T6C1.500
T5C1.800
T4C2.000
T3C2.200
T2C2.300
T1C2.900
%
G90
M71
T1
X31060Y98630
X42060Y98630
T2
X166250Y82330
X166250Y95470
T3
X41910Y35560
X29210Y55880
X41910Y55880
X54610Y12700
X41910Y12700
X29210Y12700
X29210Y35560
T4
X116586Y105537
X137414Y105537
X137414Y82423
X116586Y82423
T5
X146700Y95250
X158100Y95250
T6
X83440Y55880
X54990Y55880
X64390Y55880
X72010Y76200
X84200Y97790
X93600Y97790
X62610Y97790
X101220Y55880
X91820Y55880
X72010Y97790
X74040Y55880
X62610Y76200
X93600Y76200
X84200Y76200
X74040Y35560
X83440Y35560
T7
X76240Y10200
X81240Y15200
X76240Y15200
X129500Y49570
X116800Y10200
X111800Y10200
X116800Y15200
X111800Y15200
X124500Y49570
X129500Y54570
X124500Y54570
X129500Y34330
X124500Y34330
X129500Y39330
X124500Y39330
X94020Y15200
X139660Y41950
X134660Y41950
X139660Y46950
X134660Y46950
X99020Y10200
X94020Y10200
X99020Y15200
X81240Y10200
X119340Y41950
X114340Y41950
X119340Y46950
X114340Y46950
T8
X143510Y49530
X41910Y52705
X41910Y60325
X41910Y50165
X29210Y32385
X29210Y40005
X153670Y10160
X153670Y12700
X151130Y10160
X151130Y12700
X148590Y10160
X148590Y12700
X146050Y10160
X146050Y12700
X143510Y10160
X143510Y12700
X140970Y10160
X140970Y12700
X138430Y10160
X138430Y12700
X135890Y10160
X29210Y29845
X41910Y32385
X41910Y40005
X41910Y29845
X29210Y9525
X29210Y17145
X29210Y6985
X41910Y9525
X41910Y17145
X41910Y6985
X54610Y9525
X54610Y17145
X54610Y6985
X135890Y12700
X29210Y50165
X29210Y60325
X29210Y52705
X123190Y60960
X125730Y60960
X128270Y60960
X130810Y60960
X133350Y60960
X123190Y58420
X125730Y58420
X151130Y49530
X153670Y49530
X146050Y49530
X156718Y39624
X156718Y37084
X156718Y34544
T9
X160020Y64770
X76240Y28560
X78740Y28560
X81240Y28560
X86400Y69200
X88900Y69200
X91400Y69200
X64810Y69200
X67310Y69200
X69810Y69200
X154900Y87750
X152400Y87750
X149900Y87750
X149900Y102250
X154900Y102250
X86400Y90790
X62190Y48880
X59690Y48880
X57190Y48880
X88900Y90790
X91400Y90790
X64810Y90790
X67310Y90790
X69810Y90790
X76240Y48880
X78740Y48880
X81240Y48880
X123190Y106680
X125730Y106680
X128270Y106680
X130810Y106680
X94020Y48880
X111760Y80010
X157480Y72390
X114300Y64770
X111760Y64770
X116840Y64770
X157480Y74930
X157480Y77470
X157480Y69850
X157480Y67310
X144780Y64770
X144780Y80010
X114300Y80010
X116840Y80010
X119380Y80010
X121920Y80010
X124460Y80010
X127000Y80010
X129540Y80010
X132080Y80010
X134620Y80010
X137160Y80010
X139700Y80010
X142240Y80010
X114300Y67310
X142240Y64770
X139700Y64770
X137160Y64770
X134620Y64770
X132080Y64770
X129540Y64770
X127000Y64770
X124460Y64770
X121920Y64770
X119380Y64770
X147320Y80010
X152400Y80010
X154940Y80010
X157480Y80010
X160020Y80010
X162560Y80010
X165100Y80010
X167640Y80010
X170180Y80010
X149860Y64770
X152400Y64770
X154940Y64770
X157480Y64770
X96520Y48880
X162560Y64770
X165100Y64770
X167640Y64770
X170180Y64770
X118110Y77010
X120650Y77010
X123190Y77010
X125730Y77010
X128270Y77010
X149860Y80010
X147320Y64770
X99020Y48880
T10
X145542Y3810
X134112Y3810
X137668Y3810
X123190Y19050
X45720Y24130
X50800Y24130
X58420Y20320
X53340Y20320
X50800Y26670
X45720Y26670
X44450Y20320
X39370Y20320
X36830Y26670
X31750Y26670
X31750Y20320
X26670Y20320
X57150Y31750
X52070Y31750
X72390Y39370
X155702Y3810
X159258Y3810
X149098Y3810
X163830Y44450
X128270Y19050
X72390Y44450
X52070Y29210
X160020Y33020
X165100Y33020
X160020Y35560
X165100Y35560
X160020Y38100
X165100Y38100
X109220Y48260
X109220Y53340
X135636Y67945
X135636Y73025
X158750Y54610
X158750Y59690
X57150Y29210
X52070Y34290
X57150Y34290
X57150Y36830
X52070Y36830
X52070Y45085
X57150Y45085
X57150Y41910
X52070Y41910
X52070Y39370
X57150Y39370
X130810Y19050
X135890Y19050
X44450Y80010
X49530Y80010
X46990Y40640
X101600Y63500
X106680Y63500
X53340Y80010
X46990Y45720
X103378Y39370
X58420Y80010
X44450Y82550
X49530Y82550
X158750Y46990
X163830Y46990
X144780Y34290
X139700Y34290
X139700Y29210
X158750Y49530
X39370Y64770
X144780Y29210
X139700Y24130
X144780Y24130
X139700Y26670
X144780Y26670
X44450Y64770
X53340Y67310
X48260Y67310
X107950Y72390
X107950Y67310
X39370Y67310
X139700Y31750
X144780Y31750
X158750Y41910
X44450Y67310
X116332Y26670
X163830Y41910
X158750Y44450
X163830Y49530
X119888Y26670
X99822Y39370
T11
X35560Y87630
X37560Y87630
X39560Y87630
X33560Y87630
X31560Y87630
X41560Y87630
T12
X116891Y59665
T13
X120015Y56540
X134569Y26441
X103708Y63779
X90145Y76276
X76429Y30175
X98146Y33376
X135026Y37567
X126263Y28804
X150724Y41300
X88316Y87173
X84887Y91516
X87325Y94564
X140513Y45568
X142875Y43205
X143027Y59207
X89535Y88087
X100355Y82677
X138989Y85268
X78410Y90145
X80162Y91897
X100203Y90221
X154000Y42596
X152552Y47168
X98679Y88697
X77114Y90145
X78867Y91897
X95326Y93345
X75971Y90297
X77191Y91516
X96317Y95174
X93497Y92354
X110947Y77800
X101117Y71476
X67132Y41910
X99136Y67132
X151943Y46558
X154610Y34976
X156820Y40996
X104242Y75590
X90145Y75057
X129464Y84658
X128854Y84049
X128397Y83287
X128016Y63932
X78029Y54026
X131293Y78334
X105461Y85344
X89459Y87173
X146990Y54331
X162077Y37719
X168631Y65608
X162535Y19050
X126416Y55169
X102489Y82296
X106070Y70256
X119482Y58826
X97765Y76276
X63475Y44653
X145618Y41910
X120472Y57836
X104013Y66523
X105232Y65303
X126263Y42215
X156667Y29185
X102946Y72619
X148133Y26670
X104546Y72619
X106070Y71095
X118186Y55093
X120015Y55093
X138684Y57607
X38176Y71323
X125578Y18212
X132664Y25146
X150419Y35433
X152476Y27508
X54788Y24536
X146075Y24384
X149352Y40843
X148209Y28575
X130454Y26518
M30