G04 EAGLE Gerber RS-274X export*
G75*
%MOMM*%
%FSLAX34Y34*%
%LPD*%
%IN*%
%IPPOS*%
%AMOC8*
5,1,8,0,0,1.08239X$1,22.5*%
G01*
%ADD10C,0.254000*%


D10*
X228600Y0D02*
X1625600Y0D01*
X1625600Y152400D01*
X1701800Y152400D01*
X1708150Y158750D01*
X1708150Y508000D01*
X1638300Y508000D01*
X1625600Y520700D01*
X1625600Y622300D01*
X1714500Y622300D01*
X1714500Y1066800D01*
X1689100Y1092200D01*
X228600Y1092200D01*
X228600Y0D01*
X1572000Y939500D02*
X1590000Y939500D01*
X1590000Y965500D01*
X1572000Y965500D01*
X1572000Y939500D01*
X1458000Y939500D02*
X1476000Y939500D01*
X1476000Y965500D01*
X1458000Y965500D01*
X1458000Y939500D01*
X303100Y558368D02*
X303032Y557506D01*
X302897Y556652D01*
X302695Y555812D01*
X302428Y554990D01*
X302097Y554191D01*
X301705Y553421D01*
X301253Y552684D01*
X300745Y551985D01*
X300184Y551327D01*
X299573Y550716D01*
X298915Y550155D01*
X298216Y549647D01*
X297479Y549195D01*
X296709Y548803D01*
X295910Y548472D01*
X295088Y548205D01*
X294248Y548003D01*
X293394Y547868D01*
X292532Y547800D01*
X291668Y547800D01*
X290806Y547868D01*
X289952Y548003D01*
X289112Y548205D01*
X288290Y548472D01*
X287491Y548803D01*
X286721Y549195D01*
X285984Y549647D01*
X285285Y550155D01*
X284627Y550716D01*
X284016Y551327D01*
X283455Y551985D01*
X282947Y552684D01*
X282495Y553421D01*
X282103Y554191D01*
X281772Y554990D01*
X281505Y555812D01*
X281303Y556652D01*
X281168Y557506D01*
X281100Y558368D01*
X281100Y559232D01*
X281168Y560094D01*
X281303Y560948D01*
X281505Y561788D01*
X281772Y562610D01*
X282103Y563409D01*
X282495Y564179D01*
X282947Y564916D01*
X283455Y565615D01*
X284016Y566273D01*
X284627Y566884D01*
X285285Y567445D01*
X285984Y567953D01*
X286721Y568405D01*
X287491Y568797D01*
X288290Y569128D01*
X289112Y569395D01*
X289952Y569597D01*
X290806Y569732D01*
X291668Y569800D01*
X292532Y569800D01*
X293394Y569732D01*
X294248Y569597D01*
X295088Y569395D01*
X295910Y569128D01*
X296709Y568797D01*
X297479Y568405D01*
X298216Y567953D01*
X298915Y567445D01*
X299573Y566884D01*
X300184Y566273D01*
X300745Y565615D01*
X301253Y564916D01*
X301705Y564179D01*
X302097Y563409D01*
X302428Y562610D01*
X302695Y561788D01*
X302897Y560948D01*
X303032Y560094D01*
X303100Y559232D01*
X303100Y558368D01*
X430100Y558368D02*
X430032Y557506D01*
X429897Y556652D01*
X429695Y555812D01*
X429428Y554990D01*
X429097Y554191D01*
X428705Y553421D01*
X428253Y552684D01*
X427745Y551985D01*
X427184Y551327D01*
X426573Y550716D01*
X425915Y550155D01*
X425216Y549647D01*
X424479Y549195D01*
X423709Y548803D01*
X422910Y548472D01*
X422088Y548205D01*
X421248Y548003D01*
X420394Y547868D01*
X419532Y547800D01*
X418668Y547800D01*
X417806Y547868D01*
X416952Y548003D01*
X416112Y548205D01*
X415290Y548472D01*
X414491Y548803D01*
X413721Y549195D01*
X412984Y549647D01*
X412285Y550155D01*
X411627Y550716D01*
X411016Y551327D01*
X410455Y551985D01*
X409947Y552684D01*
X409495Y553421D01*
X409103Y554191D01*
X408772Y554990D01*
X408505Y555812D01*
X408303Y556652D01*
X408168Y557506D01*
X408100Y558368D01*
X408100Y559232D01*
X408168Y560094D01*
X408303Y560948D01*
X408505Y561788D01*
X408772Y562610D01*
X409103Y563409D01*
X409495Y564179D01*
X409947Y564916D01*
X410455Y565615D01*
X411016Y566273D01*
X411627Y566884D01*
X412285Y567445D01*
X412984Y567953D01*
X413721Y568405D01*
X414491Y568797D01*
X415290Y569128D01*
X416112Y569395D01*
X416952Y569597D01*
X417806Y569732D01*
X418668Y569800D01*
X419532Y569800D01*
X420394Y569732D01*
X421248Y569597D01*
X422088Y569395D01*
X422910Y569128D01*
X423709Y568797D01*
X424479Y568405D01*
X425216Y567953D01*
X425915Y567445D01*
X426573Y566884D01*
X427184Y566273D01*
X427745Y565615D01*
X428253Y564916D01*
X428705Y564179D01*
X429097Y563409D01*
X429428Y562610D01*
X429695Y561788D01*
X429897Y560948D01*
X430032Y560094D01*
X430100Y559232D01*
X430100Y558368D01*
X1175860Y1054933D02*
X1175784Y1054064D01*
X1175632Y1053204D01*
X1175406Y1052360D01*
X1175108Y1051540D01*
X1174739Y1050748D01*
X1174302Y1049992D01*
X1173801Y1049277D01*
X1173240Y1048608D01*
X1172622Y1047990D01*
X1171953Y1047429D01*
X1171238Y1046928D01*
X1170482Y1046491D01*
X1169690Y1046122D01*
X1168870Y1045824D01*
X1168026Y1045598D01*
X1167167Y1045446D01*
X1166297Y1045370D01*
X1165423Y1045370D01*
X1164554Y1045446D01*
X1163694Y1045598D01*
X1162850Y1045824D01*
X1162030Y1046122D01*
X1161238Y1046491D01*
X1160482Y1046928D01*
X1159767Y1047429D01*
X1159098Y1047990D01*
X1158480Y1048608D01*
X1157919Y1049277D01*
X1157418Y1049992D01*
X1156981Y1050748D01*
X1156612Y1051540D01*
X1156314Y1052360D01*
X1156088Y1053204D01*
X1155936Y1054064D01*
X1155860Y1054933D01*
X1155860Y1055807D01*
X1155936Y1056677D01*
X1156088Y1057536D01*
X1156314Y1058380D01*
X1156612Y1059200D01*
X1156981Y1059992D01*
X1157418Y1060748D01*
X1157919Y1061463D01*
X1158480Y1062132D01*
X1159098Y1062750D01*
X1159767Y1063311D01*
X1160482Y1063812D01*
X1161238Y1064249D01*
X1162030Y1064618D01*
X1162850Y1064916D01*
X1163694Y1065142D01*
X1164554Y1065294D01*
X1165423Y1065370D01*
X1166297Y1065370D01*
X1167167Y1065294D01*
X1168026Y1065142D01*
X1168870Y1064916D01*
X1169690Y1064618D01*
X1170482Y1064249D01*
X1171238Y1063812D01*
X1171953Y1063311D01*
X1172622Y1062750D01*
X1173240Y1062132D01*
X1173801Y1061463D01*
X1174302Y1060748D01*
X1174739Y1059992D01*
X1175108Y1059200D01*
X1175406Y1058380D01*
X1175632Y1057536D01*
X1175784Y1056677D01*
X1175860Y1055807D01*
X1175860Y1054933D01*
X1384140Y1054933D02*
X1384064Y1054064D01*
X1383912Y1053204D01*
X1383686Y1052360D01*
X1383388Y1051540D01*
X1383019Y1050748D01*
X1382582Y1049992D01*
X1382081Y1049277D01*
X1381520Y1048608D01*
X1380902Y1047990D01*
X1380233Y1047429D01*
X1379518Y1046928D01*
X1378762Y1046491D01*
X1377970Y1046122D01*
X1377150Y1045824D01*
X1376306Y1045598D01*
X1375447Y1045446D01*
X1374577Y1045370D01*
X1373703Y1045370D01*
X1372834Y1045446D01*
X1371974Y1045598D01*
X1371130Y1045824D01*
X1370310Y1046122D01*
X1369518Y1046491D01*
X1368762Y1046928D01*
X1368047Y1047429D01*
X1367378Y1047990D01*
X1366760Y1048608D01*
X1366199Y1049277D01*
X1365698Y1049992D01*
X1365261Y1050748D01*
X1364892Y1051540D01*
X1364594Y1052360D01*
X1364368Y1053204D01*
X1364216Y1054064D01*
X1364140Y1054933D01*
X1364140Y1055807D01*
X1364216Y1056677D01*
X1364368Y1057536D01*
X1364594Y1058380D01*
X1364892Y1059200D01*
X1365261Y1059992D01*
X1365698Y1060748D01*
X1366199Y1061463D01*
X1366760Y1062132D01*
X1367378Y1062750D01*
X1368047Y1063311D01*
X1368762Y1063812D01*
X1369518Y1064249D01*
X1370310Y1064618D01*
X1371130Y1064916D01*
X1371974Y1065142D01*
X1372834Y1065294D01*
X1373703Y1065370D01*
X1374577Y1065370D01*
X1375447Y1065294D01*
X1376306Y1065142D01*
X1377150Y1064916D01*
X1377970Y1064618D01*
X1378762Y1064249D01*
X1379518Y1063812D01*
X1380233Y1063311D01*
X1380902Y1062750D01*
X1381520Y1062132D01*
X1382081Y1061463D01*
X1382582Y1060748D01*
X1383019Y1059992D01*
X1383388Y1059200D01*
X1383686Y1058380D01*
X1383912Y1057536D01*
X1384064Y1056677D01*
X1384140Y1055807D01*
X1384140Y1054933D01*
X1384140Y823793D02*
X1384064Y822924D01*
X1383912Y822064D01*
X1383686Y821220D01*
X1383388Y820400D01*
X1383019Y819608D01*
X1382582Y818852D01*
X1382081Y818137D01*
X1381520Y817468D01*
X1380902Y816850D01*
X1380233Y816289D01*
X1379518Y815788D01*
X1378762Y815351D01*
X1377970Y814982D01*
X1377150Y814684D01*
X1376306Y814458D01*
X1375447Y814306D01*
X1374577Y814230D01*
X1373703Y814230D01*
X1372834Y814306D01*
X1371974Y814458D01*
X1371130Y814684D01*
X1370310Y814982D01*
X1369518Y815351D01*
X1368762Y815788D01*
X1368047Y816289D01*
X1367378Y816850D01*
X1366760Y817468D01*
X1366199Y818137D01*
X1365698Y818852D01*
X1365261Y819608D01*
X1364892Y820400D01*
X1364594Y821220D01*
X1364368Y822064D01*
X1364216Y822924D01*
X1364140Y823793D01*
X1364140Y824667D01*
X1364216Y825537D01*
X1364368Y826396D01*
X1364594Y827240D01*
X1364892Y828060D01*
X1365261Y828852D01*
X1365698Y829608D01*
X1366199Y830323D01*
X1366760Y830992D01*
X1367378Y831610D01*
X1368047Y832171D01*
X1368762Y832672D01*
X1369518Y833109D01*
X1370310Y833478D01*
X1371130Y833776D01*
X1371974Y834002D01*
X1372834Y834154D01*
X1373703Y834230D01*
X1374577Y834230D01*
X1375447Y834154D01*
X1376306Y834002D01*
X1377150Y833776D01*
X1377970Y833478D01*
X1378762Y833109D01*
X1379518Y832672D01*
X1380233Y832171D01*
X1380902Y831610D01*
X1381520Y830992D01*
X1382081Y830323D01*
X1382582Y829608D01*
X1383019Y828852D01*
X1383388Y828060D01*
X1383686Y827240D01*
X1383912Y826396D01*
X1384064Y825537D01*
X1384140Y824667D01*
X1384140Y823793D01*
X1175860Y823793D02*
X1175784Y822924D01*
X1175632Y822064D01*
X1175406Y821220D01*
X1175108Y820400D01*
X1174739Y819608D01*
X1174302Y818852D01*
X1173801Y818137D01*
X1173240Y817468D01*
X1172622Y816850D01*
X1171953Y816289D01*
X1171238Y815788D01*
X1170482Y815351D01*
X1169690Y814982D01*
X1168870Y814684D01*
X1168026Y814458D01*
X1167167Y814306D01*
X1166297Y814230D01*
X1165423Y814230D01*
X1164554Y814306D01*
X1163694Y814458D01*
X1162850Y814684D01*
X1162030Y814982D01*
X1161238Y815351D01*
X1160482Y815788D01*
X1159767Y816289D01*
X1159098Y816850D01*
X1158480Y817468D01*
X1157919Y818137D01*
X1157418Y818852D01*
X1156981Y819608D01*
X1156612Y820400D01*
X1156314Y821220D01*
X1156088Y822064D01*
X1155936Y822924D01*
X1155860Y823793D01*
X1155860Y824667D01*
X1155936Y825537D01*
X1156088Y826396D01*
X1156314Y827240D01*
X1156612Y828060D01*
X1156981Y828852D01*
X1157418Y829608D01*
X1157919Y830323D01*
X1158480Y830992D01*
X1159098Y831610D01*
X1159767Y832171D01*
X1160482Y832672D01*
X1161238Y833109D01*
X1162030Y833478D01*
X1162850Y833776D01*
X1163694Y834002D01*
X1164554Y834154D01*
X1165423Y834230D01*
X1166297Y834230D01*
X1167167Y834154D01*
X1168026Y834002D01*
X1168870Y833776D01*
X1169690Y833478D01*
X1170482Y833109D01*
X1171238Y832672D01*
X1171953Y832171D01*
X1172622Y831610D01*
X1173240Y830992D01*
X1173801Y830323D01*
X1174302Y829608D01*
X1174739Y828852D01*
X1175108Y828060D01*
X1175406Y827240D01*
X1175632Y826396D01*
X1175784Y825537D01*
X1175860Y824667D01*
X1175860Y823793D01*
X303100Y355168D02*
X303032Y354306D01*
X302897Y353452D01*
X302695Y352612D01*
X302428Y351790D01*
X302097Y350991D01*
X301705Y350221D01*
X301253Y349484D01*
X300745Y348785D01*
X300184Y348127D01*
X299573Y347516D01*
X298915Y346955D01*
X298216Y346447D01*
X297479Y345995D01*
X296709Y345603D01*
X295910Y345272D01*
X295088Y345005D01*
X294248Y344803D01*
X293394Y344668D01*
X292532Y344600D01*
X291668Y344600D01*
X290806Y344668D01*
X289952Y344803D01*
X289112Y345005D01*
X288290Y345272D01*
X287491Y345603D01*
X286721Y345995D01*
X285984Y346447D01*
X285285Y346955D01*
X284627Y347516D01*
X284016Y348127D01*
X283455Y348785D01*
X282947Y349484D01*
X282495Y350221D01*
X282103Y350991D01*
X281772Y351790D01*
X281505Y352612D01*
X281303Y353452D01*
X281168Y354306D01*
X281100Y355168D01*
X281100Y356032D01*
X281168Y356894D01*
X281303Y357748D01*
X281505Y358588D01*
X281772Y359410D01*
X282103Y360209D01*
X282495Y360979D01*
X282947Y361716D01*
X283455Y362415D01*
X284016Y363073D01*
X284627Y363684D01*
X285285Y364245D01*
X285984Y364753D01*
X286721Y365205D01*
X287491Y365597D01*
X288290Y365928D01*
X289112Y366195D01*
X289952Y366397D01*
X290806Y366532D01*
X291668Y366600D01*
X292532Y366600D01*
X293394Y366532D01*
X294248Y366397D01*
X295088Y366195D01*
X295910Y365928D01*
X296709Y365597D01*
X297479Y365205D01*
X298216Y364753D01*
X298915Y364245D01*
X299573Y363684D01*
X300184Y363073D01*
X300745Y362415D01*
X301253Y361716D01*
X301705Y360979D01*
X302097Y360209D01*
X302428Y359410D01*
X302695Y358588D01*
X302897Y357748D01*
X303032Y356894D01*
X303100Y356032D01*
X303100Y355168D01*
X430100Y355168D02*
X430032Y354306D01*
X429897Y353452D01*
X429695Y352612D01*
X429428Y351790D01*
X429097Y350991D01*
X428705Y350221D01*
X428253Y349484D01*
X427745Y348785D01*
X427184Y348127D01*
X426573Y347516D01*
X425915Y346955D01*
X425216Y346447D01*
X424479Y345995D01*
X423709Y345603D01*
X422910Y345272D01*
X422088Y345005D01*
X421248Y344803D01*
X420394Y344668D01*
X419532Y344600D01*
X418668Y344600D01*
X417806Y344668D01*
X416952Y344803D01*
X416112Y345005D01*
X415290Y345272D01*
X414491Y345603D01*
X413721Y345995D01*
X412984Y346447D01*
X412285Y346955D01*
X411627Y347516D01*
X411016Y348127D01*
X410455Y348785D01*
X409947Y349484D01*
X409495Y350221D01*
X409103Y350991D01*
X408772Y351790D01*
X408505Y352612D01*
X408303Y353452D01*
X408168Y354306D01*
X408100Y355168D01*
X408100Y356032D01*
X408168Y356894D01*
X408303Y357748D01*
X408505Y358588D01*
X408772Y359410D01*
X409103Y360209D01*
X409495Y360979D01*
X409947Y361716D01*
X410455Y362415D01*
X411016Y363073D01*
X411627Y363684D01*
X412285Y364245D01*
X412984Y364753D01*
X413721Y365205D01*
X414491Y365597D01*
X415290Y365928D01*
X416112Y366195D01*
X416952Y366397D01*
X417806Y366532D01*
X418668Y366600D01*
X419532Y366600D01*
X420394Y366532D01*
X421248Y366397D01*
X422088Y366195D01*
X422910Y365928D01*
X423709Y365597D01*
X424479Y365205D01*
X425216Y364753D01*
X425915Y364245D01*
X426573Y363684D01*
X427184Y363073D01*
X427745Y362415D01*
X428253Y361716D01*
X428705Y360979D01*
X429097Y360209D01*
X429428Y359410D01*
X429695Y358588D01*
X429897Y357748D01*
X430032Y356894D01*
X430100Y356032D01*
X430100Y355168D01*
X303100Y126568D02*
X303032Y125706D01*
X302897Y124852D01*
X302695Y124012D01*
X302428Y123190D01*
X302097Y122391D01*
X301705Y121621D01*
X301253Y120884D01*
X300745Y120185D01*
X300184Y119527D01*
X299573Y118916D01*
X298915Y118355D01*
X298216Y117847D01*
X297479Y117395D01*
X296709Y117003D01*
X295910Y116672D01*
X295088Y116405D01*
X294248Y116203D01*
X293394Y116068D01*
X292532Y116000D01*
X291668Y116000D01*
X290806Y116068D01*
X289952Y116203D01*
X289112Y116405D01*
X288290Y116672D01*
X287491Y117003D01*
X286721Y117395D01*
X285984Y117847D01*
X285285Y118355D01*
X284627Y118916D01*
X284016Y119527D01*
X283455Y120185D01*
X282947Y120884D01*
X282495Y121621D01*
X282103Y122391D01*
X281772Y123190D01*
X281505Y124012D01*
X281303Y124852D01*
X281168Y125706D01*
X281100Y126568D01*
X281100Y127432D01*
X281168Y128294D01*
X281303Y129148D01*
X281505Y129988D01*
X281772Y130810D01*
X282103Y131609D01*
X282495Y132379D01*
X282947Y133116D01*
X283455Y133815D01*
X284016Y134473D01*
X284627Y135084D01*
X285285Y135645D01*
X285984Y136153D01*
X286721Y136605D01*
X287491Y136997D01*
X288290Y137328D01*
X289112Y137595D01*
X289952Y137797D01*
X290806Y137932D01*
X291668Y138000D01*
X292532Y138000D01*
X293394Y137932D01*
X294248Y137797D01*
X295088Y137595D01*
X295910Y137328D01*
X296709Y136997D01*
X297479Y136605D01*
X298216Y136153D01*
X298915Y135645D01*
X299573Y135084D01*
X300184Y134473D01*
X300745Y133815D01*
X301253Y133116D01*
X301705Y132379D01*
X302097Y131609D01*
X302428Y130810D01*
X302695Y129988D01*
X302897Y129148D01*
X303032Y128294D01*
X303100Y127432D01*
X303100Y126568D01*
X430100Y126568D02*
X430032Y125706D01*
X429897Y124852D01*
X429695Y124012D01*
X429428Y123190D01*
X429097Y122391D01*
X428705Y121621D01*
X428253Y120884D01*
X427745Y120185D01*
X427184Y119527D01*
X426573Y118916D01*
X425915Y118355D01*
X425216Y117847D01*
X424479Y117395D01*
X423709Y117003D01*
X422910Y116672D01*
X422088Y116405D01*
X421248Y116203D01*
X420394Y116068D01*
X419532Y116000D01*
X418668Y116000D01*
X417806Y116068D01*
X416952Y116203D01*
X416112Y116405D01*
X415290Y116672D01*
X414491Y117003D01*
X413721Y117395D01*
X412984Y117847D01*
X412285Y118355D01*
X411627Y118916D01*
X411016Y119527D01*
X410455Y120185D01*
X409947Y120884D01*
X409495Y121621D01*
X409103Y122391D01*
X408772Y123190D01*
X408505Y124012D01*
X408303Y124852D01*
X408168Y125706D01*
X408100Y126568D01*
X408100Y127432D01*
X408168Y128294D01*
X408303Y129148D01*
X408505Y129988D01*
X408772Y130810D01*
X409103Y131609D01*
X409495Y132379D01*
X409947Y133116D01*
X410455Y133815D01*
X411016Y134473D01*
X411627Y135084D01*
X412285Y135645D01*
X412984Y136153D01*
X413721Y136605D01*
X414491Y136997D01*
X415290Y137328D01*
X416112Y137595D01*
X416952Y137797D01*
X417806Y137932D01*
X418668Y138000D01*
X419532Y138000D01*
X420394Y137932D01*
X421248Y137797D01*
X422088Y137595D01*
X422910Y137328D01*
X423709Y136997D01*
X424479Y136605D01*
X425216Y136153D01*
X425915Y135645D01*
X426573Y135084D01*
X427184Y134473D01*
X427745Y133815D01*
X428253Y133116D01*
X428705Y132379D01*
X429097Y131609D01*
X429428Y130810D01*
X429695Y129988D01*
X429897Y129148D01*
X430032Y128294D01*
X430100Y127432D01*
X430100Y126568D01*
X557100Y126568D02*
X557032Y125706D01*
X556897Y124852D01*
X556695Y124012D01*
X556428Y123190D01*
X556097Y122391D01*
X555705Y121621D01*
X555253Y120884D01*
X554745Y120185D01*
X554184Y119527D01*
X553573Y118916D01*
X552915Y118355D01*
X552216Y117847D01*
X551479Y117395D01*
X550709Y117003D01*
X549910Y116672D01*
X549088Y116405D01*
X548248Y116203D01*
X547394Y116068D01*
X546532Y116000D01*
X545668Y116000D01*
X544806Y116068D01*
X543952Y116203D01*
X543112Y116405D01*
X542290Y116672D01*
X541491Y117003D01*
X540721Y117395D01*
X539984Y117847D01*
X539285Y118355D01*
X538627Y118916D01*
X538016Y119527D01*
X537455Y120185D01*
X536947Y120884D01*
X536495Y121621D01*
X536103Y122391D01*
X535772Y123190D01*
X535505Y124012D01*
X535303Y124852D01*
X535168Y125706D01*
X535100Y126568D01*
X535100Y127432D01*
X535168Y128294D01*
X535303Y129148D01*
X535505Y129988D01*
X535772Y130810D01*
X536103Y131609D01*
X536495Y132379D01*
X536947Y133116D01*
X537455Y133815D01*
X538016Y134473D01*
X538627Y135084D01*
X539285Y135645D01*
X539984Y136153D01*
X540721Y136605D01*
X541491Y136997D01*
X542290Y137328D01*
X543112Y137595D01*
X543952Y137797D01*
X544806Y137932D01*
X545668Y138000D01*
X546532Y138000D01*
X547394Y137932D01*
X548248Y137797D01*
X549088Y137595D01*
X549910Y137328D01*
X550709Y136997D01*
X551479Y136605D01*
X552216Y136153D01*
X552915Y135645D01*
X553573Y135084D01*
X554184Y134473D01*
X554745Y133815D01*
X555253Y133116D01*
X555705Y132379D01*
X556097Y131609D01*
X556428Y130810D01*
X556695Y129988D01*
X556897Y129148D01*
X557032Y128294D01*
X557100Y127432D01*
X557100Y126568D01*
X1662952Y943200D02*
X1663853Y943271D01*
X1664745Y943412D01*
X1665624Y943623D01*
X1666483Y943902D01*
X1667318Y944248D01*
X1668123Y944659D01*
X1668894Y945131D01*
X1669625Y945662D01*
X1670312Y946249D01*
X1670951Y946888D01*
X1671538Y947575D01*
X1672069Y948306D01*
X1672541Y949077D01*
X1672952Y949882D01*
X1673298Y950717D01*
X1673577Y951576D01*
X1673788Y952455D01*
X1673929Y953347D01*
X1674000Y954248D01*
X1674000Y955152D01*
X1673929Y956053D01*
X1673788Y956945D01*
X1673577Y957824D01*
X1673298Y958683D01*
X1672952Y959518D01*
X1672541Y960323D01*
X1672069Y961094D01*
X1671538Y961825D01*
X1670951Y962512D01*
X1670312Y963151D01*
X1669625Y963738D01*
X1668894Y964269D01*
X1668123Y964741D01*
X1667318Y965152D01*
X1666483Y965498D01*
X1665624Y965777D01*
X1664745Y965988D01*
X1663853Y966129D01*
X1662952Y966200D01*
X1662048Y966200D01*
X1661147Y966129D01*
X1660255Y965988D01*
X1659376Y965777D01*
X1658517Y965498D01*
X1657682Y965152D01*
X1656877Y964741D01*
X1656106Y964269D01*
X1655375Y963738D01*
X1654688Y963151D01*
X1654049Y962512D01*
X1653462Y961825D01*
X1652931Y961094D01*
X1652459Y960323D01*
X1652048Y959518D01*
X1651702Y958683D01*
X1651423Y957824D01*
X1651212Y956945D01*
X1651071Y956053D01*
X1651000Y955152D01*
X1651000Y954248D01*
X1651071Y953347D01*
X1651212Y952455D01*
X1651423Y951576D01*
X1651702Y950717D01*
X1652048Y949882D01*
X1652459Y949077D01*
X1652931Y948306D01*
X1653462Y947575D01*
X1654049Y946888D01*
X1654688Y946249D01*
X1655375Y945662D01*
X1656106Y945131D01*
X1656877Y944659D01*
X1657682Y944248D01*
X1658517Y943902D01*
X1659376Y943623D01*
X1660255Y943412D01*
X1661147Y943271D01*
X1662048Y943200D01*
X1662952Y943200D01*
X1662952Y811800D02*
X1663853Y811871D01*
X1664745Y812012D01*
X1665624Y812223D01*
X1666483Y812502D01*
X1667318Y812848D01*
X1668123Y813259D01*
X1668894Y813731D01*
X1669625Y814262D01*
X1670312Y814849D01*
X1670951Y815488D01*
X1671538Y816175D01*
X1672069Y816906D01*
X1672541Y817677D01*
X1672952Y818482D01*
X1673298Y819317D01*
X1673577Y820176D01*
X1673788Y821055D01*
X1673929Y821947D01*
X1674000Y822848D01*
X1674000Y823752D01*
X1673929Y824653D01*
X1673788Y825545D01*
X1673577Y826424D01*
X1673298Y827283D01*
X1672952Y828118D01*
X1672541Y828923D01*
X1672069Y829694D01*
X1671538Y830425D01*
X1670951Y831112D01*
X1670312Y831751D01*
X1669625Y832338D01*
X1668894Y832869D01*
X1668123Y833341D01*
X1667318Y833752D01*
X1666483Y834098D01*
X1665624Y834377D01*
X1664745Y834588D01*
X1663853Y834729D01*
X1662952Y834800D01*
X1662048Y834800D01*
X1661147Y834729D01*
X1660255Y834588D01*
X1659376Y834377D01*
X1658517Y834098D01*
X1657682Y833752D01*
X1656877Y833341D01*
X1656106Y832869D01*
X1655375Y832338D01*
X1654688Y831751D01*
X1654049Y831112D01*
X1653462Y830425D01*
X1652931Y829694D01*
X1652459Y828923D01*
X1652048Y828118D01*
X1651702Y827283D01*
X1651423Y826424D01*
X1651212Y825545D01*
X1651071Y824653D01*
X1651000Y823752D01*
X1651000Y822848D01*
X1651071Y821947D01*
X1651212Y821055D01*
X1651423Y820176D01*
X1651702Y819317D01*
X1652048Y818482D01*
X1652459Y817677D01*
X1652931Y816906D01*
X1653462Y816175D01*
X1654049Y815488D01*
X1654688Y814849D01*
X1655375Y814262D01*
X1656106Y813731D01*
X1656877Y813259D01*
X1657682Y812848D01*
X1658517Y812502D01*
X1659376Y812223D01*
X1660255Y812012D01*
X1661147Y811871D01*
X1662048Y811800D01*
X1662952Y811800D01*
M02*
