G04 EAGLE Gerber RS-274X export*
G75*
%MOMM*%
%FSLAX34Y34*%
%LPD*%
%INSilkscreen Bottom*%
%IPPOS*%
%AMOC8*
5,1,8,0,0,1.08239X$1,22.5*%
G01*
%ADD10C,0.076200*%
%ADD11C,0.127000*%
%ADD12C,0.152400*%
%ADD13C,0.101600*%
%ADD14C,0.050800*%
%ADD15C,0.200000*%
%ADD16C,0.203200*%
%ADD17R,0.762000X0.863600*%
%ADD18C,0.070000*%
%ADD19R,0.400000X0.200000*%
%ADD20C,0.304800*%
%ADD21R,0.200000X0.100000*%

G36*
X1330980Y72902D02*
X1330980Y72902D01*
X1330999Y72900D01*
X1331101Y72922D01*
X1331203Y72939D01*
X1331220Y72948D01*
X1331240Y72952D01*
X1331329Y73005D01*
X1331420Y73054D01*
X1331434Y73068D01*
X1331451Y73078D01*
X1331518Y73157D01*
X1331590Y73232D01*
X1331598Y73250D01*
X1331611Y73265D01*
X1331650Y73361D01*
X1331693Y73455D01*
X1331695Y73475D01*
X1331703Y73493D01*
X1331721Y73660D01*
X1331721Y161290D01*
X1331718Y161310D01*
X1331720Y161329D01*
X1331698Y161431D01*
X1331682Y161533D01*
X1331672Y161550D01*
X1331668Y161570D01*
X1331615Y161659D01*
X1331566Y161750D01*
X1331552Y161764D01*
X1331542Y161781D01*
X1331463Y161848D01*
X1331388Y161920D01*
X1331370Y161928D01*
X1331355Y161941D01*
X1331259Y161980D01*
X1331165Y162023D01*
X1331145Y162025D01*
X1331127Y162033D01*
X1330960Y162051D01*
X1322070Y162051D01*
X1322050Y162048D01*
X1322031Y162050D01*
X1321929Y162028D01*
X1321827Y162012D01*
X1321810Y162002D01*
X1321790Y161998D01*
X1321701Y161945D01*
X1321610Y161896D01*
X1321596Y161882D01*
X1321579Y161872D01*
X1321512Y161793D01*
X1321441Y161718D01*
X1321432Y161700D01*
X1321419Y161685D01*
X1321380Y161589D01*
X1321337Y161495D01*
X1321335Y161475D01*
X1321327Y161457D01*
X1321309Y161290D01*
X1321309Y73660D01*
X1321312Y73640D01*
X1321310Y73621D01*
X1321332Y73519D01*
X1321349Y73417D01*
X1321358Y73400D01*
X1321362Y73380D01*
X1321415Y73291D01*
X1321464Y73200D01*
X1321478Y73186D01*
X1321488Y73169D01*
X1321567Y73102D01*
X1321642Y73031D01*
X1321660Y73022D01*
X1321675Y73009D01*
X1321771Y72970D01*
X1321865Y72927D01*
X1321885Y72925D01*
X1321903Y72917D01*
X1322070Y72899D01*
X1330960Y72899D01*
X1330980Y72902D01*
G37*
D10*
X1314199Y139354D02*
X1314199Y144269D01*
X1315428Y146839D02*
X1317885Y149296D01*
X1310513Y149296D01*
X1310513Y146839D02*
X1310513Y151753D01*
X1310513Y154323D02*
X1310513Y159238D01*
X1310513Y154323D02*
X1315428Y159238D01*
X1316657Y159238D01*
X1317885Y158009D01*
X1317885Y155551D01*
X1316657Y154323D01*
X1317885Y161807D02*
X1312970Y161807D01*
X1310513Y164264D01*
X1312970Y166722D01*
X1317885Y166722D01*
D11*
X1742445Y174229D02*
X1742445Y181856D01*
X1742445Y174229D02*
X1750072Y181856D01*
X1751978Y181856D01*
X1753885Y179949D01*
X1753885Y176136D01*
X1751978Y174229D01*
X1753885Y185923D02*
X1753885Y193549D01*
X1753885Y185923D02*
X1748165Y185923D01*
X1750072Y189736D01*
X1750072Y191643D01*
X1748165Y193549D01*
X1744352Y193549D01*
X1742445Y191643D01*
X1742445Y187830D01*
X1744352Y185923D01*
X1750072Y473871D02*
X1753885Y477684D01*
X1742445Y477684D01*
X1742445Y473871D02*
X1742445Y481498D01*
X1742445Y491285D02*
X1753885Y491285D01*
X1748165Y485565D01*
X1748165Y493191D01*
D12*
X1242060Y181610D02*
X1241960Y181612D01*
X1241861Y181618D01*
X1241761Y181628D01*
X1241663Y181641D01*
X1241564Y181659D01*
X1241467Y181680D01*
X1241371Y181705D01*
X1241275Y181734D01*
X1241181Y181767D01*
X1241088Y181803D01*
X1240997Y181843D01*
X1240907Y181887D01*
X1240819Y181934D01*
X1240733Y181984D01*
X1240649Y182038D01*
X1240567Y182095D01*
X1240488Y182155D01*
X1240410Y182219D01*
X1240336Y182285D01*
X1240264Y182354D01*
X1240195Y182426D01*
X1240129Y182500D01*
X1240065Y182578D01*
X1240005Y182657D01*
X1239948Y182739D01*
X1239894Y182823D01*
X1239844Y182909D01*
X1239797Y182997D01*
X1239753Y183087D01*
X1239713Y183178D01*
X1239677Y183271D01*
X1239644Y183365D01*
X1239615Y183461D01*
X1239590Y183557D01*
X1239569Y183654D01*
X1239551Y183753D01*
X1239538Y183851D01*
X1239528Y183951D01*
X1239522Y184050D01*
X1239520Y184150D01*
X1239520Y196850D02*
X1239522Y196950D01*
X1239528Y197049D01*
X1239538Y197149D01*
X1239551Y197247D01*
X1239569Y197346D01*
X1239590Y197443D01*
X1239615Y197539D01*
X1239644Y197635D01*
X1239677Y197729D01*
X1239713Y197822D01*
X1239753Y197913D01*
X1239797Y198003D01*
X1239844Y198091D01*
X1239894Y198177D01*
X1239948Y198261D01*
X1240005Y198343D01*
X1240065Y198422D01*
X1240129Y198500D01*
X1240195Y198574D01*
X1240264Y198646D01*
X1240336Y198715D01*
X1240410Y198781D01*
X1240488Y198845D01*
X1240567Y198905D01*
X1240649Y198962D01*
X1240733Y199016D01*
X1240819Y199066D01*
X1240907Y199113D01*
X1240997Y199157D01*
X1241088Y199197D01*
X1241181Y199233D01*
X1241275Y199266D01*
X1241371Y199295D01*
X1241467Y199320D01*
X1241564Y199341D01*
X1241663Y199359D01*
X1241761Y199372D01*
X1241861Y199382D01*
X1241960Y199388D01*
X1242060Y199390D01*
X1272540Y199390D02*
X1272640Y199388D01*
X1272739Y199382D01*
X1272839Y199372D01*
X1272937Y199359D01*
X1273036Y199341D01*
X1273133Y199320D01*
X1273229Y199295D01*
X1273325Y199266D01*
X1273419Y199233D01*
X1273512Y199197D01*
X1273603Y199157D01*
X1273693Y199113D01*
X1273781Y199066D01*
X1273867Y199016D01*
X1273951Y198962D01*
X1274033Y198905D01*
X1274112Y198845D01*
X1274190Y198781D01*
X1274264Y198715D01*
X1274336Y198646D01*
X1274405Y198574D01*
X1274471Y198500D01*
X1274535Y198422D01*
X1274595Y198343D01*
X1274652Y198261D01*
X1274706Y198177D01*
X1274756Y198091D01*
X1274803Y198003D01*
X1274847Y197913D01*
X1274887Y197822D01*
X1274923Y197729D01*
X1274956Y197635D01*
X1274985Y197539D01*
X1275010Y197443D01*
X1275031Y197346D01*
X1275049Y197247D01*
X1275062Y197149D01*
X1275072Y197049D01*
X1275078Y196950D01*
X1275080Y196850D01*
X1275080Y184150D02*
X1275078Y184050D01*
X1275072Y183951D01*
X1275062Y183851D01*
X1275049Y183753D01*
X1275031Y183654D01*
X1275010Y183557D01*
X1274985Y183461D01*
X1274956Y183365D01*
X1274923Y183271D01*
X1274887Y183178D01*
X1274847Y183087D01*
X1274803Y182997D01*
X1274756Y182909D01*
X1274706Y182823D01*
X1274652Y182739D01*
X1274595Y182657D01*
X1274535Y182578D01*
X1274471Y182500D01*
X1274405Y182426D01*
X1274336Y182354D01*
X1274264Y182285D01*
X1274190Y182219D01*
X1274112Y182155D01*
X1274033Y182095D01*
X1273951Y182038D01*
X1273867Y181984D01*
X1273781Y181934D01*
X1273693Y181887D01*
X1273603Y181843D01*
X1273512Y181803D01*
X1273419Y181767D01*
X1273325Y181734D01*
X1273229Y181705D01*
X1273133Y181680D01*
X1273036Y181659D01*
X1272937Y181641D01*
X1272839Y181628D01*
X1272739Y181618D01*
X1272640Y181612D01*
X1272540Y181610D01*
X1244600Y181610D02*
X1242060Y181610D01*
X1244600Y181610D02*
X1245870Y182880D01*
X1244600Y199390D02*
X1242060Y199390D01*
X1244600Y199390D02*
X1245870Y198120D01*
X1268730Y182880D02*
X1270000Y181610D01*
X1268730Y182880D02*
X1245870Y182880D01*
X1268730Y198120D02*
X1270000Y199390D01*
X1268730Y198120D02*
X1245870Y198120D01*
X1270000Y181610D02*
X1272540Y181610D01*
X1272540Y199390D02*
X1270000Y199390D01*
X1315720Y184150D02*
X1315722Y184050D01*
X1315728Y183951D01*
X1315738Y183851D01*
X1315751Y183753D01*
X1315769Y183654D01*
X1315790Y183557D01*
X1315815Y183461D01*
X1315844Y183365D01*
X1315877Y183271D01*
X1315913Y183178D01*
X1315953Y183087D01*
X1315997Y182997D01*
X1316044Y182909D01*
X1316094Y182823D01*
X1316148Y182739D01*
X1316205Y182657D01*
X1316265Y182578D01*
X1316329Y182500D01*
X1316395Y182426D01*
X1316464Y182354D01*
X1316536Y182285D01*
X1316610Y182219D01*
X1316688Y182155D01*
X1316767Y182095D01*
X1316849Y182038D01*
X1316933Y181984D01*
X1317019Y181934D01*
X1317107Y181887D01*
X1317197Y181843D01*
X1317288Y181803D01*
X1317381Y181767D01*
X1317475Y181734D01*
X1317571Y181705D01*
X1317667Y181680D01*
X1317764Y181659D01*
X1317863Y181641D01*
X1317961Y181628D01*
X1318061Y181618D01*
X1318160Y181612D01*
X1318260Y181610D01*
X1315720Y196850D02*
X1315722Y196950D01*
X1315728Y197049D01*
X1315738Y197149D01*
X1315751Y197247D01*
X1315769Y197346D01*
X1315790Y197443D01*
X1315815Y197539D01*
X1315844Y197635D01*
X1315877Y197729D01*
X1315913Y197822D01*
X1315953Y197913D01*
X1315997Y198003D01*
X1316044Y198091D01*
X1316094Y198177D01*
X1316148Y198261D01*
X1316205Y198343D01*
X1316265Y198422D01*
X1316329Y198500D01*
X1316395Y198574D01*
X1316464Y198646D01*
X1316536Y198715D01*
X1316610Y198781D01*
X1316688Y198845D01*
X1316767Y198905D01*
X1316849Y198962D01*
X1316933Y199016D01*
X1317019Y199066D01*
X1317107Y199113D01*
X1317197Y199157D01*
X1317288Y199197D01*
X1317381Y199233D01*
X1317475Y199266D01*
X1317571Y199295D01*
X1317667Y199320D01*
X1317764Y199341D01*
X1317863Y199359D01*
X1317961Y199372D01*
X1318061Y199382D01*
X1318160Y199388D01*
X1318260Y199390D01*
X1348740Y199390D02*
X1348840Y199388D01*
X1348939Y199382D01*
X1349039Y199372D01*
X1349137Y199359D01*
X1349236Y199341D01*
X1349333Y199320D01*
X1349429Y199295D01*
X1349525Y199266D01*
X1349619Y199233D01*
X1349712Y199197D01*
X1349803Y199157D01*
X1349893Y199113D01*
X1349981Y199066D01*
X1350067Y199016D01*
X1350151Y198962D01*
X1350233Y198905D01*
X1350312Y198845D01*
X1350390Y198781D01*
X1350464Y198715D01*
X1350536Y198646D01*
X1350605Y198574D01*
X1350671Y198500D01*
X1350735Y198422D01*
X1350795Y198343D01*
X1350852Y198261D01*
X1350906Y198177D01*
X1350956Y198091D01*
X1351003Y198003D01*
X1351047Y197913D01*
X1351087Y197822D01*
X1351123Y197729D01*
X1351156Y197635D01*
X1351185Y197539D01*
X1351210Y197443D01*
X1351231Y197346D01*
X1351249Y197247D01*
X1351262Y197149D01*
X1351272Y197049D01*
X1351278Y196950D01*
X1351280Y196850D01*
X1351280Y184150D02*
X1351278Y184050D01*
X1351272Y183951D01*
X1351262Y183851D01*
X1351249Y183753D01*
X1351231Y183654D01*
X1351210Y183557D01*
X1351185Y183461D01*
X1351156Y183365D01*
X1351123Y183271D01*
X1351087Y183178D01*
X1351047Y183087D01*
X1351003Y182997D01*
X1350956Y182909D01*
X1350906Y182823D01*
X1350852Y182739D01*
X1350795Y182657D01*
X1350735Y182578D01*
X1350671Y182500D01*
X1350605Y182426D01*
X1350536Y182354D01*
X1350464Y182285D01*
X1350390Y182219D01*
X1350312Y182155D01*
X1350233Y182095D01*
X1350151Y182038D01*
X1350067Y181984D01*
X1349981Y181934D01*
X1349893Y181887D01*
X1349803Y181843D01*
X1349712Y181803D01*
X1349619Y181767D01*
X1349525Y181734D01*
X1349429Y181705D01*
X1349333Y181680D01*
X1349236Y181659D01*
X1349137Y181641D01*
X1349039Y181628D01*
X1348939Y181618D01*
X1348840Y181612D01*
X1348740Y181610D01*
X1320800Y181610D02*
X1318260Y181610D01*
X1320800Y181610D02*
X1322070Y182880D01*
X1320800Y199390D02*
X1318260Y199390D01*
X1320800Y199390D02*
X1322070Y198120D01*
X1344930Y182880D02*
X1346200Y181610D01*
X1344930Y182880D02*
X1322070Y182880D01*
X1344930Y198120D02*
X1346200Y199390D01*
X1344930Y198120D02*
X1322070Y198120D01*
X1346200Y181610D02*
X1348740Y181610D01*
X1348740Y199390D02*
X1346200Y199390D01*
X1440180Y349250D02*
X1440178Y349350D01*
X1440172Y349449D01*
X1440162Y349549D01*
X1440149Y349647D01*
X1440131Y349746D01*
X1440110Y349843D01*
X1440085Y349939D01*
X1440056Y350035D01*
X1440023Y350129D01*
X1439987Y350222D01*
X1439947Y350313D01*
X1439903Y350403D01*
X1439856Y350491D01*
X1439806Y350577D01*
X1439752Y350661D01*
X1439695Y350743D01*
X1439635Y350822D01*
X1439571Y350900D01*
X1439505Y350974D01*
X1439436Y351046D01*
X1439364Y351115D01*
X1439290Y351181D01*
X1439212Y351245D01*
X1439133Y351305D01*
X1439051Y351362D01*
X1438967Y351416D01*
X1438881Y351466D01*
X1438793Y351513D01*
X1438703Y351557D01*
X1438612Y351597D01*
X1438519Y351633D01*
X1438425Y351666D01*
X1438329Y351695D01*
X1438233Y351720D01*
X1438136Y351741D01*
X1438037Y351759D01*
X1437939Y351772D01*
X1437839Y351782D01*
X1437740Y351788D01*
X1437640Y351790D01*
X1440180Y336550D02*
X1440178Y336450D01*
X1440172Y336351D01*
X1440162Y336251D01*
X1440149Y336153D01*
X1440131Y336054D01*
X1440110Y335957D01*
X1440085Y335861D01*
X1440056Y335765D01*
X1440023Y335671D01*
X1439987Y335578D01*
X1439947Y335487D01*
X1439903Y335397D01*
X1439856Y335309D01*
X1439806Y335223D01*
X1439752Y335139D01*
X1439695Y335057D01*
X1439635Y334978D01*
X1439571Y334900D01*
X1439505Y334826D01*
X1439436Y334754D01*
X1439364Y334685D01*
X1439290Y334619D01*
X1439212Y334555D01*
X1439133Y334495D01*
X1439051Y334438D01*
X1438967Y334384D01*
X1438881Y334334D01*
X1438793Y334287D01*
X1438703Y334243D01*
X1438612Y334203D01*
X1438519Y334167D01*
X1438425Y334134D01*
X1438329Y334105D01*
X1438233Y334080D01*
X1438136Y334059D01*
X1438037Y334041D01*
X1437939Y334028D01*
X1437839Y334018D01*
X1437740Y334012D01*
X1437640Y334010D01*
X1407160Y334010D02*
X1407060Y334012D01*
X1406961Y334018D01*
X1406861Y334028D01*
X1406763Y334041D01*
X1406664Y334059D01*
X1406567Y334080D01*
X1406471Y334105D01*
X1406375Y334134D01*
X1406281Y334167D01*
X1406188Y334203D01*
X1406097Y334243D01*
X1406007Y334287D01*
X1405919Y334334D01*
X1405833Y334384D01*
X1405749Y334438D01*
X1405667Y334495D01*
X1405588Y334555D01*
X1405510Y334619D01*
X1405436Y334685D01*
X1405364Y334754D01*
X1405295Y334826D01*
X1405229Y334900D01*
X1405165Y334978D01*
X1405105Y335057D01*
X1405048Y335139D01*
X1404994Y335223D01*
X1404944Y335309D01*
X1404897Y335397D01*
X1404853Y335487D01*
X1404813Y335578D01*
X1404777Y335671D01*
X1404744Y335765D01*
X1404715Y335861D01*
X1404690Y335957D01*
X1404669Y336054D01*
X1404651Y336153D01*
X1404638Y336251D01*
X1404628Y336351D01*
X1404622Y336450D01*
X1404620Y336550D01*
X1404620Y349250D02*
X1404622Y349350D01*
X1404628Y349449D01*
X1404638Y349549D01*
X1404651Y349647D01*
X1404669Y349746D01*
X1404690Y349843D01*
X1404715Y349939D01*
X1404744Y350035D01*
X1404777Y350129D01*
X1404813Y350222D01*
X1404853Y350313D01*
X1404897Y350403D01*
X1404944Y350491D01*
X1404994Y350577D01*
X1405048Y350661D01*
X1405105Y350743D01*
X1405165Y350822D01*
X1405229Y350900D01*
X1405295Y350974D01*
X1405364Y351046D01*
X1405436Y351115D01*
X1405510Y351181D01*
X1405588Y351245D01*
X1405667Y351305D01*
X1405749Y351362D01*
X1405833Y351416D01*
X1405919Y351466D01*
X1406007Y351513D01*
X1406097Y351557D01*
X1406188Y351597D01*
X1406281Y351633D01*
X1406375Y351666D01*
X1406471Y351695D01*
X1406567Y351720D01*
X1406664Y351741D01*
X1406763Y351759D01*
X1406861Y351772D01*
X1406961Y351782D01*
X1407060Y351788D01*
X1407160Y351790D01*
X1435100Y351790D02*
X1437640Y351790D01*
X1435100Y351790D02*
X1433830Y350520D01*
X1435100Y334010D02*
X1437640Y334010D01*
X1435100Y334010D02*
X1433830Y335280D01*
X1410970Y350520D02*
X1409700Y351790D01*
X1410970Y350520D02*
X1433830Y350520D01*
X1410970Y335280D02*
X1409700Y334010D01*
X1410970Y335280D02*
X1433830Y335280D01*
X1409700Y351790D02*
X1407160Y351790D01*
X1407160Y334010D02*
X1409700Y334010D01*
D10*
X1402561Y352933D02*
X1402561Y360305D01*
X1398875Y360305D01*
X1397647Y359077D01*
X1397647Y356619D01*
X1398875Y355390D01*
X1402561Y355390D01*
X1400104Y355390D02*
X1397647Y352933D01*
X1395077Y352933D02*
X1390162Y352933D01*
X1395077Y352933D02*
X1390162Y357848D01*
X1390162Y359077D01*
X1391391Y360305D01*
X1393849Y360305D01*
X1395077Y359077D01*
X1387593Y359077D02*
X1386364Y360305D01*
X1383907Y360305D01*
X1382678Y359077D01*
X1382678Y357848D01*
X1383907Y356619D01*
X1382678Y355390D01*
X1382678Y354162D01*
X1383907Y352933D01*
X1386364Y352933D01*
X1387593Y354162D01*
X1387593Y355390D01*
X1386364Y356619D01*
X1387593Y357848D01*
X1387593Y359077D01*
X1386364Y356619D02*
X1383907Y356619D01*
D12*
X1404620Y285750D02*
X1404622Y285650D01*
X1404628Y285551D01*
X1404638Y285451D01*
X1404651Y285353D01*
X1404669Y285254D01*
X1404690Y285157D01*
X1404715Y285061D01*
X1404744Y284965D01*
X1404777Y284871D01*
X1404813Y284778D01*
X1404853Y284687D01*
X1404897Y284597D01*
X1404944Y284509D01*
X1404994Y284423D01*
X1405048Y284339D01*
X1405105Y284257D01*
X1405165Y284178D01*
X1405229Y284100D01*
X1405295Y284026D01*
X1405364Y283954D01*
X1405436Y283885D01*
X1405510Y283819D01*
X1405588Y283755D01*
X1405667Y283695D01*
X1405749Y283638D01*
X1405833Y283584D01*
X1405919Y283534D01*
X1406007Y283487D01*
X1406097Y283443D01*
X1406188Y283403D01*
X1406281Y283367D01*
X1406375Y283334D01*
X1406471Y283305D01*
X1406567Y283280D01*
X1406664Y283259D01*
X1406763Y283241D01*
X1406861Y283228D01*
X1406961Y283218D01*
X1407060Y283212D01*
X1407160Y283210D01*
X1404620Y298450D02*
X1404622Y298550D01*
X1404628Y298649D01*
X1404638Y298749D01*
X1404651Y298847D01*
X1404669Y298946D01*
X1404690Y299043D01*
X1404715Y299139D01*
X1404744Y299235D01*
X1404777Y299329D01*
X1404813Y299422D01*
X1404853Y299513D01*
X1404897Y299603D01*
X1404944Y299691D01*
X1404994Y299777D01*
X1405048Y299861D01*
X1405105Y299943D01*
X1405165Y300022D01*
X1405229Y300100D01*
X1405295Y300174D01*
X1405364Y300246D01*
X1405436Y300315D01*
X1405510Y300381D01*
X1405588Y300445D01*
X1405667Y300505D01*
X1405749Y300562D01*
X1405833Y300616D01*
X1405919Y300666D01*
X1406007Y300713D01*
X1406097Y300757D01*
X1406188Y300797D01*
X1406281Y300833D01*
X1406375Y300866D01*
X1406471Y300895D01*
X1406567Y300920D01*
X1406664Y300941D01*
X1406763Y300959D01*
X1406861Y300972D01*
X1406961Y300982D01*
X1407060Y300988D01*
X1407160Y300990D01*
X1437640Y300990D02*
X1437740Y300988D01*
X1437839Y300982D01*
X1437939Y300972D01*
X1438037Y300959D01*
X1438136Y300941D01*
X1438233Y300920D01*
X1438329Y300895D01*
X1438425Y300866D01*
X1438519Y300833D01*
X1438612Y300797D01*
X1438703Y300757D01*
X1438793Y300713D01*
X1438881Y300666D01*
X1438967Y300616D01*
X1439051Y300562D01*
X1439133Y300505D01*
X1439212Y300445D01*
X1439290Y300381D01*
X1439364Y300315D01*
X1439436Y300246D01*
X1439505Y300174D01*
X1439571Y300100D01*
X1439635Y300022D01*
X1439695Y299943D01*
X1439752Y299861D01*
X1439806Y299777D01*
X1439856Y299691D01*
X1439903Y299603D01*
X1439947Y299513D01*
X1439987Y299422D01*
X1440023Y299329D01*
X1440056Y299235D01*
X1440085Y299139D01*
X1440110Y299043D01*
X1440131Y298946D01*
X1440149Y298847D01*
X1440162Y298749D01*
X1440172Y298649D01*
X1440178Y298550D01*
X1440180Y298450D01*
X1440180Y285750D02*
X1440178Y285650D01*
X1440172Y285551D01*
X1440162Y285451D01*
X1440149Y285353D01*
X1440131Y285254D01*
X1440110Y285157D01*
X1440085Y285061D01*
X1440056Y284965D01*
X1440023Y284871D01*
X1439987Y284778D01*
X1439947Y284687D01*
X1439903Y284597D01*
X1439856Y284509D01*
X1439806Y284423D01*
X1439752Y284339D01*
X1439695Y284257D01*
X1439635Y284178D01*
X1439571Y284100D01*
X1439505Y284026D01*
X1439436Y283954D01*
X1439364Y283885D01*
X1439290Y283819D01*
X1439212Y283755D01*
X1439133Y283695D01*
X1439051Y283638D01*
X1438967Y283584D01*
X1438881Y283534D01*
X1438793Y283487D01*
X1438703Y283443D01*
X1438612Y283403D01*
X1438519Y283367D01*
X1438425Y283334D01*
X1438329Y283305D01*
X1438233Y283280D01*
X1438136Y283259D01*
X1438037Y283241D01*
X1437939Y283228D01*
X1437839Y283218D01*
X1437740Y283212D01*
X1437640Y283210D01*
X1409700Y283210D02*
X1407160Y283210D01*
X1409700Y283210D02*
X1410970Y284480D01*
X1409700Y300990D02*
X1407160Y300990D01*
X1409700Y300990D02*
X1410970Y299720D01*
X1433830Y284480D02*
X1435100Y283210D01*
X1433830Y284480D02*
X1410970Y284480D01*
X1433830Y299720D02*
X1435100Y300990D01*
X1433830Y299720D02*
X1410970Y299720D01*
X1435100Y283210D02*
X1437640Y283210D01*
X1437640Y300990D02*
X1435100Y300990D01*
D10*
X1400021Y282835D02*
X1400021Y275463D01*
X1400021Y282835D02*
X1396335Y282835D01*
X1395107Y281607D01*
X1395107Y279149D01*
X1396335Y277920D01*
X1400021Y277920D01*
X1397564Y277920D02*
X1395107Y275463D01*
X1392537Y275463D02*
X1387622Y275463D01*
X1392537Y275463D02*
X1387622Y280378D01*
X1387622Y281607D01*
X1388851Y282835D01*
X1391309Y282835D01*
X1392537Y281607D01*
X1385053Y276692D02*
X1383824Y275463D01*
X1381367Y275463D01*
X1380138Y276692D01*
X1380138Y281607D01*
X1381367Y282835D01*
X1383824Y282835D01*
X1385053Y281607D01*
X1385053Y280378D01*
X1383824Y279149D01*
X1380138Y279149D01*
D12*
X1404620Y234950D02*
X1404622Y234850D01*
X1404628Y234751D01*
X1404638Y234651D01*
X1404651Y234553D01*
X1404669Y234454D01*
X1404690Y234357D01*
X1404715Y234261D01*
X1404744Y234165D01*
X1404777Y234071D01*
X1404813Y233978D01*
X1404853Y233887D01*
X1404897Y233797D01*
X1404944Y233709D01*
X1404994Y233623D01*
X1405048Y233539D01*
X1405105Y233457D01*
X1405165Y233378D01*
X1405229Y233300D01*
X1405295Y233226D01*
X1405364Y233154D01*
X1405436Y233085D01*
X1405510Y233019D01*
X1405588Y232955D01*
X1405667Y232895D01*
X1405749Y232838D01*
X1405833Y232784D01*
X1405919Y232734D01*
X1406007Y232687D01*
X1406097Y232643D01*
X1406188Y232603D01*
X1406281Y232567D01*
X1406375Y232534D01*
X1406471Y232505D01*
X1406567Y232480D01*
X1406664Y232459D01*
X1406763Y232441D01*
X1406861Y232428D01*
X1406961Y232418D01*
X1407060Y232412D01*
X1407160Y232410D01*
X1404620Y247650D02*
X1404622Y247750D01*
X1404628Y247849D01*
X1404638Y247949D01*
X1404651Y248047D01*
X1404669Y248146D01*
X1404690Y248243D01*
X1404715Y248339D01*
X1404744Y248435D01*
X1404777Y248529D01*
X1404813Y248622D01*
X1404853Y248713D01*
X1404897Y248803D01*
X1404944Y248891D01*
X1404994Y248977D01*
X1405048Y249061D01*
X1405105Y249143D01*
X1405165Y249222D01*
X1405229Y249300D01*
X1405295Y249374D01*
X1405364Y249446D01*
X1405436Y249515D01*
X1405510Y249581D01*
X1405588Y249645D01*
X1405667Y249705D01*
X1405749Y249762D01*
X1405833Y249816D01*
X1405919Y249866D01*
X1406007Y249913D01*
X1406097Y249957D01*
X1406188Y249997D01*
X1406281Y250033D01*
X1406375Y250066D01*
X1406471Y250095D01*
X1406567Y250120D01*
X1406664Y250141D01*
X1406763Y250159D01*
X1406861Y250172D01*
X1406961Y250182D01*
X1407060Y250188D01*
X1407160Y250190D01*
X1437640Y250190D02*
X1437740Y250188D01*
X1437839Y250182D01*
X1437939Y250172D01*
X1438037Y250159D01*
X1438136Y250141D01*
X1438233Y250120D01*
X1438329Y250095D01*
X1438425Y250066D01*
X1438519Y250033D01*
X1438612Y249997D01*
X1438703Y249957D01*
X1438793Y249913D01*
X1438881Y249866D01*
X1438967Y249816D01*
X1439051Y249762D01*
X1439133Y249705D01*
X1439212Y249645D01*
X1439290Y249581D01*
X1439364Y249515D01*
X1439436Y249446D01*
X1439505Y249374D01*
X1439571Y249300D01*
X1439635Y249222D01*
X1439695Y249143D01*
X1439752Y249061D01*
X1439806Y248977D01*
X1439856Y248891D01*
X1439903Y248803D01*
X1439947Y248713D01*
X1439987Y248622D01*
X1440023Y248529D01*
X1440056Y248435D01*
X1440085Y248339D01*
X1440110Y248243D01*
X1440131Y248146D01*
X1440149Y248047D01*
X1440162Y247949D01*
X1440172Y247849D01*
X1440178Y247750D01*
X1440180Y247650D01*
X1440180Y234950D02*
X1440178Y234850D01*
X1440172Y234751D01*
X1440162Y234651D01*
X1440149Y234553D01*
X1440131Y234454D01*
X1440110Y234357D01*
X1440085Y234261D01*
X1440056Y234165D01*
X1440023Y234071D01*
X1439987Y233978D01*
X1439947Y233887D01*
X1439903Y233797D01*
X1439856Y233709D01*
X1439806Y233623D01*
X1439752Y233539D01*
X1439695Y233457D01*
X1439635Y233378D01*
X1439571Y233300D01*
X1439505Y233226D01*
X1439436Y233154D01*
X1439364Y233085D01*
X1439290Y233019D01*
X1439212Y232955D01*
X1439133Y232895D01*
X1439051Y232838D01*
X1438967Y232784D01*
X1438881Y232734D01*
X1438793Y232687D01*
X1438703Y232643D01*
X1438612Y232603D01*
X1438519Y232567D01*
X1438425Y232534D01*
X1438329Y232505D01*
X1438233Y232480D01*
X1438136Y232459D01*
X1438037Y232441D01*
X1437939Y232428D01*
X1437839Y232418D01*
X1437740Y232412D01*
X1437640Y232410D01*
X1409700Y232410D02*
X1407160Y232410D01*
X1409700Y232410D02*
X1410970Y233680D01*
X1409700Y250190D02*
X1407160Y250190D01*
X1409700Y250190D02*
X1410970Y248920D01*
X1433830Y233680D02*
X1435100Y232410D01*
X1433830Y233680D02*
X1410970Y233680D01*
X1433830Y248920D02*
X1435100Y250190D01*
X1433830Y248920D02*
X1410970Y248920D01*
X1435100Y232410D02*
X1437640Y232410D01*
X1437640Y250190D02*
X1435100Y250190D01*
D10*
X1407641Y229495D02*
X1407641Y222123D01*
X1407641Y229495D02*
X1403955Y229495D01*
X1402727Y228267D01*
X1402727Y225809D01*
X1403955Y224580D01*
X1407641Y224580D01*
X1405184Y224580D02*
X1402727Y222123D01*
X1400157Y228267D02*
X1398929Y229495D01*
X1396471Y229495D01*
X1395242Y228267D01*
X1395242Y227038D01*
X1396471Y225809D01*
X1397700Y225809D01*
X1396471Y225809D02*
X1395242Y224580D01*
X1395242Y223352D01*
X1396471Y222123D01*
X1398929Y222123D01*
X1400157Y223352D01*
X1392673Y223352D02*
X1392673Y228267D01*
X1391444Y229495D01*
X1388987Y229495D01*
X1387758Y228267D01*
X1387758Y223352D01*
X1388987Y222123D01*
X1391444Y222123D01*
X1392673Y223352D01*
X1387758Y228267D01*
D12*
X1407160Y257810D02*
X1407060Y257812D01*
X1406961Y257818D01*
X1406861Y257828D01*
X1406763Y257841D01*
X1406664Y257859D01*
X1406567Y257880D01*
X1406471Y257905D01*
X1406375Y257934D01*
X1406281Y257967D01*
X1406188Y258003D01*
X1406097Y258043D01*
X1406007Y258087D01*
X1405919Y258134D01*
X1405833Y258184D01*
X1405749Y258238D01*
X1405667Y258295D01*
X1405588Y258355D01*
X1405510Y258419D01*
X1405436Y258485D01*
X1405364Y258554D01*
X1405295Y258626D01*
X1405229Y258700D01*
X1405165Y258778D01*
X1405105Y258857D01*
X1405048Y258939D01*
X1404994Y259023D01*
X1404944Y259109D01*
X1404897Y259197D01*
X1404853Y259287D01*
X1404813Y259378D01*
X1404777Y259471D01*
X1404744Y259565D01*
X1404715Y259661D01*
X1404690Y259757D01*
X1404669Y259854D01*
X1404651Y259953D01*
X1404638Y260051D01*
X1404628Y260151D01*
X1404622Y260250D01*
X1404620Y260350D01*
X1404620Y273050D02*
X1404622Y273150D01*
X1404628Y273249D01*
X1404638Y273349D01*
X1404651Y273447D01*
X1404669Y273546D01*
X1404690Y273643D01*
X1404715Y273739D01*
X1404744Y273835D01*
X1404777Y273929D01*
X1404813Y274022D01*
X1404853Y274113D01*
X1404897Y274203D01*
X1404944Y274291D01*
X1404994Y274377D01*
X1405048Y274461D01*
X1405105Y274543D01*
X1405165Y274622D01*
X1405229Y274700D01*
X1405295Y274774D01*
X1405364Y274846D01*
X1405436Y274915D01*
X1405510Y274981D01*
X1405588Y275045D01*
X1405667Y275105D01*
X1405749Y275162D01*
X1405833Y275216D01*
X1405919Y275266D01*
X1406007Y275313D01*
X1406097Y275357D01*
X1406188Y275397D01*
X1406281Y275433D01*
X1406375Y275466D01*
X1406471Y275495D01*
X1406567Y275520D01*
X1406664Y275541D01*
X1406763Y275559D01*
X1406861Y275572D01*
X1406961Y275582D01*
X1407060Y275588D01*
X1407160Y275590D01*
X1437640Y275590D02*
X1437740Y275588D01*
X1437839Y275582D01*
X1437939Y275572D01*
X1438037Y275559D01*
X1438136Y275541D01*
X1438233Y275520D01*
X1438329Y275495D01*
X1438425Y275466D01*
X1438519Y275433D01*
X1438612Y275397D01*
X1438703Y275357D01*
X1438793Y275313D01*
X1438881Y275266D01*
X1438967Y275216D01*
X1439051Y275162D01*
X1439133Y275105D01*
X1439212Y275045D01*
X1439290Y274981D01*
X1439364Y274915D01*
X1439436Y274846D01*
X1439505Y274774D01*
X1439571Y274700D01*
X1439635Y274622D01*
X1439695Y274543D01*
X1439752Y274461D01*
X1439806Y274377D01*
X1439856Y274291D01*
X1439903Y274203D01*
X1439947Y274113D01*
X1439987Y274022D01*
X1440023Y273929D01*
X1440056Y273835D01*
X1440085Y273739D01*
X1440110Y273643D01*
X1440131Y273546D01*
X1440149Y273447D01*
X1440162Y273349D01*
X1440172Y273249D01*
X1440178Y273150D01*
X1440180Y273050D01*
X1440180Y260350D02*
X1440178Y260250D01*
X1440172Y260151D01*
X1440162Y260051D01*
X1440149Y259953D01*
X1440131Y259854D01*
X1440110Y259757D01*
X1440085Y259661D01*
X1440056Y259565D01*
X1440023Y259471D01*
X1439987Y259378D01*
X1439947Y259287D01*
X1439903Y259197D01*
X1439856Y259109D01*
X1439806Y259023D01*
X1439752Y258939D01*
X1439695Y258857D01*
X1439635Y258778D01*
X1439571Y258700D01*
X1439505Y258626D01*
X1439436Y258554D01*
X1439364Y258485D01*
X1439290Y258419D01*
X1439212Y258355D01*
X1439133Y258295D01*
X1439051Y258238D01*
X1438967Y258184D01*
X1438881Y258134D01*
X1438793Y258087D01*
X1438703Y258043D01*
X1438612Y258003D01*
X1438519Y257967D01*
X1438425Y257934D01*
X1438329Y257905D01*
X1438233Y257880D01*
X1438136Y257859D01*
X1438037Y257841D01*
X1437939Y257828D01*
X1437839Y257818D01*
X1437740Y257812D01*
X1437640Y257810D01*
X1409700Y257810D02*
X1407160Y257810D01*
X1409700Y257810D02*
X1410970Y259080D01*
X1409700Y275590D02*
X1407160Y275590D01*
X1409700Y275590D02*
X1410970Y274320D01*
X1433830Y259080D02*
X1435100Y257810D01*
X1433830Y259080D02*
X1410970Y259080D01*
X1433830Y274320D02*
X1435100Y275590D01*
X1433830Y274320D02*
X1410970Y274320D01*
X1435100Y257810D02*
X1437640Y257810D01*
X1437640Y275590D02*
X1435100Y275590D01*
D10*
X1400021Y258705D02*
X1400021Y251333D01*
X1400021Y258705D02*
X1396335Y258705D01*
X1395107Y257477D01*
X1395107Y255019D01*
X1396335Y253790D01*
X1400021Y253790D01*
X1397564Y253790D02*
X1395107Y251333D01*
X1392537Y257477D02*
X1391309Y258705D01*
X1388851Y258705D01*
X1387622Y257477D01*
X1387622Y256248D01*
X1388851Y255019D01*
X1390080Y255019D01*
X1388851Y255019D02*
X1387622Y253790D01*
X1387622Y252562D01*
X1388851Y251333D01*
X1391309Y251333D01*
X1392537Y252562D01*
X1385053Y256248D02*
X1382596Y258705D01*
X1382596Y251333D01*
X1385053Y251333D02*
X1380138Y251333D01*
X1538451Y336423D02*
X1538451Y343795D01*
X1534765Y343795D01*
X1533537Y342567D01*
X1533537Y340109D01*
X1534765Y338880D01*
X1538451Y338880D01*
X1535994Y338880D02*
X1533537Y336423D01*
X1530967Y342567D02*
X1529739Y343795D01*
X1527281Y343795D01*
X1526052Y342567D01*
X1526052Y341338D01*
X1527281Y340109D01*
X1528510Y340109D01*
X1527281Y340109D02*
X1526052Y338880D01*
X1526052Y337652D01*
X1527281Y336423D01*
X1529739Y336423D01*
X1530967Y337652D01*
X1523483Y336423D02*
X1518568Y336423D01*
X1523483Y336423D02*
X1518568Y341338D01*
X1518568Y342567D01*
X1519797Y343795D01*
X1522254Y343795D01*
X1523483Y342567D01*
D12*
X1407160Y308610D02*
X1407060Y308612D01*
X1406961Y308618D01*
X1406861Y308628D01*
X1406763Y308641D01*
X1406664Y308659D01*
X1406567Y308680D01*
X1406471Y308705D01*
X1406375Y308734D01*
X1406281Y308767D01*
X1406188Y308803D01*
X1406097Y308843D01*
X1406007Y308887D01*
X1405919Y308934D01*
X1405833Y308984D01*
X1405749Y309038D01*
X1405667Y309095D01*
X1405588Y309155D01*
X1405510Y309219D01*
X1405436Y309285D01*
X1405364Y309354D01*
X1405295Y309426D01*
X1405229Y309500D01*
X1405165Y309578D01*
X1405105Y309657D01*
X1405048Y309739D01*
X1404994Y309823D01*
X1404944Y309909D01*
X1404897Y309997D01*
X1404853Y310087D01*
X1404813Y310178D01*
X1404777Y310271D01*
X1404744Y310365D01*
X1404715Y310461D01*
X1404690Y310557D01*
X1404669Y310654D01*
X1404651Y310753D01*
X1404638Y310851D01*
X1404628Y310951D01*
X1404622Y311050D01*
X1404620Y311150D01*
X1404620Y323850D02*
X1404622Y323950D01*
X1404628Y324049D01*
X1404638Y324149D01*
X1404651Y324247D01*
X1404669Y324346D01*
X1404690Y324443D01*
X1404715Y324539D01*
X1404744Y324635D01*
X1404777Y324729D01*
X1404813Y324822D01*
X1404853Y324913D01*
X1404897Y325003D01*
X1404944Y325091D01*
X1404994Y325177D01*
X1405048Y325261D01*
X1405105Y325343D01*
X1405165Y325422D01*
X1405229Y325500D01*
X1405295Y325574D01*
X1405364Y325646D01*
X1405436Y325715D01*
X1405510Y325781D01*
X1405588Y325845D01*
X1405667Y325905D01*
X1405749Y325962D01*
X1405833Y326016D01*
X1405919Y326066D01*
X1406007Y326113D01*
X1406097Y326157D01*
X1406188Y326197D01*
X1406281Y326233D01*
X1406375Y326266D01*
X1406471Y326295D01*
X1406567Y326320D01*
X1406664Y326341D01*
X1406763Y326359D01*
X1406861Y326372D01*
X1406961Y326382D01*
X1407060Y326388D01*
X1407160Y326390D01*
X1437640Y326390D02*
X1437740Y326388D01*
X1437839Y326382D01*
X1437939Y326372D01*
X1438037Y326359D01*
X1438136Y326341D01*
X1438233Y326320D01*
X1438329Y326295D01*
X1438425Y326266D01*
X1438519Y326233D01*
X1438612Y326197D01*
X1438703Y326157D01*
X1438793Y326113D01*
X1438881Y326066D01*
X1438967Y326016D01*
X1439051Y325962D01*
X1439133Y325905D01*
X1439212Y325845D01*
X1439290Y325781D01*
X1439364Y325715D01*
X1439436Y325646D01*
X1439505Y325574D01*
X1439571Y325500D01*
X1439635Y325422D01*
X1439695Y325343D01*
X1439752Y325261D01*
X1439806Y325177D01*
X1439856Y325091D01*
X1439903Y325003D01*
X1439947Y324913D01*
X1439987Y324822D01*
X1440023Y324729D01*
X1440056Y324635D01*
X1440085Y324539D01*
X1440110Y324443D01*
X1440131Y324346D01*
X1440149Y324247D01*
X1440162Y324149D01*
X1440172Y324049D01*
X1440178Y323950D01*
X1440180Y323850D01*
X1440180Y311150D02*
X1440178Y311050D01*
X1440172Y310951D01*
X1440162Y310851D01*
X1440149Y310753D01*
X1440131Y310654D01*
X1440110Y310557D01*
X1440085Y310461D01*
X1440056Y310365D01*
X1440023Y310271D01*
X1439987Y310178D01*
X1439947Y310087D01*
X1439903Y309997D01*
X1439856Y309909D01*
X1439806Y309823D01*
X1439752Y309739D01*
X1439695Y309657D01*
X1439635Y309578D01*
X1439571Y309500D01*
X1439505Y309426D01*
X1439436Y309354D01*
X1439364Y309285D01*
X1439290Y309219D01*
X1439212Y309155D01*
X1439133Y309095D01*
X1439051Y309038D01*
X1438967Y308984D01*
X1438881Y308934D01*
X1438793Y308887D01*
X1438703Y308843D01*
X1438612Y308803D01*
X1438519Y308767D01*
X1438425Y308734D01*
X1438329Y308705D01*
X1438233Y308680D01*
X1438136Y308659D01*
X1438037Y308641D01*
X1437939Y308628D01*
X1437839Y308618D01*
X1437740Y308612D01*
X1437640Y308610D01*
X1409700Y308610D02*
X1407160Y308610D01*
X1409700Y308610D02*
X1410970Y309880D01*
X1409700Y326390D02*
X1407160Y326390D01*
X1409700Y326390D02*
X1410970Y325120D01*
X1433830Y309880D02*
X1435100Y308610D01*
X1433830Y309880D02*
X1410970Y309880D01*
X1433830Y325120D02*
X1435100Y326390D01*
X1433830Y325120D02*
X1410970Y325120D01*
X1435100Y308610D02*
X1437640Y308610D01*
X1437640Y326390D02*
X1435100Y326390D01*
D10*
X1402561Y309505D02*
X1402561Y302133D01*
X1402561Y309505D02*
X1398875Y309505D01*
X1397647Y308277D01*
X1397647Y305819D01*
X1398875Y304590D01*
X1402561Y304590D01*
X1400104Y304590D02*
X1397647Y302133D01*
X1395077Y308277D02*
X1393849Y309505D01*
X1391391Y309505D01*
X1390162Y308277D01*
X1390162Y307048D01*
X1391391Y305819D01*
X1392620Y305819D01*
X1391391Y305819D02*
X1390162Y304590D01*
X1390162Y303362D01*
X1391391Y302133D01*
X1393849Y302133D01*
X1395077Y303362D01*
X1387593Y308277D02*
X1386364Y309505D01*
X1383907Y309505D01*
X1382678Y308277D01*
X1382678Y307048D01*
X1383907Y305819D01*
X1385136Y305819D01*
X1383907Y305819D02*
X1382678Y304590D01*
X1382678Y303362D01*
X1383907Y302133D01*
X1386364Y302133D01*
X1387593Y303362D01*
D12*
X1595120Y412750D02*
X1595122Y412650D01*
X1595128Y412551D01*
X1595138Y412451D01*
X1595151Y412353D01*
X1595169Y412254D01*
X1595190Y412157D01*
X1595215Y412061D01*
X1595244Y411965D01*
X1595277Y411871D01*
X1595313Y411778D01*
X1595353Y411687D01*
X1595397Y411597D01*
X1595444Y411509D01*
X1595494Y411423D01*
X1595548Y411339D01*
X1595605Y411257D01*
X1595665Y411178D01*
X1595729Y411100D01*
X1595795Y411026D01*
X1595864Y410954D01*
X1595936Y410885D01*
X1596010Y410819D01*
X1596088Y410755D01*
X1596167Y410695D01*
X1596249Y410638D01*
X1596333Y410584D01*
X1596419Y410534D01*
X1596507Y410487D01*
X1596597Y410443D01*
X1596688Y410403D01*
X1596781Y410367D01*
X1596875Y410334D01*
X1596971Y410305D01*
X1597067Y410280D01*
X1597164Y410259D01*
X1597263Y410241D01*
X1597361Y410228D01*
X1597461Y410218D01*
X1597560Y410212D01*
X1597660Y410210D01*
X1595120Y425450D02*
X1595122Y425550D01*
X1595128Y425649D01*
X1595138Y425749D01*
X1595151Y425847D01*
X1595169Y425946D01*
X1595190Y426043D01*
X1595215Y426139D01*
X1595244Y426235D01*
X1595277Y426329D01*
X1595313Y426422D01*
X1595353Y426513D01*
X1595397Y426603D01*
X1595444Y426691D01*
X1595494Y426777D01*
X1595548Y426861D01*
X1595605Y426943D01*
X1595665Y427022D01*
X1595729Y427100D01*
X1595795Y427174D01*
X1595864Y427246D01*
X1595936Y427315D01*
X1596010Y427381D01*
X1596088Y427445D01*
X1596167Y427505D01*
X1596249Y427562D01*
X1596333Y427616D01*
X1596419Y427666D01*
X1596507Y427713D01*
X1596597Y427757D01*
X1596688Y427797D01*
X1596781Y427833D01*
X1596875Y427866D01*
X1596971Y427895D01*
X1597067Y427920D01*
X1597164Y427941D01*
X1597263Y427959D01*
X1597361Y427972D01*
X1597461Y427982D01*
X1597560Y427988D01*
X1597660Y427990D01*
X1628140Y427990D02*
X1628240Y427988D01*
X1628339Y427982D01*
X1628439Y427972D01*
X1628537Y427959D01*
X1628636Y427941D01*
X1628733Y427920D01*
X1628829Y427895D01*
X1628925Y427866D01*
X1629019Y427833D01*
X1629112Y427797D01*
X1629203Y427757D01*
X1629293Y427713D01*
X1629381Y427666D01*
X1629467Y427616D01*
X1629551Y427562D01*
X1629633Y427505D01*
X1629712Y427445D01*
X1629790Y427381D01*
X1629864Y427315D01*
X1629936Y427246D01*
X1630005Y427174D01*
X1630071Y427100D01*
X1630135Y427022D01*
X1630195Y426943D01*
X1630252Y426861D01*
X1630306Y426777D01*
X1630356Y426691D01*
X1630403Y426603D01*
X1630447Y426513D01*
X1630487Y426422D01*
X1630523Y426329D01*
X1630556Y426235D01*
X1630585Y426139D01*
X1630610Y426043D01*
X1630631Y425946D01*
X1630649Y425847D01*
X1630662Y425749D01*
X1630672Y425649D01*
X1630678Y425550D01*
X1630680Y425450D01*
X1630680Y412750D02*
X1630678Y412650D01*
X1630672Y412551D01*
X1630662Y412451D01*
X1630649Y412353D01*
X1630631Y412254D01*
X1630610Y412157D01*
X1630585Y412061D01*
X1630556Y411965D01*
X1630523Y411871D01*
X1630487Y411778D01*
X1630447Y411687D01*
X1630403Y411597D01*
X1630356Y411509D01*
X1630306Y411423D01*
X1630252Y411339D01*
X1630195Y411257D01*
X1630135Y411178D01*
X1630071Y411100D01*
X1630005Y411026D01*
X1629936Y410954D01*
X1629864Y410885D01*
X1629790Y410819D01*
X1629712Y410755D01*
X1629633Y410695D01*
X1629551Y410638D01*
X1629467Y410584D01*
X1629381Y410534D01*
X1629293Y410487D01*
X1629203Y410443D01*
X1629112Y410403D01*
X1629019Y410367D01*
X1628925Y410334D01*
X1628829Y410305D01*
X1628733Y410280D01*
X1628636Y410259D01*
X1628537Y410241D01*
X1628439Y410228D01*
X1628339Y410218D01*
X1628240Y410212D01*
X1628140Y410210D01*
X1600200Y410210D02*
X1597660Y410210D01*
X1600200Y410210D02*
X1601470Y411480D01*
X1600200Y427990D02*
X1597660Y427990D01*
X1600200Y427990D02*
X1601470Y426720D01*
X1624330Y411480D02*
X1625600Y410210D01*
X1624330Y411480D02*
X1601470Y411480D01*
X1624330Y426720D02*
X1625600Y427990D01*
X1624330Y426720D02*
X1601470Y426720D01*
X1625600Y410210D02*
X1628140Y410210D01*
X1628140Y427990D02*
X1625600Y427990D01*
D10*
X1621409Y405263D02*
X1621409Y397891D01*
X1621409Y405263D02*
X1617723Y405263D01*
X1616494Y404035D01*
X1616494Y401577D01*
X1617723Y400348D01*
X1621409Y400348D01*
X1618952Y400348D02*
X1616494Y397891D01*
X1613925Y402806D02*
X1611467Y405263D01*
X1611467Y397891D01*
X1609010Y397891D02*
X1613925Y397891D01*
X1603983Y404035D02*
X1601526Y405263D01*
X1603983Y404035D02*
X1606441Y401577D01*
X1606441Y399120D01*
X1605212Y397891D01*
X1602755Y397891D01*
X1601526Y399120D01*
X1601526Y400348D01*
X1602755Y401577D01*
X1606441Y401577D01*
D12*
X1597660Y461010D02*
X1597560Y461012D01*
X1597461Y461018D01*
X1597361Y461028D01*
X1597263Y461041D01*
X1597164Y461059D01*
X1597067Y461080D01*
X1596971Y461105D01*
X1596875Y461134D01*
X1596781Y461167D01*
X1596688Y461203D01*
X1596597Y461243D01*
X1596507Y461287D01*
X1596419Y461334D01*
X1596333Y461384D01*
X1596249Y461438D01*
X1596167Y461495D01*
X1596088Y461555D01*
X1596010Y461619D01*
X1595936Y461685D01*
X1595864Y461754D01*
X1595795Y461826D01*
X1595729Y461900D01*
X1595665Y461978D01*
X1595605Y462057D01*
X1595548Y462139D01*
X1595494Y462223D01*
X1595444Y462309D01*
X1595397Y462397D01*
X1595353Y462487D01*
X1595313Y462578D01*
X1595277Y462671D01*
X1595244Y462765D01*
X1595215Y462861D01*
X1595190Y462957D01*
X1595169Y463054D01*
X1595151Y463153D01*
X1595138Y463251D01*
X1595128Y463351D01*
X1595122Y463450D01*
X1595120Y463550D01*
X1595120Y476250D02*
X1595122Y476350D01*
X1595128Y476449D01*
X1595138Y476549D01*
X1595151Y476647D01*
X1595169Y476746D01*
X1595190Y476843D01*
X1595215Y476939D01*
X1595244Y477035D01*
X1595277Y477129D01*
X1595313Y477222D01*
X1595353Y477313D01*
X1595397Y477403D01*
X1595444Y477491D01*
X1595494Y477577D01*
X1595548Y477661D01*
X1595605Y477743D01*
X1595665Y477822D01*
X1595729Y477900D01*
X1595795Y477974D01*
X1595864Y478046D01*
X1595936Y478115D01*
X1596010Y478181D01*
X1596088Y478245D01*
X1596167Y478305D01*
X1596249Y478362D01*
X1596333Y478416D01*
X1596419Y478466D01*
X1596507Y478513D01*
X1596597Y478557D01*
X1596688Y478597D01*
X1596781Y478633D01*
X1596875Y478666D01*
X1596971Y478695D01*
X1597067Y478720D01*
X1597164Y478741D01*
X1597263Y478759D01*
X1597361Y478772D01*
X1597461Y478782D01*
X1597560Y478788D01*
X1597660Y478790D01*
X1628140Y478790D02*
X1628240Y478788D01*
X1628339Y478782D01*
X1628439Y478772D01*
X1628537Y478759D01*
X1628636Y478741D01*
X1628733Y478720D01*
X1628829Y478695D01*
X1628925Y478666D01*
X1629019Y478633D01*
X1629112Y478597D01*
X1629203Y478557D01*
X1629293Y478513D01*
X1629381Y478466D01*
X1629467Y478416D01*
X1629551Y478362D01*
X1629633Y478305D01*
X1629712Y478245D01*
X1629790Y478181D01*
X1629864Y478115D01*
X1629936Y478046D01*
X1630005Y477974D01*
X1630071Y477900D01*
X1630135Y477822D01*
X1630195Y477743D01*
X1630252Y477661D01*
X1630306Y477577D01*
X1630356Y477491D01*
X1630403Y477403D01*
X1630447Y477313D01*
X1630487Y477222D01*
X1630523Y477129D01*
X1630556Y477035D01*
X1630585Y476939D01*
X1630610Y476843D01*
X1630631Y476746D01*
X1630649Y476647D01*
X1630662Y476549D01*
X1630672Y476449D01*
X1630678Y476350D01*
X1630680Y476250D01*
X1630680Y463550D02*
X1630678Y463450D01*
X1630672Y463351D01*
X1630662Y463251D01*
X1630649Y463153D01*
X1630631Y463054D01*
X1630610Y462957D01*
X1630585Y462861D01*
X1630556Y462765D01*
X1630523Y462671D01*
X1630487Y462578D01*
X1630447Y462487D01*
X1630403Y462397D01*
X1630356Y462309D01*
X1630306Y462223D01*
X1630252Y462139D01*
X1630195Y462057D01*
X1630135Y461978D01*
X1630071Y461900D01*
X1630005Y461826D01*
X1629936Y461754D01*
X1629864Y461685D01*
X1629790Y461619D01*
X1629712Y461555D01*
X1629633Y461495D01*
X1629551Y461438D01*
X1629467Y461384D01*
X1629381Y461334D01*
X1629293Y461287D01*
X1629203Y461243D01*
X1629112Y461203D01*
X1629019Y461167D01*
X1628925Y461134D01*
X1628829Y461105D01*
X1628733Y461080D01*
X1628636Y461059D01*
X1628537Y461041D01*
X1628439Y461028D01*
X1628339Y461018D01*
X1628240Y461012D01*
X1628140Y461010D01*
X1600200Y461010D02*
X1597660Y461010D01*
X1600200Y461010D02*
X1601470Y462280D01*
X1600200Y478790D02*
X1597660Y478790D01*
X1600200Y478790D02*
X1601470Y477520D01*
X1624330Y462280D02*
X1625600Y461010D01*
X1624330Y462280D02*
X1601470Y462280D01*
X1624330Y477520D02*
X1625600Y478790D01*
X1624330Y477520D02*
X1601470Y477520D01*
X1625600Y461010D02*
X1628140Y461010D01*
X1628140Y478790D02*
X1625600Y478790D01*
D10*
X1623541Y456825D02*
X1623541Y449453D01*
X1623541Y456825D02*
X1619855Y456825D01*
X1618627Y455597D01*
X1618627Y453139D01*
X1619855Y451910D01*
X1623541Y451910D01*
X1621084Y451910D02*
X1618627Y449453D01*
X1616057Y449453D02*
X1611142Y449453D01*
X1616057Y449453D02*
X1611142Y454368D01*
X1611142Y455597D01*
X1612371Y456825D01*
X1614829Y456825D01*
X1616057Y455597D01*
X1604887Y456825D02*
X1604887Y449453D01*
X1608573Y453139D02*
X1604887Y456825D01*
X1603658Y453139D02*
X1608573Y453139D01*
D12*
X1597660Y486410D02*
X1597560Y486412D01*
X1597461Y486418D01*
X1597361Y486428D01*
X1597263Y486441D01*
X1597164Y486459D01*
X1597067Y486480D01*
X1596971Y486505D01*
X1596875Y486534D01*
X1596781Y486567D01*
X1596688Y486603D01*
X1596597Y486643D01*
X1596507Y486687D01*
X1596419Y486734D01*
X1596333Y486784D01*
X1596249Y486838D01*
X1596167Y486895D01*
X1596088Y486955D01*
X1596010Y487019D01*
X1595936Y487085D01*
X1595864Y487154D01*
X1595795Y487226D01*
X1595729Y487300D01*
X1595665Y487378D01*
X1595605Y487457D01*
X1595548Y487539D01*
X1595494Y487623D01*
X1595444Y487709D01*
X1595397Y487797D01*
X1595353Y487887D01*
X1595313Y487978D01*
X1595277Y488071D01*
X1595244Y488165D01*
X1595215Y488261D01*
X1595190Y488357D01*
X1595169Y488454D01*
X1595151Y488553D01*
X1595138Y488651D01*
X1595128Y488751D01*
X1595122Y488850D01*
X1595120Y488950D01*
X1595120Y501650D02*
X1595122Y501750D01*
X1595128Y501849D01*
X1595138Y501949D01*
X1595151Y502047D01*
X1595169Y502146D01*
X1595190Y502243D01*
X1595215Y502339D01*
X1595244Y502435D01*
X1595277Y502529D01*
X1595313Y502622D01*
X1595353Y502713D01*
X1595397Y502803D01*
X1595444Y502891D01*
X1595494Y502977D01*
X1595548Y503061D01*
X1595605Y503143D01*
X1595665Y503222D01*
X1595729Y503300D01*
X1595795Y503374D01*
X1595864Y503446D01*
X1595936Y503515D01*
X1596010Y503581D01*
X1596088Y503645D01*
X1596167Y503705D01*
X1596249Y503762D01*
X1596333Y503816D01*
X1596419Y503866D01*
X1596507Y503913D01*
X1596597Y503957D01*
X1596688Y503997D01*
X1596781Y504033D01*
X1596875Y504066D01*
X1596971Y504095D01*
X1597067Y504120D01*
X1597164Y504141D01*
X1597263Y504159D01*
X1597361Y504172D01*
X1597461Y504182D01*
X1597560Y504188D01*
X1597660Y504190D01*
X1628140Y504190D02*
X1628240Y504188D01*
X1628339Y504182D01*
X1628439Y504172D01*
X1628537Y504159D01*
X1628636Y504141D01*
X1628733Y504120D01*
X1628829Y504095D01*
X1628925Y504066D01*
X1629019Y504033D01*
X1629112Y503997D01*
X1629203Y503957D01*
X1629293Y503913D01*
X1629381Y503866D01*
X1629467Y503816D01*
X1629551Y503762D01*
X1629633Y503705D01*
X1629712Y503645D01*
X1629790Y503581D01*
X1629864Y503515D01*
X1629936Y503446D01*
X1630005Y503374D01*
X1630071Y503300D01*
X1630135Y503222D01*
X1630195Y503143D01*
X1630252Y503061D01*
X1630306Y502977D01*
X1630356Y502891D01*
X1630403Y502803D01*
X1630447Y502713D01*
X1630487Y502622D01*
X1630523Y502529D01*
X1630556Y502435D01*
X1630585Y502339D01*
X1630610Y502243D01*
X1630631Y502146D01*
X1630649Y502047D01*
X1630662Y501949D01*
X1630672Y501849D01*
X1630678Y501750D01*
X1630680Y501650D01*
X1630680Y488950D02*
X1630678Y488850D01*
X1630672Y488751D01*
X1630662Y488651D01*
X1630649Y488553D01*
X1630631Y488454D01*
X1630610Y488357D01*
X1630585Y488261D01*
X1630556Y488165D01*
X1630523Y488071D01*
X1630487Y487978D01*
X1630447Y487887D01*
X1630403Y487797D01*
X1630356Y487709D01*
X1630306Y487623D01*
X1630252Y487539D01*
X1630195Y487457D01*
X1630135Y487378D01*
X1630071Y487300D01*
X1630005Y487226D01*
X1629936Y487154D01*
X1629864Y487085D01*
X1629790Y487019D01*
X1629712Y486955D01*
X1629633Y486895D01*
X1629551Y486838D01*
X1629467Y486784D01*
X1629381Y486734D01*
X1629293Y486687D01*
X1629203Y486643D01*
X1629112Y486603D01*
X1629019Y486567D01*
X1628925Y486534D01*
X1628829Y486505D01*
X1628733Y486480D01*
X1628636Y486459D01*
X1628537Y486441D01*
X1628439Y486428D01*
X1628339Y486418D01*
X1628240Y486412D01*
X1628140Y486410D01*
X1600200Y486410D02*
X1597660Y486410D01*
X1600200Y486410D02*
X1601470Y487680D01*
X1600200Y504190D02*
X1597660Y504190D01*
X1600200Y504190D02*
X1601470Y502920D01*
X1624330Y487680D02*
X1625600Y486410D01*
X1624330Y487680D02*
X1601470Y487680D01*
X1624330Y502920D02*
X1625600Y504190D01*
X1624330Y502920D02*
X1601470Y502920D01*
X1625600Y486410D02*
X1628140Y486410D01*
X1628140Y504190D02*
X1625600Y504190D01*
D10*
X1624811Y506603D02*
X1624811Y513975D01*
X1621125Y513975D01*
X1619897Y512747D01*
X1619897Y510289D01*
X1621125Y509060D01*
X1624811Y509060D01*
X1622354Y509060D02*
X1619897Y506603D01*
X1617327Y512747D02*
X1616099Y513975D01*
X1613641Y513975D01*
X1612412Y512747D01*
X1612412Y511518D01*
X1613641Y510289D01*
X1614870Y510289D01*
X1613641Y510289D02*
X1612412Y509060D01*
X1612412Y507832D01*
X1613641Y506603D01*
X1616099Y506603D01*
X1617327Y507832D01*
X1609843Y513975D02*
X1604928Y513975D01*
X1609843Y513975D02*
X1609843Y510289D01*
X1607386Y511518D01*
X1606157Y511518D01*
X1604928Y510289D01*
X1604928Y507832D01*
X1606157Y506603D01*
X1608614Y506603D01*
X1609843Y507832D01*
X1005097Y657733D02*
X1002639Y657733D01*
X1003868Y657733D02*
X1003868Y665105D01*
X1005097Y665105D02*
X1002639Y665105D01*
X996421Y665105D02*
X995192Y663877D01*
X996421Y665105D02*
X998879Y665105D01*
X1000107Y663877D01*
X1000107Y658962D01*
X998879Y657733D01*
X996421Y657733D01*
X995192Y658962D01*
X990166Y663877D02*
X987708Y665105D01*
X990166Y663877D02*
X992623Y661419D01*
X992623Y658962D01*
X991394Y657733D01*
X988937Y657733D01*
X987708Y658962D01*
X987708Y660190D01*
X988937Y661419D01*
X992623Y661419D01*
D11*
X1104900Y635000D02*
X1104900Y812800D01*
X1714500Y812800D01*
X1714500Y635000D01*
X1104900Y635000D01*
X1092200Y685800D02*
X1092200Y762000D01*
X1149350Y762000D01*
X1149350Y685800D01*
X1092200Y685800D01*
D13*
X1452887Y711708D02*
X1452887Y723402D01*
X1456785Y723402D02*
X1448989Y723402D01*
X1445091Y723402D02*
X1437295Y723402D01*
X1445091Y723402D02*
X1445091Y711708D01*
X1437295Y711708D01*
X1441193Y717555D02*
X1445091Y717555D01*
X1433397Y723402D02*
X1425601Y723402D01*
X1433397Y723402D02*
X1433397Y711708D01*
X1425601Y711708D01*
X1429499Y717555D02*
X1433397Y717555D01*
X1421703Y711708D02*
X1421703Y723402D01*
X1413907Y711708D01*
X1413907Y723402D01*
X1404162Y723402D02*
X1402213Y721453D01*
X1404162Y723402D02*
X1408060Y723402D01*
X1410009Y721453D01*
X1410009Y719504D01*
X1408060Y717555D01*
X1404162Y717555D01*
X1402213Y715606D01*
X1402213Y713657D01*
X1404162Y711708D01*
X1408060Y711708D01*
X1410009Y713657D01*
X1398315Y721453D02*
X1398315Y723402D01*
X1398315Y721453D02*
X1394417Y717555D01*
X1390519Y721453D01*
X1390519Y723402D01*
X1394417Y717555D02*
X1394417Y711708D01*
X1369080Y711708D02*
X1369080Y723402D01*
X1374927Y717555D01*
X1367131Y717555D01*
X1363233Y713657D02*
X1363233Y711708D01*
X1363233Y713657D02*
X1361284Y713657D01*
X1361284Y711708D01*
X1363233Y711708D01*
X1357386Y719504D02*
X1353488Y723402D01*
X1353488Y711708D01*
X1357386Y711708D02*
X1349590Y711708D01*
D10*
X1145136Y713072D02*
X1138993Y713072D01*
X1137764Y714300D01*
X1137764Y716758D01*
X1138993Y717987D01*
X1145136Y717987D01*
X1145136Y724242D02*
X1143907Y725471D01*
X1145136Y724242D02*
X1145136Y721785D01*
X1143907Y720556D01*
X1142679Y720556D01*
X1141450Y721785D01*
X1141450Y724242D01*
X1140221Y725471D01*
X1138993Y725471D01*
X1137764Y724242D01*
X1137764Y721785D01*
X1138993Y720556D01*
X1137764Y728040D02*
X1145136Y728040D01*
X1145136Y731726D01*
X1143907Y732955D01*
X1142679Y732955D01*
X1141450Y731726D01*
X1140221Y732955D01*
X1138993Y732955D01*
X1137764Y731726D01*
X1137764Y728040D01*
X1141450Y728040D02*
X1141450Y731726D01*
D14*
X1567923Y771911D02*
X1568855Y770979D01*
X1567923Y771911D02*
X1566058Y771911D01*
X1565126Y770979D01*
X1565126Y770047D01*
X1566058Y769114D01*
X1566990Y769114D01*
X1566058Y769114D02*
X1565126Y768182D01*
X1565126Y767250D01*
X1566058Y766318D01*
X1567923Y766318D01*
X1568855Y767250D01*
X1557629Y768182D02*
X1557629Y771911D01*
X1557629Y768182D02*
X1555764Y766318D01*
X1553900Y768182D01*
X1553900Y771911D01*
X1551083Y771911D02*
X1549219Y771911D01*
X1551083Y771911D02*
X1552015Y770979D01*
X1552015Y767250D01*
X1551083Y766318D01*
X1549219Y766318D01*
X1548287Y767250D01*
X1548287Y770979D01*
X1549219Y771911D01*
X1546402Y771911D02*
X1546402Y766318D01*
X1542674Y766318D01*
X1538925Y766318D02*
X1538925Y771911D01*
X1540789Y771911D02*
X1537061Y771911D01*
X1565591Y777837D02*
X1566524Y778769D01*
X1568388Y778769D01*
X1569320Y777837D01*
X1569320Y774108D01*
X1568388Y773176D01*
X1566524Y773176D01*
X1565591Y774108D01*
X1562775Y778769D02*
X1560910Y778769D01*
X1562775Y778769D02*
X1563707Y777837D01*
X1563707Y774108D01*
X1562775Y773176D01*
X1560910Y773176D01*
X1559978Y774108D01*
X1559978Y777837D01*
X1560910Y778769D01*
X1558094Y773176D02*
X1556229Y773176D01*
X1557162Y773176D02*
X1557162Y778769D01*
X1558094Y778769D02*
X1556229Y778769D01*
X1554352Y778769D02*
X1554352Y773176D01*
X1550623Y773176D02*
X1554352Y778769D01*
X1550623Y778769D02*
X1550623Y773176D01*
X1540329Y778769D02*
X1539397Y777837D01*
X1540329Y778769D02*
X1542193Y778769D01*
X1543125Y777837D01*
X1543125Y774108D01*
X1542193Y773176D01*
X1540329Y773176D01*
X1539397Y774108D01*
X1537512Y778769D02*
X1533784Y778769D01*
X1537512Y778769D02*
X1537512Y773176D01*
X1533784Y773176D01*
X1535648Y775972D02*
X1537512Y775972D01*
X1531899Y773176D02*
X1531899Y778769D01*
X1531899Y773176D02*
X1528171Y773176D01*
D11*
X1518666Y739300D02*
X1554734Y739300D01*
X1554734Y708500D01*
X1518666Y708500D01*
X1518666Y739300D01*
X1587500Y660400D02*
X1714500Y660400D01*
X1587500Y660400D02*
X1587500Y787400D01*
X1714500Y787400D01*
X1714500Y774700D01*
X1714500Y673100D01*
X1701800Y673100D01*
X1701800Y774700D01*
X1714500Y774700D01*
X1193800Y756920D02*
X1168400Y756920D01*
X1193800Y756920D02*
X1295400Y756920D01*
X1295400Y783590D01*
X1193800Y783590D01*
X1168400Y783590D01*
X1168400Y756920D01*
X1193800Y756920D02*
X1193800Y783590D01*
X1526700Y723900D02*
X1526703Y724145D01*
X1526712Y724391D01*
X1526727Y724636D01*
X1526748Y724880D01*
X1526775Y725124D01*
X1526808Y725367D01*
X1526847Y725610D01*
X1526892Y725851D01*
X1526943Y726091D01*
X1527000Y726330D01*
X1527062Y726567D01*
X1527131Y726803D01*
X1527205Y727037D01*
X1527285Y727269D01*
X1527370Y727499D01*
X1527461Y727727D01*
X1527558Y727952D01*
X1527660Y728176D01*
X1527768Y728396D01*
X1527881Y728614D01*
X1527999Y728829D01*
X1528123Y729041D01*
X1528251Y729250D01*
X1528385Y729456D01*
X1528524Y729658D01*
X1528668Y729857D01*
X1528817Y730052D01*
X1528970Y730244D01*
X1529128Y730432D01*
X1529290Y730616D01*
X1529458Y730795D01*
X1529629Y730971D01*
X1529805Y731142D01*
X1529984Y731310D01*
X1530168Y731472D01*
X1530356Y731630D01*
X1530548Y731783D01*
X1530743Y731932D01*
X1530942Y732076D01*
X1531144Y732215D01*
X1531350Y732349D01*
X1531559Y732477D01*
X1531771Y732601D01*
X1531986Y732719D01*
X1532204Y732832D01*
X1532424Y732940D01*
X1532648Y733042D01*
X1532873Y733139D01*
X1533101Y733230D01*
X1533331Y733315D01*
X1533563Y733395D01*
X1533797Y733469D01*
X1534033Y733538D01*
X1534270Y733600D01*
X1534509Y733657D01*
X1534749Y733708D01*
X1534990Y733753D01*
X1535233Y733792D01*
X1535476Y733825D01*
X1535720Y733852D01*
X1535964Y733873D01*
X1536209Y733888D01*
X1536455Y733897D01*
X1536700Y733900D01*
X1536945Y733897D01*
X1537191Y733888D01*
X1537436Y733873D01*
X1537680Y733852D01*
X1537924Y733825D01*
X1538167Y733792D01*
X1538410Y733753D01*
X1538651Y733708D01*
X1538891Y733657D01*
X1539130Y733600D01*
X1539367Y733538D01*
X1539603Y733469D01*
X1539837Y733395D01*
X1540069Y733315D01*
X1540299Y733230D01*
X1540527Y733139D01*
X1540752Y733042D01*
X1540976Y732940D01*
X1541196Y732832D01*
X1541414Y732719D01*
X1541629Y732601D01*
X1541841Y732477D01*
X1542050Y732349D01*
X1542256Y732215D01*
X1542458Y732076D01*
X1542657Y731932D01*
X1542852Y731783D01*
X1543044Y731630D01*
X1543232Y731472D01*
X1543416Y731310D01*
X1543595Y731142D01*
X1543771Y730971D01*
X1543942Y730795D01*
X1544110Y730616D01*
X1544272Y730432D01*
X1544430Y730244D01*
X1544583Y730052D01*
X1544732Y729857D01*
X1544876Y729658D01*
X1545015Y729456D01*
X1545149Y729250D01*
X1545277Y729041D01*
X1545401Y728829D01*
X1545519Y728614D01*
X1545632Y728396D01*
X1545740Y728176D01*
X1545842Y727952D01*
X1545939Y727727D01*
X1546030Y727499D01*
X1546115Y727269D01*
X1546195Y727037D01*
X1546269Y726803D01*
X1546338Y726567D01*
X1546400Y726330D01*
X1546457Y726091D01*
X1546508Y725851D01*
X1546553Y725610D01*
X1546592Y725367D01*
X1546625Y725124D01*
X1546652Y724880D01*
X1546673Y724636D01*
X1546688Y724391D01*
X1546697Y724145D01*
X1546700Y723900D01*
X1546697Y723655D01*
X1546688Y723409D01*
X1546673Y723164D01*
X1546652Y722920D01*
X1546625Y722676D01*
X1546592Y722433D01*
X1546553Y722190D01*
X1546508Y721949D01*
X1546457Y721709D01*
X1546400Y721470D01*
X1546338Y721233D01*
X1546269Y720997D01*
X1546195Y720763D01*
X1546115Y720531D01*
X1546030Y720301D01*
X1545939Y720073D01*
X1545842Y719848D01*
X1545740Y719624D01*
X1545632Y719404D01*
X1545519Y719186D01*
X1545401Y718971D01*
X1545277Y718759D01*
X1545149Y718550D01*
X1545015Y718344D01*
X1544876Y718142D01*
X1544732Y717943D01*
X1544583Y717748D01*
X1544430Y717556D01*
X1544272Y717368D01*
X1544110Y717184D01*
X1543942Y717005D01*
X1543771Y716829D01*
X1543595Y716658D01*
X1543416Y716490D01*
X1543232Y716328D01*
X1543044Y716170D01*
X1542852Y716017D01*
X1542657Y715868D01*
X1542458Y715724D01*
X1542256Y715585D01*
X1542050Y715451D01*
X1541841Y715323D01*
X1541629Y715199D01*
X1541414Y715081D01*
X1541196Y714968D01*
X1540976Y714860D01*
X1540752Y714758D01*
X1540527Y714661D01*
X1540299Y714570D01*
X1540069Y714485D01*
X1539837Y714405D01*
X1539603Y714331D01*
X1539367Y714262D01*
X1539130Y714200D01*
X1538891Y714143D01*
X1538651Y714092D01*
X1538410Y714047D01*
X1538167Y714008D01*
X1537924Y713975D01*
X1537680Y713948D01*
X1537436Y713927D01*
X1537191Y713912D01*
X1536945Y713903D01*
X1536700Y713900D01*
X1536455Y713903D01*
X1536209Y713912D01*
X1535964Y713927D01*
X1535720Y713948D01*
X1535476Y713975D01*
X1535233Y714008D01*
X1534990Y714047D01*
X1534749Y714092D01*
X1534509Y714143D01*
X1534270Y714200D01*
X1534033Y714262D01*
X1533797Y714331D01*
X1533563Y714405D01*
X1533331Y714485D01*
X1533101Y714570D01*
X1532873Y714661D01*
X1532648Y714758D01*
X1532424Y714860D01*
X1532204Y714968D01*
X1531986Y715081D01*
X1531771Y715199D01*
X1531559Y715323D01*
X1531350Y715451D01*
X1531144Y715585D01*
X1530942Y715724D01*
X1530743Y715868D01*
X1530548Y716017D01*
X1530356Y716170D01*
X1530168Y716328D01*
X1529984Y716490D01*
X1529805Y716658D01*
X1529629Y716829D01*
X1529458Y717005D01*
X1529290Y717184D01*
X1529128Y717368D01*
X1528970Y717556D01*
X1528817Y717748D01*
X1528668Y717943D01*
X1528524Y718142D01*
X1528385Y718344D01*
X1528251Y718550D01*
X1528123Y718759D01*
X1527999Y718971D01*
X1527881Y719186D01*
X1527768Y719404D01*
X1527660Y719624D01*
X1527558Y719848D01*
X1527461Y720073D01*
X1527370Y720301D01*
X1527285Y720531D01*
X1527205Y720763D01*
X1527131Y720997D01*
X1527062Y721233D01*
X1527000Y721470D01*
X1526943Y721709D01*
X1526892Y721949D01*
X1526847Y722190D01*
X1526808Y722433D01*
X1526775Y722676D01*
X1526748Y722920D01*
X1526727Y723164D01*
X1526712Y723409D01*
X1526703Y723655D01*
X1526700Y723900D01*
D15*
X1504400Y533800D02*
X1467400Y533800D01*
X1504400Y533800D02*
X1504400Y583800D01*
X1467400Y583800D01*
X1467400Y533800D01*
X1463900Y533550D02*
X1449400Y533550D01*
D10*
X1494310Y518287D02*
X1496768Y518287D01*
X1495539Y518287D02*
X1495539Y525659D01*
X1496768Y525659D02*
X1494310Y525659D01*
X1488092Y525659D02*
X1486864Y524431D01*
X1488092Y525659D02*
X1490550Y525659D01*
X1491778Y524431D01*
X1491778Y519516D01*
X1490550Y518287D01*
X1488092Y518287D01*
X1486864Y519516D01*
X1484294Y525659D02*
X1479379Y525659D01*
X1479379Y524431D01*
X1484294Y519516D01*
X1484294Y518287D01*
D16*
X1468120Y196850D02*
X1468120Y184150D01*
X1452880Y184150D02*
X1452880Y196850D01*
D10*
X1467467Y211963D02*
X1467467Y219335D01*
X1463781Y219335D01*
X1462552Y218107D01*
X1462552Y215649D01*
X1463781Y214420D01*
X1467467Y214420D01*
X1459983Y216878D02*
X1457526Y219335D01*
X1457526Y211963D01*
X1459983Y211963D02*
X1455068Y211963D01*
D16*
X1301750Y109220D02*
X1289050Y109220D01*
X1289050Y93980D02*
X1301750Y93980D01*
D10*
X1294747Y88525D02*
X1294747Y81153D01*
X1294747Y88525D02*
X1291061Y88525D01*
X1289832Y87297D01*
X1289832Y84839D01*
X1291061Y83610D01*
X1294747Y83610D01*
X1287263Y81153D02*
X1282348Y81153D01*
X1287263Y81153D02*
X1282348Y86068D01*
X1282348Y87297D01*
X1283577Y88525D01*
X1286034Y88525D01*
X1287263Y87297D01*
D12*
X1438910Y26670D02*
X1446530Y26670D01*
X1442720Y30480D02*
X1442720Y22860D01*
X1432560Y38100D02*
X1432572Y39097D01*
X1432609Y40094D01*
X1432670Y41090D01*
X1432756Y42083D01*
X1432866Y43075D01*
X1433000Y44063D01*
X1433158Y45048D01*
X1433341Y46028D01*
X1433547Y47004D01*
X1433778Y47975D01*
X1434032Y48939D01*
X1434310Y49897D01*
X1434611Y50848D01*
X1434936Y51791D01*
X1435283Y52726D01*
X1435654Y53652D01*
X1436047Y54569D01*
X1436462Y55476D01*
X1436899Y56372D01*
X1437359Y57258D01*
X1437840Y58131D01*
X1438342Y58993D01*
X1438865Y59842D01*
X1439409Y60678D01*
X1439973Y61501D01*
X1440558Y62309D01*
X1441162Y63103D01*
X1441785Y63882D01*
X1442427Y64645D01*
X1443088Y65392D01*
X1443767Y66123D01*
X1444463Y66837D01*
X1445177Y67533D01*
X1445908Y68212D01*
X1446655Y68873D01*
X1447418Y69515D01*
X1448197Y70138D01*
X1448991Y70742D01*
X1449799Y71327D01*
X1450622Y71891D01*
X1451458Y72435D01*
X1452307Y72958D01*
X1453169Y73460D01*
X1454042Y73941D01*
X1454928Y74401D01*
X1455824Y74838D01*
X1456731Y75253D01*
X1457648Y75646D01*
X1458574Y76017D01*
X1459509Y76364D01*
X1460452Y76689D01*
X1461403Y76990D01*
X1462361Y77268D01*
X1463325Y77522D01*
X1464296Y77753D01*
X1465272Y77959D01*
X1466252Y78142D01*
X1467237Y78300D01*
X1468225Y78434D01*
X1469217Y78544D01*
X1470210Y78630D01*
X1471206Y78691D01*
X1472203Y78728D01*
X1473200Y78740D01*
X1474197Y78728D01*
X1475194Y78691D01*
X1476190Y78630D01*
X1477183Y78544D01*
X1478175Y78434D01*
X1479163Y78300D01*
X1480148Y78142D01*
X1481128Y77959D01*
X1482104Y77753D01*
X1483075Y77522D01*
X1484039Y77268D01*
X1484997Y76990D01*
X1485948Y76689D01*
X1486891Y76364D01*
X1487826Y76017D01*
X1488752Y75646D01*
X1489669Y75253D01*
X1490576Y74838D01*
X1491472Y74401D01*
X1492358Y73941D01*
X1493231Y73460D01*
X1494093Y72958D01*
X1494942Y72435D01*
X1495778Y71891D01*
X1496601Y71327D01*
X1497409Y70742D01*
X1498203Y70138D01*
X1498982Y69515D01*
X1499745Y68873D01*
X1500492Y68212D01*
X1501223Y67533D01*
X1501937Y66837D01*
X1502633Y66123D01*
X1503312Y65392D01*
X1503973Y64645D01*
X1504615Y63882D01*
X1505238Y63103D01*
X1505842Y62309D01*
X1506427Y61501D01*
X1506991Y60678D01*
X1507535Y59842D01*
X1508058Y58993D01*
X1508560Y58131D01*
X1509041Y57258D01*
X1509501Y56372D01*
X1509938Y55476D01*
X1510353Y54569D01*
X1510746Y53652D01*
X1511117Y52726D01*
X1511464Y51791D01*
X1511789Y50848D01*
X1512090Y49897D01*
X1512368Y48939D01*
X1512622Y47975D01*
X1512853Y47004D01*
X1513059Y46028D01*
X1513242Y45048D01*
X1513400Y44063D01*
X1513534Y43075D01*
X1513644Y42083D01*
X1513730Y41090D01*
X1513791Y40094D01*
X1513828Y39097D01*
X1513840Y38100D01*
X1513828Y37103D01*
X1513791Y36106D01*
X1513730Y35110D01*
X1513644Y34117D01*
X1513534Y33125D01*
X1513400Y32137D01*
X1513242Y31152D01*
X1513059Y30172D01*
X1512853Y29196D01*
X1512622Y28225D01*
X1512368Y27261D01*
X1512090Y26303D01*
X1511789Y25352D01*
X1511464Y24409D01*
X1511117Y23474D01*
X1510746Y22548D01*
X1510353Y21631D01*
X1509938Y20724D01*
X1509501Y19828D01*
X1509041Y18942D01*
X1508560Y18069D01*
X1508058Y17207D01*
X1507535Y16358D01*
X1506991Y15522D01*
X1506427Y14699D01*
X1505842Y13891D01*
X1505238Y13097D01*
X1504615Y12318D01*
X1503973Y11555D01*
X1503312Y10808D01*
X1502633Y10077D01*
X1501937Y9363D01*
X1501223Y8667D01*
X1500492Y7988D01*
X1499745Y7327D01*
X1498982Y6685D01*
X1498203Y6062D01*
X1497409Y5458D01*
X1496601Y4873D01*
X1495778Y4309D01*
X1494942Y3765D01*
X1494093Y3242D01*
X1493231Y2740D01*
X1492358Y2259D01*
X1491472Y1799D01*
X1490576Y1362D01*
X1489669Y947D01*
X1488752Y554D01*
X1487826Y183D01*
X1486891Y-164D01*
X1485948Y-489D01*
X1484997Y-790D01*
X1484039Y-1068D01*
X1483075Y-1322D01*
X1482104Y-1553D01*
X1481128Y-1759D01*
X1480148Y-1942D01*
X1479163Y-2100D01*
X1478175Y-2234D01*
X1477183Y-2344D01*
X1476190Y-2430D01*
X1475194Y-2491D01*
X1474197Y-2528D01*
X1473200Y-2540D01*
X1472203Y-2528D01*
X1471206Y-2491D01*
X1470210Y-2430D01*
X1469217Y-2344D01*
X1468225Y-2234D01*
X1467237Y-2100D01*
X1466252Y-1942D01*
X1465272Y-1759D01*
X1464296Y-1553D01*
X1463325Y-1322D01*
X1462361Y-1068D01*
X1461403Y-790D01*
X1460452Y-489D01*
X1459509Y-164D01*
X1458574Y183D01*
X1457648Y554D01*
X1456731Y947D01*
X1455824Y1362D01*
X1454928Y1799D01*
X1454042Y2259D01*
X1453169Y2740D01*
X1452307Y3242D01*
X1451458Y3765D01*
X1450622Y4309D01*
X1449799Y4873D01*
X1448991Y5458D01*
X1448197Y6062D01*
X1447418Y6685D01*
X1446655Y7327D01*
X1445908Y7988D01*
X1445177Y8667D01*
X1444463Y9363D01*
X1443767Y10077D01*
X1443088Y10808D01*
X1442427Y11555D01*
X1441785Y12318D01*
X1441162Y13097D01*
X1440558Y13891D01*
X1439973Y14699D01*
X1439409Y15522D01*
X1438865Y16358D01*
X1438342Y17207D01*
X1437840Y18069D01*
X1437359Y18942D01*
X1436899Y19828D01*
X1436462Y20724D01*
X1436047Y21631D01*
X1435654Y22548D01*
X1435283Y23474D01*
X1434936Y24409D01*
X1434611Y25352D01*
X1434310Y26303D01*
X1434032Y27261D01*
X1433778Y28225D01*
X1433547Y29196D01*
X1433341Y30172D01*
X1433158Y31152D01*
X1433000Y32137D01*
X1432866Y33125D01*
X1432756Y34117D01*
X1432670Y35110D01*
X1432609Y36106D01*
X1432572Y37103D01*
X1432560Y38100D01*
D10*
X1431041Y16295D02*
X1429812Y15067D01*
X1431041Y16295D02*
X1433499Y16295D01*
X1434727Y15067D01*
X1434727Y10152D01*
X1433499Y8923D01*
X1431041Y8923D01*
X1429812Y10152D01*
X1427243Y13838D02*
X1424786Y16295D01*
X1424786Y8923D01*
X1427243Y8923D02*
X1422328Y8923D01*
D12*
X1393190Y49530D02*
X1385570Y49530D01*
X1389380Y45720D02*
X1389380Y53340D01*
X1318260Y38100D02*
X1318272Y39097D01*
X1318309Y40094D01*
X1318370Y41090D01*
X1318456Y42083D01*
X1318566Y43075D01*
X1318700Y44063D01*
X1318858Y45048D01*
X1319041Y46028D01*
X1319247Y47004D01*
X1319478Y47975D01*
X1319732Y48939D01*
X1320010Y49897D01*
X1320311Y50848D01*
X1320636Y51791D01*
X1320983Y52726D01*
X1321354Y53652D01*
X1321747Y54569D01*
X1322162Y55476D01*
X1322599Y56372D01*
X1323059Y57258D01*
X1323540Y58131D01*
X1324042Y58993D01*
X1324565Y59842D01*
X1325109Y60678D01*
X1325673Y61501D01*
X1326258Y62309D01*
X1326862Y63103D01*
X1327485Y63882D01*
X1328127Y64645D01*
X1328788Y65392D01*
X1329467Y66123D01*
X1330163Y66837D01*
X1330877Y67533D01*
X1331608Y68212D01*
X1332355Y68873D01*
X1333118Y69515D01*
X1333897Y70138D01*
X1334691Y70742D01*
X1335499Y71327D01*
X1336322Y71891D01*
X1337158Y72435D01*
X1338007Y72958D01*
X1338869Y73460D01*
X1339742Y73941D01*
X1340628Y74401D01*
X1341524Y74838D01*
X1342431Y75253D01*
X1343348Y75646D01*
X1344274Y76017D01*
X1345209Y76364D01*
X1346152Y76689D01*
X1347103Y76990D01*
X1348061Y77268D01*
X1349025Y77522D01*
X1349996Y77753D01*
X1350972Y77959D01*
X1351952Y78142D01*
X1352937Y78300D01*
X1353925Y78434D01*
X1354917Y78544D01*
X1355910Y78630D01*
X1356906Y78691D01*
X1357903Y78728D01*
X1358900Y78740D01*
X1359897Y78728D01*
X1360894Y78691D01*
X1361890Y78630D01*
X1362883Y78544D01*
X1363875Y78434D01*
X1364863Y78300D01*
X1365848Y78142D01*
X1366828Y77959D01*
X1367804Y77753D01*
X1368775Y77522D01*
X1369739Y77268D01*
X1370697Y76990D01*
X1371648Y76689D01*
X1372591Y76364D01*
X1373526Y76017D01*
X1374452Y75646D01*
X1375369Y75253D01*
X1376276Y74838D01*
X1377172Y74401D01*
X1378058Y73941D01*
X1378931Y73460D01*
X1379793Y72958D01*
X1380642Y72435D01*
X1381478Y71891D01*
X1382301Y71327D01*
X1383109Y70742D01*
X1383903Y70138D01*
X1384682Y69515D01*
X1385445Y68873D01*
X1386192Y68212D01*
X1386923Y67533D01*
X1387637Y66837D01*
X1388333Y66123D01*
X1389012Y65392D01*
X1389673Y64645D01*
X1390315Y63882D01*
X1390938Y63103D01*
X1391542Y62309D01*
X1392127Y61501D01*
X1392691Y60678D01*
X1393235Y59842D01*
X1393758Y58993D01*
X1394260Y58131D01*
X1394741Y57258D01*
X1395201Y56372D01*
X1395638Y55476D01*
X1396053Y54569D01*
X1396446Y53652D01*
X1396817Y52726D01*
X1397164Y51791D01*
X1397489Y50848D01*
X1397790Y49897D01*
X1398068Y48939D01*
X1398322Y47975D01*
X1398553Y47004D01*
X1398759Y46028D01*
X1398942Y45048D01*
X1399100Y44063D01*
X1399234Y43075D01*
X1399344Y42083D01*
X1399430Y41090D01*
X1399491Y40094D01*
X1399528Y39097D01*
X1399540Y38100D01*
X1399528Y37103D01*
X1399491Y36106D01*
X1399430Y35110D01*
X1399344Y34117D01*
X1399234Y33125D01*
X1399100Y32137D01*
X1398942Y31152D01*
X1398759Y30172D01*
X1398553Y29196D01*
X1398322Y28225D01*
X1398068Y27261D01*
X1397790Y26303D01*
X1397489Y25352D01*
X1397164Y24409D01*
X1396817Y23474D01*
X1396446Y22548D01*
X1396053Y21631D01*
X1395638Y20724D01*
X1395201Y19828D01*
X1394741Y18942D01*
X1394260Y18069D01*
X1393758Y17207D01*
X1393235Y16358D01*
X1392691Y15522D01*
X1392127Y14699D01*
X1391542Y13891D01*
X1390938Y13097D01*
X1390315Y12318D01*
X1389673Y11555D01*
X1389012Y10808D01*
X1388333Y10077D01*
X1387637Y9363D01*
X1386923Y8667D01*
X1386192Y7988D01*
X1385445Y7327D01*
X1384682Y6685D01*
X1383903Y6062D01*
X1383109Y5458D01*
X1382301Y4873D01*
X1381478Y4309D01*
X1380642Y3765D01*
X1379793Y3242D01*
X1378931Y2740D01*
X1378058Y2259D01*
X1377172Y1799D01*
X1376276Y1362D01*
X1375369Y947D01*
X1374452Y554D01*
X1373526Y183D01*
X1372591Y-164D01*
X1371648Y-489D01*
X1370697Y-790D01*
X1369739Y-1068D01*
X1368775Y-1322D01*
X1367804Y-1553D01*
X1366828Y-1759D01*
X1365848Y-1942D01*
X1364863Y-2100D01*
X1363875Y-2234D01*
X1362883Y-2344D01*
X1361890Y-2430D01*
X1360894Y-2491D01*
X1359897Y-2528D01*
X1358900Y-2540D01*
X1357903Y-2528D01*
X1356906Y-2491D01*
X1355910Y-2430D01*
X1354917Y-2344D01*
X1353925Y-2234D01*
X1352937Y-2100D01*
X1351952Y-1942D01*
X1350972Y-1759D01*
X1349996Y-1553D01*
X1349025Y-1322D01*
X1348061Y-1068D01*
X1347103Y-790D01*
X1346152Y-489D01*
X1345209Y-164D01*
X1344274Y183D01*
X1343348Y554D01*
X1342431Y947D01*
X1341524Y1362D01*
X1340628Y1799D01*
X1339742Y2259D01*
X1338869Y2740D01*
X1338007Y3242D01*
X1337158Y3765D01*
X1336322Y4309D01*
X1335499Y4873D01*
X1334691Y5458D01*
X1333897Y6062D01*
X1333118Y6685D01*
X1332355Y7327D01*
X1331608Y7988D01*
X1330877Y8667D01*
X1330163Y9363D01*
X1329467Y10077D01*
X1328788Y10808D01*
X1328127Y11555D01*
X1327485Y12318D01*
X1326862Y13097D01*
X1326258Y13891D01*
X1325673Y14699D01*
X1325109Y15522D01*
X1324565Y16358D01*
X1324042Y17207D01*
X1323540Y18069D01*
X1323059Y18942D01*
X1322599Y19828D01*
X1322162Y20724D01*
X1321747Y21631D01*
X1321354Y22548D01*
X1320983Y23474D01*
X1320636Y24409D01*
X1320311Y25352D01*
X1320010Y26303D01*
X1319732Y27261D01*
X1319478Y28225D01*
X1319247Y29196D01*
X1319041Y30172D01*
X1318858Y31152D01*
X1318700Y32137D01*
X1318566Y33125D01*
X1318456Y34117D01*
X1318370Y35110D01*
X1318309Y36106D01*
X1318272Y37103D01*
X1318260Y38100D01*
D10*
X1310103Y21563D02*
X1308874Y20335D01*
X1310103Y21563D02*
X1312560Y21563D01*
X1313789Y20335D01*
X1313789Y15420D01*
X1312560Y14191D01*
X1310103Y14191D01*
X1308874Y15420D01*
X1306305Y14191D02*
X1301390Y14191D01*
X1306305Y14191D02*
X1301390Y19106D01*
X1301390Y20335D01*
X1302619Y21563D01*
X1305076Y21563D01*
X1306305Y20335D01*
X1298821Y19106D02*
X1296363Y21563D01*
X1296363Y14191D01*
X1293906Y14191D02*
X1298821Y14191D01*
X1420319Y200881D02*
X1420319Y208253D01*
X1420319Y200881D02*
X1416633Y200881D01*
X1415404Y202110D01*
X1415404Y207025D01*
X1416633Y208253D01*
X1420319Y208253D01*
X1412835Y205796D02*
X1410377Y208253D01*
X1410377Y200881D01*
X1407920Y200881D02*
X1412835Y200881D01*
X1276809Y161263D02*
X1276809Y153891D01*
X1273123Y153891D01*
X1271894Y155120D01*
X1271894Y160035D01*
X1273123Y161263D01*
X1276809Y161263D01*
X1269325Y153891D02*
X1264410Y153891D01*
X1269325Y153891D02*
X1264410Y158806D01*
X1264410Y160035D01*
X1265639Y161263D01*
X1268096Y161263D01*
X1269325Y160035D01*
D12*
X1346200Y133350D02*
X1352550Y139700D01*
X1365250Y139700D02*
X1371600Y133350D01*
X1377950Y139700D01*
X1390650Y139700D02*
X1397000Y133350D01*
X1403350Y139700D01*
X1416050Y139700D02*
X1422400Y133350D01*
X1428750Y139700D01*
X1441450Y139700D02*
X1447800Y133350D01*
X1454150Y139700D01*
X1466850Y139700D02*
X1473200Y133350D01*
X1479550Y139700D01*
X1492250Y139700D02*
X1498600Y133350D01*
X1346200Y133350D02*
X1346200Y95250D01*
X1352550Y88900D01*
X1365250Y88900D01*
X1371600Y95250D01*
X1377950Y88900D01*
X1390650Y88900D01*
X1397000Y95250D01*
X1403350Y88900D01*
X1416050Y88900D01*
X1422400Y95250D01*
X1428750Y88900D01*
X1441450Y88900D01*
X1447800Y95250D01*
X1454150Y88900D01*
X1466850Y88900D01*
X1473200Y95250D01*
X1479550Y88900D01*
X1492250Y88900D01*
X1498600Y95250D01*
X1504950Y88900D01*
X1517650Y88900D01*
X1524000Y95250D01*
X1524000Y133350D02*
X1517650Y139700D01*
X1504950Y139700D02*
X1498600Y133350D01*
X1371600Y133350D02*
X1371600Y95250D01*
X1397000Y95250D02*
X1397000Y133350D01*
X1422400Y133350D02*
X1422400Y95250D01*
X1447800Y95250D02*
X1447800Y133350D01*
X1473200Y133350D02*
X1473200Y95250D01*
X1498600Y95250D02*
X1498600Y133350D01*
X1524000Y133350D02*
X1524000Y95250D01*
X1517650Y139700D02*
X1504950Y139700D01*
X1492250Y139700D02*
X1479550Y139700D01*
X1466850Y139700D02*
X1454150Y139700D01*
X1441450Y139700D02*
X1428750Y139700D01*
X1416050Y139700D02*
X1403350Y139700D01*
X1390650Y139700D02*
X1377950Y139700D01*
X1365250Y139700D02*
X1352550Y139700D01*
X1524000Y95250D02*
X1530350Y88900D01*
X1543050Y88900D01*
X1549400Y95250D01*
X1549400Y133350D02*
X1543050Y139700D01*
X1530350Y139700D02*
X1524000Y133350D01*
X1549400Y133350D02*
X1549400Y95250D01*
X1543050Y139700D02*
X1530350Y139700D01*
D10*
X1427961Y76032D02*
X1426733Y74803D01*
X1425504Y74803D01*
X1424275Y76032D01*
X1424275Y82175D01*
X1423047Y82175D02*
X1425504Y82175D01*
X1420477Y82175D02*
X1420477Y74803D01*
X1420477Y82175D02*
X1416791Y82175D01*
X1415562Y80947D01*
X1415562Y78489D01*
X1416791Y77260D01*
X1420477Y77260D01*
X1412993Y79718D02*
X1410536Y82175D01*
X1410536Y74803D01*
X1412993Y74803D02*
X1408078Y74803D01*
D16*
X1506220Y184150D02*
X1506220Y196850D01*
X1490980Y196850D02*
X1490980Y184150D01*
D10*
X1505567Y213233D02*
X1505567Y220605D01*
X1501881Y220605D01*
X1500652Y219377D01*
X1500652Y216919D01*
X1501881Y215690D01*
X1505567Y215690D01*
X1498083Y219377D02*
X1496854Y220605D01*
X1494397Y220605D01*
X1493168Y219377D01*
X1493168Y218148D01*
X1494397Y216919D01*
X1495626Y216919D01*
X1494397Y216919D02*
X1493168Y215690D01*
X1493168Y214462D01*
X1494397Y213233D01*
X1496854Y213233D01*
X1498083Y214462D01*
D12*
X1601470Y49530D02*
X1609090Y49530D01*
X1605280Y45720D02*
X1605280Y53340D01*
X1534160Y38100D02*
X1534172Y39097D01*
X1534209Y40094D01*
X1534270Y41090D01*
X1534356Y42083D01*
X1534466Y43075D01*
X1534600Y44063D01*
X1534758Y45048D01*
X1534941Y46028D01*
X1535147Y47004D01*
X1535378Y47975D01*
X1535632Y48939D01*
X1535910Y49897D01*
X1536211Y50848D01*
X1536536Y51791D01*
X1536883Y52726D01*
X1537254Y53652D01*
X1537647Y54569D01*
X1538062Y55476D01*
X1538499Y56372D01*
X1538959Y57258D01*
X1539440Y58131D01*
X1539942Y58993D01*
X1540465Y59842D01*
X1541009Y60678D01*
X1541573Y61501D01*
X1542158Y62309D01*
X1542762Y63103D01*
X1543385Y63882D01*
X1544027Y64645D01*
X1544688Y65392D01*
X1545367Y66123D01*
X1546063Y66837D01*
X1546777Y67533D01*
X1547508Y68212D01*
X1548255Y68873D01*
X1549018Y69515D01*
X1549797Y70138D01*
X1550591Y70742D01*
X1551399Y71327D01*
X1552222Y71891D01*
X1553058Y72435D01*
X1553907Y72958D01*
X1554769Y73460D01*
X1555642Y73941D01*
X1556528Y74401D01*
X1557424Y74838D01*
X1558331Y75253D01*
X1559248Y75646D01*
X1560174Y76017D01*
X1561109Y76364D01*
X1562052Y76689D01*
X1563003Y76990D01*
X1563961Y77268D01*
X1564925Y77522D01*
X1565896Y77753D01*
X1566872Y77959D01*
X1567852Y78142D01*
X1568837Y78300D01*
X1569825Y78434D01*
X1570817Y78544D01*
X1571810Y78630D01*
X1572806Y78691D01*
X1573803Y78728D01*
X1574800Y78740D01*
X1575797Y78728D01*
X1576794Y78691D01*
X1577790Y78630D01*
X1578783Y78544D01*
X1579775Y78434D01*
X1580763Y78300D01*
X1581748Y78142D01*
X1582728Y77959D01*
X1583704Y77753D01*
X1584675Y77522D01*
X1585639Y77268D01*
X1586597Y76990D01*
X1587548Y76689D01*
X1588491Y76364D01*
X1589426Y76017D01*
X1590352Y75646D01*
X1591269Y75253D01*
X1592176Y74838D01*
X1593072Y74401D01*
X1593958Y73941D01*
X1594831Y73460D01*
X1595693Y72958D01*
X1596542Y72435D01*
X1597378Y71891D01*
X1598201Y71327D01*
X1599009Y70742D01*
X1599803Y70138D01*
X1600582Y69515D01*
X1601345Y68873D01*
X1602092Y68212D01*
X1602823Y67533D01*
X1603537Y66837D01*
X1604233Y66123D01*
X1604912Y65392D01*
X1605573Y64645D01*
X1606215Y63882D01*
X1606838Y63103D01*
X1607442Y62309D01*
X1608027Y61501D01*
X1608591Y60678D01*
X1609135Y59842D01*
X1609658Y58993D01*
X1610160Y58131D01*
X1610641Y57258D01*
X1611101Y56372D01*
X1611538Y55476D01*
X1611953Y54569D01*
X1612346Y53652D01*
X1612717Y52726D01*
X1613064Y51791D01*
X1613389Y50848D01*
X1613690Y49897D01*
X1613968Y48939D01*
X1614222Y47975D01*
X1614453Y47004D01*
X1614659Y46028D01*
X1614842Y45048D01*
X1615000Y44063D01*
X1615134Y43075D01*
X1615244Y42083D01*
X1615330Y41090D01*
X1615391Y40094D01*
X1615428Y39097D01*
X1615440Y38100D01*
X1615428Y37103D01*
X1615391Y36106D01*
X1615330Y35110D01*
X1615244Y34117D01*
X1615134Y33125D01*
X1615000Y32137D01*
X1614842Y31152D01*
X1614659Y30172D01*
X1614453Y29196D01*
X1614222Y28225D01*
X1613968Y27261D01*
X1613690Y26303D01*
X1613389Y25352D01*
X1613064Y24409D01*
X1612717Y23474D01*
X1612346Y22548D01*
X1611953Y21631D01*
X1611538Y20724D01*
X1611101Y19828D01*
X1610641Y18942D01*
X1610160Y18069D01*
X1609658Y17207D01*
X1609135Y16358D01*
X1608591Y15522D01*
X1608027Y14699D01*
X1607442Y13891D01*
X1606838Y13097D01*
X1606215Y12318D01*
X1605573Y11555D01*
X1604912Y10808D01*
X1604233Y10077D01*
X1603537Y9363D01*
X1602823Y8667D01*
X1602092Y7988D01*
X1601345Y7327D01*
X1600582Y6685D01*
X1599803Y6062D01*
X1599009Y5458D01*
X1598201Y4873D01*
X1597378Y4309D01*
X1596542Y3765D01*
X1595693Y3242D01*
X1594831Y2740D01*
X1593958Y2259D01*
X1593072Y1799D01*
X1592176Y1362D01*
X1591269Y947D01*
X1590352Y554D01*
X1589426Y183D01*
X1588491Y-164D01*
X1587548Y-489D01*
X1586597Y-790D01*
X1585639Y-1068D01*
X1584675Y-1322D01*
X1583704Y-1553D01*
X1582728Y-1759D01*
X1581748Y-1942D01*
X1580763Y-2100D01*
X1579775Y-2234D01*
X1578783Y-2344D01*
X1577790Y-2430D01*
X1576794Y-2491D01*
X1575797Y-2528D01*
X1574800Y-2540D01*
X1573803Y-2528D01*
X1572806Y-2491D01*
X1571810Y-2430D01*
X1570817Y-2344D01*
X1569825Y-2234D01*
X1568837Y-2100D01*
X1567852Y-1942D01*
X1566872Y-1759D01*
X1565896Y-1553D01*
X1564925Y-1322D01*
X1563961Y-1068D01*
X1563003Y-790D01*
X1562052Y-489D01*
X1561109Y-164D01*
X1560174Y183D01*
X1559248Y554D01*
X1558331Y947D01*
X1557424Y1362D01*
X1556528Y1799D01*
X1555642Y2259D01*
X1554769Y2740D01*
X1553907Y3242D01*
X1553058Y3765D01*
X1552222Y4309D01*
X1551399Y4873D01*
X1550591Y5458D01*
X1549797Y6062D01*
X1549018Y6685D01*
X1548255Y7327D01*
X1547508Y7988D01*
X1546777Y8667D01*
X1546063Y9363D01*
X1545367Y10077D01*
X1544688Y10808D01*
X1544027Y11555D01*
X1543385Y12318D01*
X1542762Y13097D01*
X1542158Y13891D01*
X1541573Y14699D01*
X1541009Y15522D01*
X1540465Y16358D01*
X1539942Y17207D01*
X1539440Y18069D01*
X1538959Y18942D01*
X1538499Y19828D01*
X1538062Y20724D01*
X1537647Y21631D01*
X1537254Y22548D01*
X1536883Y23474D01*
X1536536Y24409D01*
X1536211Y25352D01*
X1535910Y26303D01*
X1535632Y27261D01*
X1535378Y28225D01*
X1535147Y29196D01*
X1534941Y30172D01*
X1534758Y31152D01*
X1534600Y32137D01*
X1534466Y33125D01*
X1534356Y34117D01*
X1534270Y35110D01*
X1534209Y36106D01*
X1534172Y37103D01*
X1534160Y38100D01*
D10*
X1531083Y13943D02*
X1529854Y12715D01*
X1531083Y13943D02*
X1533540Y13943D01*
X1534769Y12715D01*
X1534769Y7800D01*
X1533540Y6571D01*
X1531083Y6571D01*
X1529854Y7800D01*
X1527285Y6571D02*
X1522370Y6571D01*
X1527285Y6571D02*
X1522370Y11486D01*
X1522370Y12715D01*
X1523599Y13943D01*
X1526056Y13943D01*
X1527285Y12715D01*
X1558067Y168943D02*
X1558067Y176315D01*
X1558067Y168943D02*
X1554381Y168943D01*
X1553152Y170172D01*
X1553152Y175087D01*
X1554381Y176315D01*
X1558067Y176315D01*
X1550583Y175087D02*
X1549354Y176315D01*
X1546897Y176315D01*
X1545668Y175087D01*
X1545668Y173858D01*
X1546897Y172629D01*
X1548126Y172629D01*
X1546897Y172629D02*
X1545668Y171400D01*
X1545668Y170172D01*
X1546897Y168943D01*
X1549354Y168943D01*
X1550583Y170172D01*
X1382655Y584865D02*
X1381427Y586093D01*
X1382655Y584865D02*
X1382655Y582407D01*
X1381427Y581179D01*
X1376512Y581179D01*
X1375283Y582407D01*
X1375283Y584865D01*
X1376512Y586093D01*
X1375283Y588663D02*
X1375283Y593578D01*
X1375283Y588663D02*
X1380198Y593578D01*
X1381427Y593578D01*
X1382655Y592349D01*
X1382655Y589891D01*
X1381427Y588663D01*
X1381427Y596147D02*
X1376512Y596147D01*
X1381427Y596147D02*
X1382655Y597376D01*
X1382655Y599833D01*
X1381427Y601062D01*
X1376512Y601062D01*
X1375283Y599833D01*
X1375283Y597376D01*
X1376512Y596147D01*
X1381427Y601062D01*
D12*
X1101090Y492760D02*
X1101088Y492660D01*
X1101082Y492561D01*
X1101072Y492461D01*
X1101059Y492363D01*
X1101041Y492264D01*
X1101020Y492167D01*
X1100995Y492071D01*
X1100966Y491975D01*
X1100933Y491881D01*
X1100897Y491788D01*
X1100857Y491697D01*
X1100813Y491607D01*
X1100766Y491519D01*
X1100716Y491433D01*
X1100662Y491349D01*
X1100605Y491267D01*
X1100545Y491188D01*
X1100481Y491110D01*
X1100415Y491036D01*
X1100346Y490964D01*
X1100274Y490895D01*
X1100200Y490829D01*
X1100122Y490765D01*
X1100043Y490705D01*
X1099961Y490648D01*
X1099877Y490594D01*
X1099791Y490544D01*
X1099703Y490497D01*
X1099613Y490453D01*
X1099522Y490413D01*
X1099429Y490377D01*
X1099335Y490344D01*
X1099239Y490315D01*
X1099143Y490290D01*
X1099046Y490269D01*
X1098947Y490251D01*
X1098849Y490238D01*
X1098749Y490228D01*
X1098650Y490222D01*
X1098550Y490220D01*
X1085850Y490220D02*
X1085750Y490222D01*
X1085651Y490228D01*
X1085551Y490238D01*
X1085453Y490251D01*
X1085354Y490269D01*
X1085257Y490290D01*
X1085161Y490315D01*
X1085065Y490344D01*
X1084971Y490377D01*
X1084878Y490413D01*
X1084787Y490453D01*
X1084697Y490497D01*
X1084609Y490544D01*
X1084523Y490594D01*
X1084439Y490648D01*
X1084357Y490705D01*
X1084278Y490765D01*
X1084200Y490829D01*
X1084126Y490895D01*
X1084054Y490964D01*
X1083985Y491036D01*
X1083919Y491110D01*
X1083855Y491188D01*
X1083795Y491267D01*
X1083738Y491349D01*
X1083684Y491433D01*
X1083634Y491519D01*
X1083587Y491607D01*
X1083543Y491697D01*
X1083503Y491788D01*
X1083467Y491881D01*
X1083434Y491975D01*
X1083405Y492071D01*
X1083380Y492167D01*
X1083359Y492264D01*
X1083341Y492363D01*
X1083328Y492461D01*
X1083318Y492561D01*
X1083312Y492660D01*
X1083310Y492760D01*
X1083310Y523240D02*
X1083312Y523340D01*
X1083318Y523439D01*
X1083328Y523539D01*
X1083341Y523637D01*
X1083359Y523736D01*
X1083380Y523833D01*
X1083405Y523929D01*
X1083434Y524025D01*
X1083467Y524119D01*
X1083503Y524212D01*
X1083543Y524303D01*
X1083587Y524393D01*
X1083634Y524481D01*
X1083684Y524567D01*
X1083738Y524651D01*
X1083795Y524733D01*
X1083855Y524812D01*
X1083919Y524890D01*
X1083985Y524964D01*
X1084054Y525036D01*
X1084126Y525105D01*
X1084200Y525171D01*
X1084278Y525235D01*
X1084357Y525295D01*
X1084439Y525352D01*
X1084523Y525406D01*
X1084609Y525456D01*
X1084697Y525503D01*
X1084787Y525547D01*
X1084878Y525587D01*
X1084971Y525623D01*
X1085065Y525656D01*
X1085161Y525685D01*
X1085257Y525710D01*
X1085354Y525731D01*
X1085453Y525749D01*
X1085551Y525762D01*
X1085651Y525772D01*
X1085750Y525778D01*
X1085850Y525780D01*
X1098550Y525780D02*
X1098650Y525778D01*
X1098749Y525772D01*
X1098849Y525762D01*
X1098947Y525749D01*
X1099046Y525731D01*
X1099143Y525710D01*
X1099239Y525685D01*
X1099335Y525656D01*
X1099429Y525623D01*
X1099522Y525587D01*
X1099613Y525547D01*
X1099703Y525503D01*
X1099791Y525456D01*
X1099877Y525406D01*
X1099961Y525352D01*
X1100043Y525295D01*
X1100122Y525235D01*
X1100200Y525171D01*
X1100274Y525105D01*
X1100346Y525036D01*
X1100415Y524964D01*
X1100481Y524890D01*
X1100545Y524812D01*
X1100605Y524733D01*
X1100662Y524651D01*
X1100716Y524567D01*
X1100766Y524481D01*
X1100813Y524393D01*
X1100857Y524303D01*
X1100897Y524212D01*
X1100933Y524119D01*
X1100966Y524025D01*
X1100995Y523929D01*
X1101020Y523833D01*
X1101041Y523736D01*
X1101059Y523637D01*
X1101072Y523539D01*
X1101082Y523439D01*
X1101088Y523340D01*
X1101090Y523240D01*
X1101090Y495300D02*
X1101090Y492760D01*
X1101090Y495300D02*
X1099820Y496570D01*
X1083310Y495300D02*
X1083310Y492760D01*
X1083310Y495300D02*
X1084580Y496570D01*
X1099820Y519430D02*
X1101090Y520700D01*
X1099820Y519430D02*
X1099820Y496570D01*
X1084580Y519430D02*
X1083310Y520700D01*
X1084580Y519430D02*
X1084580Y496570D01*
X1101090Y520700D02*
X1101090Y523240D01*
X1083310Y523240D02*
X1083310Y520700D01*
D10*
X1107821Y493141D02*
X1115193Y493141D01*
X1115193Y496827D01*
X1113965Y498056D01*
X1111507Y498056D01*
X1110278Y496827D01*
X1110278Y493141D01*
X1110278Y495598D02*
X1107821Y498056D01*
X1107821Y500625D02*
X1107821Y505540D01*
X1107821Y500625D02*
X1112736Y505540D01*
X1113965Y505540D01*
X1115193Y504311D01*
X1115193Y501854D01*
X1113965Y500625D01*
X1107821Y508109D02*
X1107821Y513024D01*
X1107821Y508109D02*
X1112736Y513024D01*
X1113965Y513024D01*
X1115193Y511795D01*
X1115193Y509338D01*
X1113965Y508109D01*
D12*
X1593850Y553720D02*
X1593950Y553722D01*
X1594049Y553728D01*
X1594149Y553738D01*
X1594247Y553751D01*
X1594346Y553769D01*
X1594443Y553790D01*
X1594539Y553815D01*
X1594635Y553844D01*
X1594729Y553877D01*
X1594822Y553913D01*
X1594913Y553953D01*
X1595003Y553997D01*
X1595091Y554044D01*
X1595177Y554094D01*
X1595261Y554148D01*
X1595343Y554205D01*
X1595422Y554265D01*
X1595500Y554329D01*
X1595574Y554395D01*
X1595646Y554464D01*
X1595715Y554536D01*
X1595781Y554610D01*
X1595845Y554688D01*
X1595905Y554767D01*
X1595962Y554849D01*
X1596016Y554933D01*
X1596066Y555019D01*
X1596113Y555107D01*
X1596157Y555197D01*
X1596197Y555288D01*
X1596233Y555381D01*
X1596266Y555475D01*
X1596295Y555571D01*
X1596320Y555667D01*
X1596341Y555764D01*
X1596359Y555863D01*
X1596372Y555961D01*
X1596382Y556061D01*
X1596388Y556160D01*
X1596390Y556260D01*
X1581150Y553720D02*
X1581050Y553722D01*
X1580951Y553728D01*
X1580851Y553738D01*
X1580753Y553751D01*
X1580654Y553769D01*
X1580557Y553790D01*
X1580461Y553815D01*
X1580365Y553844D01*
X1580271Y553877D01*
X1580178Y553913D01*
X1580087Y553953D01*
X1579997Y553997D01*
X1579909Y554044D01*
X1579823Y554094D01*
X1579739Y554148D01*
X1579657Y554205D01*
X1579578Y554265D01*
X1579500Y554329D01*
X1579426Y554395D01*
X1579354Y554464D01*
X1579285Y554536D01*
X1579219Y554610D01*
X1579155Y554688D01*
X1579095Y554767D01*
X1579038Y554849D01*
X1578984Y554933D01*
X1578934Y555019D01*
X1578887Y555107D01*
X1578843Y555197D01*
X1578803Y555288D01*
X1578767Y555381D01*
X1578734Y555475D01*
X1578705Y555571D01*
X1578680Y555667D01*
X1578659Y555764D01*
X1578641Y555863D01*
X1578628Y555961D01*
X1578618Y556061D01*
X1578612Y556160D01*
X1578610Y556260D01*
X1578610Y586740D02*
X1578612Y586840D01*
X1578618Y586939D01*
X1578628Y587039D01*
X1578641Y587137D01*
X1578659Y587236D01*
X1578680Y587333D01*
X1578705Y587429D01*
X1578734Y587525D01*
X1578767Y587619D01*
X1578803Y587712D01*
X1578843Y587803D01*
X1578887Y587893D01*
X1578934Y587981D01*
X1578984Y588067D01*
X1579038Y588151D01*
X1579095Y588233D01*
X1579155Y588312D01*
X1579219Y588390D01*
X1579285Y588464D01*
X1579354Y588536D01*
X1579426Y588605D01*
X1579500Y588671D01*
X1579578Y588735D01*
X1579657Y588795D01*
X1579739Y588852D01*
X1579823Y588906D01*
X1579909Y588956D01*
X1579997Y589003D01*
X1580087Y589047D01*
X1580178Y589087D01*
X1580271Y589123D01*
X1580365Y589156D01*
X1580461Y589185D01*
X1580557Y589210D01*
X1580654Y589231D01*
X1580753Y589249D01*
X1580851Y589262D01*
X1580951Y589272D01*
X1581050Y589278D01*
X1581150Y589280D01*
X1593850Y589280D02*
X1593950Y589278D01*
X1594049Y589272D01*
X1594149Y589262D01*
X1594247Y589249D01*
X1594346Y589231D01*
X1594443Y589210D01*
X1594539Y589185D01*
X1594635Y589156D01*
X1594729Y589123D01*
X1594822Y589087D01*
X1594913Y589047D01*
X1595003Y589003D01*
X1595091Y588956D01*
X1595177Y588906D01*
X1595261Y588852D01*
X1595343Y588795D01*
X1595422Y588735D01*
X1595500Y588671D01*
X1595574Y588605D01*
X1595646Y588536D01*
X1595715Y588464D01*
X1595781Y588390D01*
X1595845Y588312D01*
X1595905Y588233D01*
X1595962Y588151D01*
X1596016Y588067D01*
X1596066Y587981D01*
X1596113Y587893D01*
X1596157Y587803D01*
X1596197Y587712D01*
X1596233Y587619D01*
X1596266Y587525D01*
X1596295Y587429D01*
X1596320Y587333D01*
X1596341Y587236D01*
X1596359Y587137D01*
X1596372Y587039D01*
X1596382Y586939D01*
X1596388Y586840D01*
X1596390Y586740D01*
X1596390Y558800D02*
X1596390Y556260D01*
X1596390Y558800D02*
X1595120Y560070D01*
X1578610Y558800D02*
X1578610Y556260D01*
X1578610Y558800D02*
X1579880Y560070D01*
X1595120Y582930D02*
X1596390Y584200D01*
X1595120Y582930D02*
X1595120Y560070D01*
X1579880Y582930D02*
X1578610Y584200D01*
X1579880Y582930D02*
X1579880Y560070D01*
X1596390Y584200D02*
X1596390Y586740D01*
X1578610Y586740D02*
X1578610Y584200D01*
D10*
X1601851Y559181D02*
X1609223Y559181D01*
X1609223Y562867D01*
X1607995Y564096D01*
X1605537Y564096D01*
X1604308Y562867D01*
X1604308Y559181D01*
X1604308Y561638D02*
X1601851Y564096D01*
X1601851Y566665D02*
X1601851Y571580D01*
X1601851Y566665D02*
X1606766Y571580D01*
X1607995Y571580D01*
X1609223Y570351D01*
X1609223Y567894D01*
X1607995Y566665D01*
X1609223Y574149D02*
X1609223Y579064D01*
X1609223Y574149D02*
X1605537Y574149D01*
X1606766Y576607D01*
X1606766Y577835D01*
X1605537Y579064D01*
X1603080Y579064D01*
X1601851Y577835D01*
X1601851Y575378D01*
X1603080Y574149D01*
D12*
X1062990Y857758D02*
X969010Y857758D01*
X965200Y822452D02*
X965202Y822330D01*
X965208Y822208D01*
X965218Y822086D01*
X965231Y821965D01*
X965249Y821844D01*
X965270Y821724D01*
X965296Y821604D01*
X965325Y821486D01*
X965357Y821368D01*
X965394Y821251D01*
X965434Y821136D01*
X965478Y821022D01*
X965526Y820910D01*
X965577Y820799D01*
X965632Y820690D01*
X965690Y820582D01*
X965752Y820477D01*
X965817Y820374D01*
X965885Y820272D01*
X965957Y820173D01*
X966031Y820077D01*
X966109Y819982D01*
X966190Y819891D01*
X966273Y819801D01*
X966359Y819715D01*
X966449Y819632D01*
X966540Y819551D01*
X966635Y819473D01*
X966731Y819399D01*
X966830Y819327D01*
X966932Y819259D01*
X967035Y819194D01*
X967140Y819132D01*
X967248Y819074D01*
X967357Y819019D01*
X967468Y818968D01*
X967580Y818920D01*
X967694Y818876D01*
X967809Y818836D01*
X967926Y818799D01*
X968044Y818767D01*
X968162Y818738D01*
X968282Y818712D01*
X968402Y818691D01*
X968523Y818673D01*
X968644Y818660D01*
X968766Y818650D01*
X968888Y818644D01*
X969010Y818642D01*
X1062990Y857758D02*
X1063112Y857756D01*
X1063234Y857750D01*
X1063356Y857740D01*
X1063477Y857727D01*
X1063598Y857709D01*
X1063718Y857688D01*
X1063838Y857662D01*
X1063956Y857633D01*
X1064074Y857601D01*
X1064191Y857564D01*
X1064306Y857524D01*
X1064420Y857480D01*
X1064532Y857432D01*
X1064643Y857381D01*
X1064752Y857326D01*
X1064860Y857268D01*
X1064965Y857206D01*
X1065068Y857141D01*
X1065170Y857073D01*
X1065269Y857001D01*
X1065365Y856927D01*
X1065460Y856849D01*
X1065551Y856768D01*
X1065641Y856685D01*
X1065727Y856599D01*
X1065810Y856509D01*
X1065891Y856418D01*
X1065969Y856323D01*
X1066043Y856227D01*
X1066115Y856128D01*
X1066183Y856026D01*
X1066248Y855923D01*
X1066310Y855818D01*
X1066368Y855710D01*
X1066423Y855601D01*
X1066474Y855490D01*
X1066522Y855378D01*
X1066566Y855264D01*
X1066606Y855149D01*
X1066643Y855032D01*
X1066675Y854914D01*
X1066704Y854796D01*
X1066730Y854676D01*
X1066751Y854556D01*
X1066769Y854435D01*
X1066782Y854314D01*
X1066792Y854192D01*
X1066798Y854070D01*
X1066800Y853948D01*
X969010Y857758D02*
X968888Y857756D01*
X968766Y857750D01*
X968644Y857740D01*
X968523Y857727D01*
X968402Y857709D01*
X968282Y857688D01*
X968162Y857662D01*
X968044Y857633D01*
X967926Y857601D01*
X967809Y857564D01*
X967694Y857524D01*
X967580Y857480D01*
X967468Y857432D01*
X967357Y857381D01*
X967248Y857326D01*
X967140Y857268D01*
X967035Y857206D01*
X966932Y857141D01*
X966830Y857073D01*
X966731Y857001D01*
X966635Y856927D01*
X966540Y856849D01*
X966449Y856768D01*
X966359Y856685D01*
X966273Y856599D01*
X966190Y856509D01*
X966109Y856418D01*
X966031Y856323D01*
X965957Y856227D01*
X965885Y856128D01*
X965817Y856026D01*
X965752Y855923D01*
X965690Y855818D01*
X965632Y855710D01*
X965577Y855601D01*
X965526Y855490D01*
X965478Y855378D01*
X965434Y855264D01*
X965394Y855149D01*
X965357Y855032D01*
X965325Y854914D01*
X965296Y854796D01*
X965270Y854676D01*
X965249Y854556D01*
X965231Y854435D01*
X965218Y854314D01*
X965208Y854192D01*
X965202Y854070D01*
X965200Y853948D01*
X1062990Y818642D02*
X1063112Y818644D01*
X1063234Y818650D01*
X1063356Y818660D01*
X1063477Y818673D01*
X1063598Y818691D01*
X1063718Y818712D01*
X1063838Y818738D01*
X1063956Y818767D01*
X1064074Y818799D01*
X1064191Y818836D01*
X1064306Y818876D01*
X1064420Y818920D01*
X1064532Y818968D01*
X1064643Y819019D01*
X1064752Y819074D01*
X1064860Y819132D01*
X1064965Y819194D01*
X1065068Y819259D01*
X1065170Y819327D01*
X1065269Y819399D01*
X1065365Y819473D01*
X1065460Y819551D01*
X1065551Y819632D01*
X1065641Y819715D01*
X1065727Y819801D01*
X1065810Y819891D01*
X1065891Y819982D01*
X1065969Y820077D01*
X1066043Y820173D01*
X1066115Y820272D01*
X1066183Y820374D01*
X1066248Y820477D01*
X1066310Y820582D01*
X1066368Y820690D01*
X1066423Y820799D01*
X1066474Y820910D01*
X1066522Y821022D01*
X1066566Y821136D01*
X1066606Y821251D01*
X1066643Y821368D01*
X1066675Y821486D01*
X1066704Y821604D01*
X1066730Y821724D01*
X1066751Y821844D01*
X1066769Y821965D01*
X1066782Y822086D01*
X1066792Y822208D01*
X1066798Y822330D01*
X1066800Y822452D01*
X1062990Y818642D02*
X969010Y818642D01*
X965200Y822452D02*
X965200Y853948D01*
X1066800Y853948D02*
X1066800Y843280D01*
X1066800Y833120D01*
X1066800Y822452D01*
X1066800Y833120D02*
X1066659Y833122D01*
X1066518Y833128D01*
X1066377Y833138D01*
X1066236Y833151D01*
X1066096Y833169D01*
X1065957Y833191D01*
X1065818Y833216D01*
X1065679Y833245D01*
X1065542Y833278D01*
X1065406Y833315D01*
X1065271Y833356D01*
X1065136Y833400D01*
X1065004Y833448D01*
X1064872Y833500D01*
X1064742Y833555D01*
X1064614Y833614D01*
X1064487Y833677D01*
X1064363Y833743D01*
X1064240Y833812D01*
X1064119Y833885D01*
X1064000Y833961D01*
X1063883Y834041D01*
X1063769Y834124D01*
X1063656Y834209D01*
X1063547Y834298D01*
X1063439Y834390D01*
X1063335Y834485D01*
X1063233Y834583D01*
X1063134Y834684D01*
X1063037Y834787D01*
X1062944Y834893D01*
X1062854Y835001D01*
X1062766Y835112D01*
X1062682Y835225D01*
X1062601Y835341D01*
X1062523Y835459D01*
X1062448Y835579D01*
X1062377Y835701D01*
X1062309Y835825D01*
X1062245Y835951D01*
X1062184Y836078D01*
X1062127Y836207D01*
X1062074Y836338D01*
X1062024Y836470D01*
X1061977Y836603D01*
X1061935Y836738D01*
X1061896Y836874D01*
X1061861Y837011D01*
X1061830Y837148D01*
X1061803Y837287D01*
X1061779Y837426D01*
X1061760Y837566D01*
X1061744Y837706D01*
X1061732Y837847D01*
X1061724Y837988D01*
X1061720Y838129D01*
X1061720Y838271D01*
X1061724Y838412D01*
X1061732Y838553D01*
X1061744Y838694D01*
X1061760Y838834D01*
X1061779Y838974D01*
X1061803Y839113D01*
X1061830Y839252D01*
X1061861Y839389D01*
X1061896Y839526D01*
X1061935Y839662D01*
X1061977Y839797D01*
X1062024Y839930D01*
X1062074Y840062D01*
X1062127Y840193D01*
X1062184Y840322D01*
X1062245Y840449D01*
X1062309Y840575D01*
X1062377Y840699D01*
X1062448Y840821D01*
X1062523Y840941D01*
X1062601Y841059D01*
X1062682Y841175D01*
X1062766Y841288D01*
X1062854Y841399D01*
X1062944Y841507D01*
X1063037Y841613D01*
X1063134Y841716D01*
X1063233Y841817D01*
X1063335Y841915D01*
X1063439Y842010D01*
X1063547Y842102D01*
X1063656Y842191D01*
X1063769Y842276D01*
X1063883Y842359D01*
X1064000Y842439D01*
X1064119Y842515D01*
X1064240Y842588D01*
X1064363Y842657D01*
X1064487Y842723D01*
X1064614Y842786D01*
X1064742Y842845D01*
X1064872Y842900D01*
X1065004Y842952D01*
X1065136Y843000D01*
X1065271Y843044D01*
X1065406Y843085D01*
X1065542Y843122D01*
X1065679Y843155D01*
X1065818Y843184D01*
X1065957Y843209D01*
X1066096Y843231D01*
X1066236Y843249D01*
X1066377Y843262D01*
X1066518Y843272D01*
X1066659Y843278D01*
X1066800Y843280D01*
D14*
X1066800Y822198D02*
X965200Y822198D01*
D10*
X1076071Y827151D02*
X1076071Y829608D01*
X1076071Y828380D02*
X1083443Y828380D01*
X1083443Y829608D02*
X1083443Y827151D01*
X1083443Y835827D02*
X1082215Y837055D01*
X1083443Y835827D02*
X1083443Y833369D01*
X1082215Y832140D01*
X1077300Y832140D01*
X1076071Y833369D01*
X1076071Y835827D01*
X1077300Y837055D01*
X1080986Y839625D02*
X1083443Y842082D01*
X1076071Y842082D01*
X1076071Y839625D02*
X1076071Y844539D01*
D12*
X821690Y857758D02*
X727710Y857758D01*
X723900Y822452D02*
X723902Y822330D01*
X723908Y822208D01*
X723918Y822086D01*
X723931Y821965D01*
X723949Y821844D01*
X723970Y821724D01*
X723996Y821604D01*
X724025Y821486D01*
X724057Y821368D01*
X724094Y821251D01*
X724134Y821136D01*
X724178Y821022D01*
X724226Y820910D01*
X724277Y820799D01*
X724332Y820690D01*
X724390Y820582D01*
X724452Y820477D01*
X724517Y820374D01*
X724585Y820272D01*
X724657Y820173D01*
X724731Y820077D01*
X724809Y819982D01*
X724890Y819891D01*
X724973Y819801D01*
X725059Y819715D01*
X725149Y819632D01*
X725240Y819551D01*
X725335Y819473D01*
X725431Y819399D01*
X725530Y819327D01*
X725632Y819259D01*
X725735Y819194D01*
X725840Y819132D01*
X725948Y819074D01*
X726057Y819019D01*
X726168Y818968D01*
X726280Y818920D01*
X726394Y818876D01*
X726509Y818836D01*
X726626Y818799D01*
X726744Y818767D01*
X726862Y818738D01*
X726982Y818712D01*
X727102Y818691D01*
X727223Y818673D01*
X727344Y818660D01*
X727466Y818650D01*
X727588Y818644D01*
X727710Y818642D01*
X821690Y857758D02*
X821812Y857756D01*
X821934Y857750D01*
X822056Y857740D01*
X822177Y857727D01*
X822298Y857709D01*
X822418Y857688D01*
X822538Y857662D01*
X822656Y857633D01*
X822774Y857601D01*
X822891Y857564D01*
X823006Y857524D01*
X823120Y857480D01*
X823232Y857432D01*
X823343Y857381D01*
X823452Y857326D01*
X823560Y857268D01*
X823665Y857206D01*
X823768Y857141D01*
X823870Y857073D01*
X823969Y857001D01*
X824065Y856927D01*
X824160Y856849D01*
X824251Y856768D01*
X824341Y856685D01*
X824427Y856599D01*
X824510Y856509D01*
X824591Y856418D01*
X824669Y856323D01*
X824743Y856227D01*
X824815Y856128D01*
X824883Y856026D01*
X824948Y855923D01*
X825010Y855818D01*
X825068Y855710D01*
X825123Y855601D01*
X825174Y855490D01*
X825222Y855378D01*
X825266Y855264D01*
X825306Y855149D01*
X825343Y855032D01*
X825375Y854914D01*
X825404Y854796D01*
X825430Y854676D01*
X825451Y854556D01*
X825469Y854435D01*
X825482Y854314D01*
X825492Y854192D01*
X825498Y854070D01*
X825500Y853948D01*
X727710Y857758D02*
X727588Y857756D01*
X727466Y857750D01*
X727344Y857740D01*
X727223Y857727D01*
X727102Y857709D01*
X726982Y857688D01*
X726862Y857662D01*
X726744Y857633D01*
X726626Y857601D01*
X726509Y857564D01*
X726394Y857524D01*
X726280Y857480D01*
X726168Y857432D01*
X726057Y857381D01*
X725948Y857326D01*
X725840Y857268D01*
X725735Y857206D01*
X725632Y857141D01*
X725530Y857073D01*
X725431Y857001D01*
X725335Y856927D01*
X725240Y856849D01*
X725149Y856768D01*
X725059Y856685D01*
X724973Y856599D01*
X724890Y856509D01*
X724809Y856418D01*
X724731Y856323D01*
X724657Y856227D01*
X724585Y856128D01*
X724517Y856026D01*
X724452Y855923D01*
X724390Y855818D01*
X724332Y855710D01*
X724277Y855601D01*
X724226Y855490D01*
X724178Y855378D01*
X724134Y855264D01*
X724094Y855149D01*
X724057Y855032D01*
X724025Y854914D01*
X723996Y854796D01*
X723970Y854676D01*
X723949Y854556D01*
X723931Y854435D01*
X723918Y854314D01*
X723908Y854192D01*
X723902Y854070D01*
X723900Y853948D01*
X821690Y818642D02*
X821812Y818644D01*
X821934Y818650D01*
X822056Y818660D01*
X822177Y818673D01*
X822298Y818691D01*
X822418Y818712D01*
X822538Y818738D01*
X822656Y818767D01*
X822774Y818799D01*
X822891Y818836D01*
X823006Y818876D01*
X823120Y818920D01*
X823232Y818968D01*
X823343Y819019D01*
X823452Y819074D01*
X823560Y819132D01*
X823665Y819194D01*
X823768Y819259D01*
X823870Y819327D01*
X823969Y819399D01*
X824065Y819473D01*
X824160Y819551D01*
X824251Y819632D01*
X824341Y819715D01*
X824427Y819801D01*
X824510Y819891D01*
X824591Y819982D01*
X824669Y820077D01*
X824743Y820173D01*
X824815Y820272D01*
X824883Y820374D01*
X824948Y820477D01*
X825010Y820582D01*
X825068Y820690D01*
X825123Y820799D01*
X825174Y820910D01*
X825222Y821022D01*
X825266Y821136D01*
X825306Y821251D01*
X825343Y821368D01*
X825375Y821486D01*
X825404Y821604D01*
X825430Y821724D01*
X825451Y821844D01*
X825469Y821965D01*
X825482Y822086D01*
X825492Y822208D01*
X825498Y822330D01*
X825500Y822452D01*
X821690Y818642D02*
X727710Y818642D01*
X723900Y822452D02*
X723900Y853948D01*
X825500Y853948D02*
X825500Y843280D01*
X825500Y833120D01*
X825500Y822452D01*
X825500Y833120D02*
X825359Y833122D01*
X825218Y833128D01*
X825077Y833138D01*
X824936Y833151D01*
X824796Y833169D01*
X824657Y833191D01*
X824518Y833216D01*
X824379Y833245D01*
X824242Y833278D01*
X824106Y833315D01*
X823971Y833356D01*
X823836Y833400D01*
X823704Y833448D01*
X823572Y833500D01*
X823442Y833555D01*
X823314Y833614D01*
X823187Y833677D01*
X823063Y833743D01*
X822940Y833812D01*
X822819Y833885D01*
X822700Y833961D01*
X822583Y834041D01*
X822469Y834124D01*
X822356Y834209D01*
X822247Y834298D01*
X822139Y834390D01*
X822035Y834485D01*
X821933Y834583D01*
X821834Y834684D01*
X821737Y834787D01*
X821644Y834893D01*
X821554Y835001D01*
X821466Y835112D01*
X821382Y835225D01*
X821301Y835341D01*
X821223Y835459D01*
X821148Y835579D01*
X821077Y835701D01*
X821009Y835825D01*
X820945Y835951D01*
X820884Y836078D01*
X820827Y836207D01*
X820774Y836338D01*
X820724Y836470D01*
X820677Y836603D01*
X820635Y836738D01*
X820596Y836874D01*
X820561Y837011D01*
X820530Y837148D01*
X820503Y837287D01*
X820479Y837426D01*
X820460Y837566D01*
X820444Y837706D01*
X820432Y837847D01*
X820424Y837988D01*
X820420Y838129D01*
X820420Y838271D01*
X820424Y838412D01*
X820432Y838553D01*
X820444Y838694D01*
X820460Y838834D01*
X820479Y838974D01*
X820503Y839113D01*
X820530Y839252D01*
X820561Y839389D01*
X820596Y839526D01*
X820635Y839662D01*
X820677Y839797D01*
X820724Y839930D01*
X820774Y840062D01*
X820827Y840193D01*
X820884Y840322D01*
X820945Y840449D01*
X821009Y840575D01*
X821077Y840699D01*
X821148Y840821D01*
X821223Y840941D01*
X821301Y841059D01*
X821382Y841175D01*
X821466Y841288D01*
X821554Y841399D01*
X821644Y841507D01*
X821737Y841613D01*
X821834Y841716D01*
X821933Y841817D01*
X822035Y841915D01*
X822139Y842010D01*
X822247Y842102D01*
X822356Y842191D01*
X822469Y842276D01*
X822583Y842359D01*
X822700Y842439D01*
X822819Y842515D01*
X822940Y842588D01*
X823063Y842657D01*
X823187Y842723D01*
X823314Y842786D01*
X823442Y842845D01*
X823572Y842900D01*
X823704Y842952D01*
X823836Y843000D01*
X823971Y843044D01*
X824106Y843085D01*
X824242Y843122D01*
X824379Y843155D01*
X824518Y843184D01*
X824657Y843209D01*
X824796Y843231D01*
X824936Y843249D01*
X825077Y843262D01*
X825218Y843272D01*
X825359Y843278D01*
X825500Y843280D01*
D14*
X825500Y822198D02*
X723900Y822198D01*
D10*
X829691Y820718D02*
X829691Y818261D01*
X829691Y819490D02*
X837063Y819490D01*
X837063Y820718D02*
X837063Y818261D01*
X837063Y826937D02*
X835835Y828165D01*
X837063Y826937D02*
X837063Y824479D01*
X835835Y823250D01*
X830920Y823250D01*
X829691Y824479D01*
X829691Y826937D01*
X830920Y828165D01*
X830920Y830735D02*
X829691Y831963D01*
X829691Y834421D01*
X830920Y835649D01*
X835835Y835649D01*
X837063Y834421D01*
X837063Y831963D01*
X835835Y830735D01*
X834606Y830735D01*
X833377Y831963D01*
X833377Y835649D01*
X1512272Y455041D02*
X1514729Y455041D01*
X1513500Y455041D02*
X1513500Y462413D01*
X1512272Y462413D02*
X1514729Y462413D01*
X1506053Y462413D02*
X1504825Y461185D01*
X1506053Y462413D02*
X1508511Y462413D01*
X1509740Y461185D01*
X1509740Y456270D01*
X1508511Y455041D01*
X1506053Y455041D01*
X1504825Y456270D01*
X1502255Y459956D02*
X1499798Y462413D01*
X1499798Y455041D01*
X1502255Y455041D02*
X1497341Y455041D01*
X1494771Y456270D02*
X1494771Y461185D01*
X1493543Y462413D01*
X1491085Y462413D01*
X1489856Y461185D01*
X1489856Y456270D01*
X1491085Y455041D01*
X1493543Y455041D01*
X1494771Y456270D01*
X1489856Y461185D01*
X397129Y749681D02*
X394672Y749681D01*
X395900Y749681D02*
X395900Y757053D01*
X394672Y757053D02*
X397129Y757053D01*
X388453Y757053D02*
X387225Y755825D01*
X388453Y757053D02*
X390911Y757053D01*
X392140Y755825D01*
X392140Y750910D01*
X390911Y749681D01*
X388453Y749681D01*
X387225Y750910D01*
X384655Y755825D02*
X383427Y757053D01*
X380969Y757053D01*
X379741Y755825D01*
X379741Y754596D01*
X380969Y753367D01*
X382198Y753367D01*
X380969Y753367D02*
X379741Y752138D01*
X379741Y750910D01*
X380969Y749681D01*
X383427Y749681D01*
X384655Y750910D01*
D12*
X463550Y449580D02*
X463450Y449578D01*
X463351Y449572D01*
X463251Y449562D01*
X463153Y449549D01*
X463054Y449531D01*
X462957Y449510D01*
X462861Y449485D01*
X462765Y449456D01*
X462671Y449423D01*
X462578Y449387D01*
X462487Y449347D01*
X462397Y449303D01*
X462309Y449256D01*
X462223Y449206D01*
X462139Y449152D01*
X462057Y449095D01*
X461978Y449035D01*
X461900Y448971D01*
X461826Y448905D01*
X461754Y448836D01*
X461685Y448764D01*
X461619Y448690D01*
X461555Y448612D01*
X461495Y448533D01*
X461438Y448451D01*
X461384Y448367D01*
X461334Y448281D01*
X461287Y448193D01*
X461243Y448103D01*
X461203Y448012D01*
X461167Y447919D01*
X461134Y447825D01*
X461105Y447729D01*
X461080Y447633D01*
X461059Y447536D01*
X461041Y447437D01*
X461028Y447339D01*
X461018Y447239D01*
X461012Y447140D01*
X461010Y447040D01*
X476250Y449580D02*
X476350Y449578D01*
X476449Y449572D01*
X476549Y449562D01*
X476647Y449549D01*
X476746Y449531D01*
X476843Y449510D01*
X476939Y449485D01*
X477035Y449456D01*
X477129Y449423D01*
X477222Y449387D01*
X477313Y449347D01*
X477403Y449303D01*
X477491Y449256D01*
X477577Y449206D01*
X477661Y449152D01*
X477743Y449095D01*
X477822Y449035D01*
X477900Y448971D01*
X477974Y448905D01*
X478046Y448836D01*
X478115Y448764D01*
X478181Y448690D01*
X478245Y448612D01*
X478305Y448533D01*
X478362Y448451D01*
X478416Y448367D01*
X478466Y448281D01*
X478513Y448193D01*
X478557Y448103D01*
X478597Y448012D01*
X478633Y447919D01*
X478666Y447825D01*
X478695Y447729D01*
X478720Y447633D01*
X478741Y447536D01*
X478759Y447437D01*
X478772Y447339D01*
X478782Y447239D01*
X478788Y447140D01*
X478790Y447040D01*
X478790Y416560D02*
X478788Y416460D01*
X478782Y416361D01*
X478772Y416261D01*
X478759Y416163D01*
X478741Y416064D01*
X478720Y415967D01*
X478695Y415871D01*
X478666Y415775D01*
X478633Y415681D01*
X478597Y415588D01*
X478557Y415497D01*
X478513Y415407D01*
X478466Y415319D01*
X478416Y415233D01*
X478362Y415149D01*
X478305Y415067D01*
X478245Y414988D01*
X478181Y414910D01*
X478115Y414836D01*
X478046Y414764D01*
X477974Y414695D01*
X477900Y414629D01*
X477822Y414565D01*
X477743Y414505D01*
X477661Y414448D01*
X477577Y414394D01*
X477491Y414344D01*
X477403Y414297D01*
X477313Y414253D01*
X477222Y414213D01*
X477129Y414177D01*
X477035Y414144D01*
X476939Y414115D01*
X476843Y414090D01*
X476746Y414069D01*
X476647Y414051D01*
X476549Y414038D01*
X476449Y414028D01*
X476350Y414022D01*
X476250Y414020D01*
X463550Y414020D02*
X463450Y414022D01*
X463351Y414028D01*
X463251Y414038D01*
X463153Y414051D01*
X463054Y414069D01*
X462957Y414090D01*
X462861Y414115D01*
X462765Y414144D01*
X462671Y414177D01*
X462578Y414213D01*
X462487Y414253D01*
X462397Y414297D01*
X462309Y414344D01*
X462223Y414394D01*
X462139Y414448D01*
X462057Y414505D01*
X461978Y414565D01*
X461900Y414629D01*
X461826Y414695D01*
X461754Y414764D01*
X461685Y414836D01*
X461619Y414910D01*
X461555Y414988D01*
X461495Y415067D01*
X461438Y415149D01*
X461384Y415233D01*
X461334Y415319D01*
X461287Y415407D01*
X461243Y415497D01*
X461203Y415588D01*
X461167Y415681D01*
X461134Y415775D01*
X461105Y415871D01*
X461080Y415967D01*
X461059Y416064D01*
X461041Y416163D01*
X461028Y416261D01*
X461018Y416361D01*
X461012Y416460D01*
X461010Y416560D01*
X461010Y444500D02*
X461010Y447040D01*
X461010Y444500D02*
X462280Y443230D01*
X478790Y444500D02*
X478790Y447040D01*
X478790Y444500D02*
X477520Y443230D01*
X462280Y420370D02*
X461010Y419100D01*
X462280Y420370D02*
X462280Y443230D01*
X477520Y420370D02*
X478790Y419100D01*
X477520Y420370D02*
X477520Y443230D01*
X461010Y419100D02*
X461010Y416560D01*
X478790Y416560D02*
X478790Y419100D01*
D10*
X454285Y424969D02*
X446913Y424969D01*
X454285Y424969D02*
X454285Y428655D01*
X453057Y429883D01*
X450599Y429883D01*
X449370Y428655D01*
X449370Y424969D01*
X449370Y427426D02*
X446913Y429883D01*
X451828Y432453D02*
X454285Y434910D01*
X446913Y434910D01*
X446913Y432453D02*
X446913Y437368D01*
X446913Y439937D02*
X446913Y444852D01*
X446913Y439937D02*
X451828Y444852D01*
X453057Y444852D01*
X454285Y443623D01*
X454285Y441166D01*
X453057Y439937D01*
X454327Y381488D02*
X455555Y380259D01*
X455555Y377801D01*
X454327Y376573D01*
X449412Y376573D01*
X448183Y377801D01*
X448183Y380259D01*
X449412Y381488D01*
X454327Y384057D02*
X455555Y385286D01*
X455555Y387743D01*
X454327Y388972D01*
X453098Y388972D01*
X451869Y387743D01*
X451869Y386514D01*
X451869Y387743D02*
X450640Y388972D01*
X449412Y388972D01*
X448183Y387743D01*
X448183Y385286D01*
X449412Y384057D01*
D12*
X981710Y382270D02*
X989330Y382270D01*
X985520Y386080D02*
X985520Y378460D01*
X975360Y393700D02*
X975372Y394697D01*
X975409Y395694D01*
X975470Y396690D01*
X975556Y397683D01*
X975666Y398675D01*
X975800Y399663D01*
X975958Y400648D01*
X976141Y401628D01*
X976347Y402604D01*
X976578Y403575D01*
X976832Y404539D01*
X977110Y405497D01*
X977411Y406448D01*
X977736Y407391D01*
X978083Y408326D01*
X978454Y409252D01*
X978847Y410169D01*
X979262Y411076D01*
X979699Y411972D01*
X980159Y412858D01*
X980640Y413731D01*
X981142Y414593D01*
X981665Y415442D01*
X982209Y416278D01*
X982773Y417101D01*
X983358Y417909D01*
X983962Y418703D01*
X984585Y419482D01*
X985227Y420245D01*
X985888Y420992D01*
X986567Y421723D01*
X987263Y422437D01*
X987977Y423133D01*
X988708Y423812D01*
X989455Y424473D01*
X990218Y425115D01*
X990997Y425738D01*
X991791Y426342D01*
X992599Y426927D01*
X993422Y427491D01*
X994258Y428035D01*
X995107Y428558D01*
X995969Y429060D01*
X996842Y429541D01*
X997728Y430001D01*
X998624Y430438D01*
X999531Y430853D01*
X1000448Y431246D01*
X1001374Y431617D01*
X1002309Y431964D01*
X1003252Y432289D01*
X1004203Y432590D01*
X1005161Y432868D01*
X1006125Y433122D01*
X1007096Y433353D01*
X1008072Y433559D01*
X1009052Y433742D01*
X1010037Y433900D01*
X1011025Y434034D01*
X1012017Y434144D01*
X1013010Y434230D01*
X1014006Y434291D01*
X1015003Y434328D01*
X1016000Y434340D01*
X1016997Y434328D01*
X1017994Y434291D01*
X1018990Y434230D01*
X1019983Y434144D01*
X1020975Y434034D01*
X1021963Y433900D01*
X1022948Y433742D01*
X1023928Y433559D01*
X1024904Y433353D01*
X1025875Y433122D01*
X1026839Y432868D01*
X1027797Y432590D01*
X1028748Y432289D01*
X1029691Y431964D01*
X1030626Y431617D01*
X1031552Y431246D01*
X1032469Y430853D01*
X1033376Y430438D01*
X1034272Y430001D01*
X1035158Y429541D01*
X1036031Y429060D01*
X1036893Y428558D01*
X1037742Y428035D01*
X1038578Y427491D01*
X1039401Y426927D01*
X1040209Y426342D01*
X1041003Y425738D01*
X1041782Y425115D01*
X1042545Y424473D01*
X1043292Y423812D01*
X1044023Y423133D01*
X1044737Y422437D01*
X1045433Y421723D01*
X1046112Y420992D01*
X1046773Y420245D01*
X1047415Y419482D01*
X1048038Y418703D01*
X1048642Y417909D01*
X1049227Y417101D01*
X1049791Y416278D01*
X1050335Y415442D01*
X1050858Y414593D01*
X1051360Y413731D01*
X1051841Y412858D01*
X1052301Y411972D01*
X1052738Y411076D01*
X1053153Y410169D01*
X1053546Y409252D01*
X1053917Y408326D01*
X1054264Y407391D01*
X1054589Y406448D01*
X1054890Y405497D01*
X1055168Y404539D01*
X1055422Y403575D01*
X1055653Y402604D01*
X1055859Y401628D01*
X1056042Y400648D01*
X1056200Y399663D01*
X1056334Y398675D01*
X1056444Y397683D01*
X1056530Y396690D01*
X1056591Y395694D01*
X1056628Y394697D01*
X1056640Y393700D01*
X1056628Y392703D01*
X1056591Y391706D01*
X1056530Y390710D01*
X1056444Y389717D01*
X1056334Y388725D01*
X1056200Y387737D01*
X1056042Y386752D01*
X1055859Y385772D01*
X1055653Y384796D01*
X1055422Y383825D01*
X1055168Y382861D01*
X1054890Y381903D01*
X1054589Y380952D01*
X1054264Y380009D01*
X1053917Y379074D01*
X1053546Y378148D01*
X1053153Y377231D01*
X1052738Y376324D01*
X1052301Y375428D01*
X1051841Y374542D01*
X1051360Y373669D01*
X1050858Y372807D01*
X1050335Y371958D01*
X1049791Y371122D01*
X1049227Y370299D01*
X1048642Y369491D01*
X1048038Y368697D01*
X1047415Y367918D01*
X1046773Y367155D01*
X1046112Y366408D01*
X1045433Y365677D01*
X1044737Y364963D01*
X1044023Y364267D01*
X1043292Y363588D01*
X1042545Y362927D01*
X1041782Y362285D01*
X1041003Y361662D01*
X1040209Y361058D01*
X1039401Y360473D01*
X1038578Y359909D01*
X1037742Y359365D01*
X1036893Y358842D01*
X1036031Y358340D01*
X1035158Y357859D01*
X1034272Y357399D01*
X1033376Y356962D01*
X1032469Y356547D01*
X1031552Y356154D01*
X1030626Y355783D01*
X1029691Y355436D01*
X1028748Y355111D01*
X1027797Y354810D01*
X1026839Y354532D01*
X1025875Y354278D01*
X1024904Y354047D01*
X1023928Y353841D01*
X1022948Y353658D01*
X1021963Y353500D01*
X1020975Y353366D01*
X1019983Y353256D01*
X1018990Y353170D01*
X1017994Y353109D01*
X1016997Y353072D01*
X1016000Y353060D01*
X1015003Y353072D01*
X1014006Y353109D01*
X1013010Y353170D01*
X1012017Y353256D01*
X1011025Y353366D01*
X1010037Y353500D01*
X1009052Y353658D01*
X1008072Y353841D01*
X1007096Y354047D01*
X1006125Y354278D01*
X1005161Y354532D01*
X1004203Y354810D01*
X1003252Y355111D01*
X1002309Y355436D01*
X1001374Y355783D01*
X1000448Y356154D01*
X999531Y356547D01*
X998624Y356962D01*
X997728Y357399D01*
X996842Y357859D01*
X995969Y358340D01*
X995107Y358842D01*
X994258Y359365D01*
X993422Y359909D01*
X992599Y360473D01*
X991791Y361058D01*
X990997Y361662D01*
X990218Y362285D01*
X989455Y362927D01*
X988708Y363588D01*
X987977Y364267D01*
X987263Y364963D01*
X986567Y365677D01*
X985888Y366408D01*
X985227Y367155D01*
X984585Y367918D01*
X983962Y368697D01*
X983358Y369491D01*
X982773Y370299D01*
X982209Y371122D01*
X981665Y371958D01*
X981142Y372807D01*
X980640Y373669D01*
X980159Y374542D01*
X979699Y375428D01*
X979262Y376324D01*
X978847Y377231D01*
X978454Y378148D01*
X978083Y379074D01*
X977736Y380009D01*
X977411Y380952D01*
X977110Y381903D01*
X976832Y382861D01*
X976578Y383825D01*
X976347Y384796D01*
X976141Y385772D01*
X975958Y386752D01*
X975800Y387737D01*
X975666Y388725D01*
X975556Y389717D01*
X975470Y390710D01*
X975409Y391706D01*
X975372Y392703D01*
X975360Y393700D01*
D10*
X1022142Y446867D02*
X1023371Y448095D01*
X1025829Y448095D01*
X1027057Y446867D01*
X1027057Y441952D01*
X1025829Y440723D01*
X1023371Y440723D01*
X1022142Y441952D01*
X1015887Y440723D02*
X1015887Y448095D01*
X1019573Y444409D01*
X1014658Y444409D01*
X371735Y220375D02*
X370507Y221603D01*
X371735Y220375D02*
X371735Y217917D01*
X370507Y216689D01*
X365592Y216689D01*
X364363Y217917D01*
X364363Y220375D01*
X365592Y221603D01*
X369278Y224173D02*
X371735Y226630D01*
X364363Y226630D01*
X364363Y224173D02*
X364363Y229088D01*
X369278Y231657D02*
X371735Y234114D01*
X364363Y234114D01*
X364363Y231657D02*
X364363Y236572D01*
D16*
X1028446Y272034D02*
X1088390Y272030D01*
X1088390Y337570D01*
X1028446Y337566D01*
D17*
X1093216Y304800D03*
D10*
X1098252Y347091D02*
X1100709Y347091D01*
X1099480Y347091D02*
X1099480Y354463D01*
X1098252Y354463D02*
X1100709Y354463D01*
X1092033Y354463D02*
X1090805Y353235D01*
X1092033Y354463D02*
X1094491Y354463D01*
X1095720Y353235D01*
X1095720Y348320D01*
X1094491Y347091D01*
X1092033Y347091D01*
X1090805Y348320D01*
X1088235Y347091D02*
X1083321Y347091D01*
X1088235Y347091D02*
X1083321Y352006D01*
X1083321Y353235D01*
X1084549Y354463D01*
X1087007Y354463D01*
X1088235Y353235D01*
D18*
X998600Y346900D02*
X982600Y346900D01*
X982600Y338900D02*
X998600Y338900D01*
D19*
X991600Y342900D03*
D10*
X995934Y323983D02*
X995934Y316611D01*
X991019Y316611D01*
X988450Y322755D02*
X987221Y323983D01*
X984764Y323983D01*
X983535Y322755D01*
X983535Y321526D01*
X984764Y320297D01*
X985992Y320297D01*
X984764Y320297D02*
X983535Y319068D01*
X983535Y317840D01*
X984764Y316611D01*
X987221Y316611D01*
X988450Y317840D01*
X1195687Y190125D02*
X1195687Y182753D01*
X1195687Y190125D02*
X1192001Y190125D01*
X1190772Y188897D01*
X1190772Y186439D01*
X1192001Y185210D01*
X1195687Y185210D01*
X1193230Y185210D02*
X1190772Y182753D01*
X1188203Y190125D02*
X1183288Y190125D01*
X1183288Y188897D01*
X1188203Y183982D01*
X1188203Y182753D01*
D12*
X1154430Y255270D02*
X1146810Y255270D01*
X1150620Y259080D02*
X1150620Y251460D01*
X1140460Y266700D02*
X1140472Y267697D01*
X1140509Y268694D01*
X1140570Y269690D01*
X1140656Y270683D01*
X1140766Y271675D01*
X1140900Y272663D01*
X1141058Y273648D01*
X1141241Y274628D01*
X1141447Y275604D01*
X1141678Y276575D01*
X1141932Y277539D01*
X1142210Y278497D01*
X1142511Y279448D01*
X1142836Y280391D01*
X1143183Y281326D01*
X1143554Y282252D01*
X1143947Y283169D01*
X1144362Y284076D01*
X1144799Y284972D01*
X1145259Y285858D01*
X1145740Y286731D01*
X1146242Y287593D01*
X1146765Y288442D01*
X1147309Y289278D01*
X1147873Y290101D01*
X1148458Y290909D01*
X1149062Y291703D01*
X1149685Y292482D01*
X1150327Y293245D01*
X1150988Y293992D01*
X1151667Y294723D01*
X1152363Y295437D01*
X1153077Y296133D01*
X1153808Y296812D01*
X1154555Y297473D01*
X1155318Y298115D01*
X1156097Y298738D01*
X1156891Y299342D01*
X1157699Y299927D01*
X1158522Y300491D01*
X1159358Y301035D01*
X1160207Y301558D01*
X1161069Y302060D01*
X1161942Y302541D01*
X1162828Y303001D01*
X1163724Y303438D01*
X1164631Y303853D01*
X1165548Y304246D01*
X1166474Y304617D01*
X1167409Y304964D01*
X1168352Y305289D01*
X1169303Y305590D01*
X1170261Y305868D01*
X1171225Y306122D01*
X1172196Y306353D01*
X1173172Y306559D01*
X1174152Y306742D01*
X1175137Y306900D01*
X1176125Y307034D01*
X1177117Y307144D01*
X1178110Y307230D01*
X1179106Y307291D01*
X1180103Y307328D01*
X1181100Y307340D01*
X1182097Y307328D01*
X1183094Y307291D01*
X1184090Y307230D01*
X1185083Y307144D01*
X1186075Y307034D01*
X1187063Y306900D01*
X1188048Y306742D01*
X1189028Y306559D01*
X1190004Y306353D01*
X1190975Y306122D01*
X1191939Y305868D01*
X1192897Y305590D01*
X1193848Y305289D01*
X1194791Y304964D01*
X1195726Y304617D01*
X1196652Y304246D01*
X1197569Y303853D01*
X1198476Y303438D01*
X1199372Y303001D01*
X1200258Y302541D01*
X1201131Y302060D01*
X1201993Y301558D01*
X1202842Y301035D01*
X1203678Y300491D01*
X1204501Y299927D01*
X1205309Y299342D01*
X1206103Y298738D01*
X1206882Y298115D01*
X1207645Y297473D01*
X1208392Y296812D01*
X1209123Y296133D01*
X1209837Y295437D01*
X1210533Y294723D01*
X1211212Y293992D01*
X1211873Y293245D01*
X1212515Y292482D01*
X1213138Y291703D01*
X1213742Y290909D01*
X1214327Y290101D01*
X1214891Y289278D01*
X1215435Y288442D01*
X1215958Y287593D01*
X1216460Y286731D01*
X1216941Y285858D01*
X1217401Y284972D01*
X1217838Y284076D01*
X1218253Y283169D01*
X1218646Y282252D01*
X1219017Y281326D01*
X1219364Y280391D01*
X1219689Y279448D01*
X1219990Y278497D01*
X1220268Y277539D01*
X1220522Y276575D01*
X1220753Y275604D01*
X1220959Y274628D01*
X1221142Y273648D01*
X1221300Y272663D01*
X1221434Y271675D01*
X1221544Y270683D01*
X1221630Y269690D01*
X1221691Y268694D01*
X1221728Y267697D01*
X1221740Y266700D01*
X1221728Y265703D01*
X1221691Y264706D01*
X1221630Y263710D01*
X1221544Y262717D01*
X1221434Y261725D01*
X1221300Y260737D01*
X1221142Y259752D01*
X1220959Y258772D01*
X1220753Y257796D01*
X1220522Y256825D01*
X1220268Y255861D01*
X1219990Y254903D01*
X1219689Y253952D01*
X1219364Y253009D01*
X1219017Y252074D01*
X1218646Y251148D01*
X1218253Y250231D01*
X1217838Y249324D01*
X1217401Y248428D01*
X1216941Y247542D01*
X1216460Y246669D01*
X1215958Y245807D01*
X1215435Y244958D01*
X1214891Y244122D01*
X1214327Y243299D01*
X1213742Y242491D01*
X1213138Y241697D01*
X1212515Y240918D01*
X1211873Y240155D01*
X1211212Y239408D01*
X1210533Y238677D01*
X1209837Y237963D01*
X1209123Y237267D01*
X1208392Y236588D01*
X1207645Y235927D01*
X1206882Y235285D01*
X1206103Y234662D01*
X1205309Y234058D01*
X1204501Y233473D01*
X1203678Y232909D01*
X1202842Y232365D01*
X1201993Y231842D01*
X1201131Y231340D01*
X1200258Y230859D01*
X1199372Y230399D01*
X1198476Y229962D01*
X1197569Y229547D01*
X1196652Y229154D01*
X1195726Y228783D01*
X1194791Y228436D01*
X1193848Y228111D01*
X1192897Y227810D01*
X1191939Y227532D01*
X1190975Y227278D01*
X1190004Y227047D01*
X1189028Y226841D01*
X1188048Y226658D01*
X1187063Y226500D01*
X1186075Y226366D01*
X1185083Y226256D01*
X1184090Y226170D01*
X1183094Y226109D01*
X1182097Y226072D01*
X1181100Y226060D01*
X1180103Y226072D01*
X1179106Y226109D01*
X1178110Y226170D01*
X1177117Y226256D01*
X1176125Y226366D01*
X1175137Y226500D01*
X1174152Y226658D01*
X1173172Y226841D01*
X1172196Y227047D01*
X1171225Y227278D01*
X1170261Y227532D01*
X1169303Y227810D01*
X1168352Y228111D01*
X1167409Y228436D01*
X1166474Y228783D01*
X1165548Y229154D01*
X1164631Y229547D01*
X1163724Y229962D01*
X1162828Y230399D01*
X1161942Y230859D01*
X1161069Y231340D01*
X1160207Y231842D01*
X1159358Y232365D01*
X1158522Y232909D01*
X1157699Y233473D01*
X1156891Y234058D01*
X1156097Y234662D01*
X1155318Y235285D01*
X1154555Y235927D01*
X1153808Y236588D01*
X1153077Y237267D01*
X1152363Y237963D01*
X1151667Y238677D01*
X1150988Y239408D01*
X1150327Y240155D01*
X1149685Y240918D01*
X1149062Y241697D01*
X1148458Y242491D01*
X1147873Y243299D01*
X1147309Y244122D01*
X1146765Y244958D01*
X1146242Y245807D01*
X1145740Y246669D01*
X1145259Y247542D01*
X1144799Y248428D01*
X1144362Y249324D01*
X1143947Y250231D01*
X1143554Y251148D01*
X1143183Y252074D01*
X1142836Y253009D01*
X1142511Y253952D01*
X1142210Y254903D01*
X1141932Y255861D01*
X1141678Y256825D01*
X1141447Y257796D01*
X1141241Y258772D01*
X1141058Y259752D01*
X1140900Y260737D01*
X1140766Y261725D01*
X1140656Y262717D01*
X1140570Y263710D01*
X1140509Y264706D01*
X1140472Y265703D01*
X1140460Y266700D01*
D10*
X1189647Y316057D02*
X1190875Y317285D01*
X1193333Y317285D01*
X1194561Y316057D01*
X1194561Y311142D01*
X1193333Y309913D01*
X1190875Y309913D01*
X1189647Y311142D01*
X1187077Y314828D02*
X1184620Y317285D01*
X1184620Y309913D01*
X1187077Y309913D02*
X1182162Y309913D01*
X1179593Y309913D02*
X1174678Y309913D01*
X1179593Y309913D02*
X1174678Y314828D01*
X1174678Y316057D01*
X1175907Y317285D01*
X1178364Y317285D01*
X1179593Y316057D01*
X1522069Y225933D02*
X1524527Y225933D01*
X1523298Y225933D02*
X1523298Y233305D01*
X1524527Y233305D02*
X1522069Y233305D01*
X1515851Y233305D02*
X1514622Y232077D01*
X1515851Y233305D02*
X1518309Y233305D01*
X1519537Y232077D01*
X1519537Y227162D01*
X1518309Y225933D01*
X1515851Y225933D01*
X1514622Y227162D01*
X1508367Y225933D02*
X1508367Y233305D01*
X1512053Y229619D01*
X1507138Y229619D01*
X674897Y379603D02*
X672439Y379603D01*
X673668Y379603D02*
X673668Y386975D01*
X674897Y386975D02*
X672439Y386975D01*
X666221Y386975D02*
X664992Y385747D01*
X666221Y386975D02*
X668679Y386975D01*
X669907Y385747D01*
X669907Y380832D01*
X668679Y379603D01*
X666221Y379603D01*
X664992Y380832D01*
X662423Y385747D02*
X661194Y386975D01*
X658737Y386975D01*
X657508Y385747D01*
X657508Y384518D01*
X658737Y383289D01*
X657508Y382060D01*
X657508Y380832D01*
X658737Y379603D01*
X661194Y379603D01*
X662423Y380832D01*
X662423Y382060D01*
X661194Y383289D01*
X662423Y384518D01*
X662423Y385747D01*
X661194Y383289D02*
X658737Y383289D01*
X308229Y283385D02*
X308229Y278470D01*
X308229Y283385D02*
X307000Y284613D01*
X304543Y284613D01*
X303314Y283385D01*
X303314Y278470D01*
X304543Y277241D01*
X307000Y277241D01*
X308229Y278470D01*
X305772Y279698D02*
X303314Y277241D01*
X300745Y277241D02*
X295830Y277241D01*
X300745Y277241D02*
X295830Y282156D01*
X295830Y283385D01*
X297059Y284613D01*
X299516Y284613D01*
X300745Y283385D01*
D12*
X274320Y196850D02*
X274322Y196750D01*
X274328Y196651D01*
X274338Y196551D01*
X274351Y196453D01*
X274369Y196354D01*
X274390Y196257D01*
X274415Y196161D01*
X274444Y196065D01*
X274477Y195971D01*
X274513Y195878D01*
X274553Y195787D01*
X274597Y195697D01*
X274644Y195609D01*
X274694Y195523D01*
X274748Y195439D01*
X274805Y195357D01*
X274865Y195278D01*
X274929Y195200D01*
X274995Y195126D01*
X275064Y195054D01*
X275136Y194985D01*
X275210Y194919D01*
X275288Y194855D01*
X275367Y194795D01*
X275449Y194738D01*
X275533Y194684D01*
X275619Y194634D01*
X275707Y194587D01*
X275797Y194543D01*
X275888Y194503D01*
X275981Y194467D01*
X276075Y194434D01*
X276171Y194405D01*
X276267Y194380D01*
X276364Y194359D01*
X276463Y194341D01*
X276561Y194328D01*
X276661Y194318D01*
X276760Y194312D01*
X276860Y194310D01*
X274320Y209550D02*
X274322Y209650D01*
X274328Y209749D01*
X274338Y209849D01*
X274351Y209947D01*
X274369Y210046D01*
X274390Y210143D01*
X274415Y210239D01*
X274444Y210335D01*
X274477Y210429D01*
X274513Y210522D01*
X274553Y210613D01*
X274597Y210703D01*
X274644Y210791D01*
X274694Y210877D01*
X274748Y210961D01*
X274805Y211043D01*
X274865Y211122D01*
X274929Y211200D01*
X274995Y211274D01*
X275064Y211346D01*
X275136Y211415D01*
X275210Y211481D01*
X275288Y211545D01*
X275367Y211605D01*
X275449Y211662D01*
X275533Y211716D01*
X275619Y211766D01*
X275707Y211813D01*
X275797Y211857D01*
X275888Y211897D01*
X275981Y211933D01*
X276075Y211966D01*
X276171Y211995D01*
X276267Y212020D01*
X276364Y212041D01*
X276463Y212059D01*
X276561Y212072D01*
X276661Y212082D01*
X276760Y212088D01*
X276860Y212090D01*
X307340Y212090D02*
X307440Y212088D01*
X307539Y212082D01*
X307639Y212072D01*
X307737Y212059D01*
X307836Y212041D01*
X307933Y212020D01*
X308029Y211995D01*
X308125Y211966D01*
X308219Y211933D01*
X308312Y211897D01*
X308403Y211857D01*
X308493Y211813D01*
X308581Y211766D01*
X308667Y211716D01*
X308751Y211662D01*
X308833Y211605D01*
X308912Y211545D01*
X308990Y211481D01*
X309064Y211415D01*
X309136Y211346D01*
X309205Y211274D01*
X309271Y211200D01*
X309335Y211122D01*
X309395Y211043D01*
X309452Y210961D01*
X309506Y210877D01*
X309556Y210791D01*
X309603Y210703D01*
X309647Y210613D01*
X309687Y210522D01*
X309723Y210429D01*
X309756Y210335D01*
X309785Y210239D01*
X309810Y210143D01*
X309831Y210046D01*
X309849Y209947D01*
X309862Y209849D01*
X309872Y209749D01*
X309878Y209650D01*
X309880Y209550D01*
X309880Y196850D02*
X309878Y196750D01*
X309872Y196651D01*
X309862Y196551D01*
X309849Y196453D01*
X309831Y196354D01*
X309810Y196257D01*
X309785Y196161D01*
X309756Y196065D01*
X309723Y195971D01*
X309687Y195878D01*
X309647Y195787D01*
X309603Y195697D01*
X309556Y195609D01*
X309506Y195523D01*
X309452Y195439D01*
X309395Y195357D01*
X309335Y195278D01*
X309271Y195200D01*
X309205Y195126D01*
X309136Y195054D01*
X309064Y194985D01*
X308990Y194919D01*
X308912Y194855D01*
X308833Y194795D01*
X308751Y194738D01*
X308667Y194684D01*
X308581Y194634D01*
X308493Y194587D01*
X308403Y194543D01*
X308312Y194503D01*
X308219Y194467D01*
X308125Y194434D01*
X308029Y194405D01*
X307933Y194380D01*
X307836Y194359D01*
X307737Y194341D01*
X307639Y194328D01*
X307539Y194318D01*
X307440Y194312D01*
X307340Y194310D01*
X279400Y194310D02*
X276860Y194310D01*
X279400Y194310D02*
X280670Y195580D01*
X279400Y212090D02*
X276860Y212090D01*
X279400Y212090D02*
X280670Y210820D01*
X303530Y195580D02*
X304800Y194310D01*
X303530Y195580D02*
X280670Y195580D01*
X303530Y210820D02*
X304800Y212090D01*
X303530Y210820D02*
X280670Y210820D01*
X304800Y194310D02*
X307340Y194310D01*
X307340Y212090D02*
X304800Y212090D01*
D10*
X306551Y191395D02*
X306551Y184023D01*
X306551Y191395D02*
X302865Y191395D01*
X301637Y190167D01*
X301637Y187709D01*
X302865Y186480D01*
X306551Y186480D01*
X304094Y186480D02*
X301637Y184023D01*
X295381Y184023D02*
X295381Y191395D01*
X299067Y187709D01*
X294152Y187709D01*
X291583Y184023D02*
X286668Y184023D01*
X291583Y184023D02*
X286668Y188938D01*
X286668Y190167D01*
X287897Y191395D01*
X290354Y191395D01*
X291583Y190167D01*
D12*
X327660Y257810D02*
X327560Y257812D01*
X327461Y257818D01*
X327361Y257828D01*
X327263Y257841D01*
X327164Y257859D01*
X327067Y257880D01*
X326971Y257905D01*
X326875Y257934D01*
X326781Y257967D01*
X326688Y258003D01*
X326597Y258043D01*
X326507Y258087D01*
X326419Y258134D01*
X326333Y258184D01*
X326249Y258238D01*
X326167Y258295D01*
X326088Y258355D01*
X326010Y258419D01*
X325936Y258485D01*
X325864Y258554D01*
X325795Y258626D01*
X325729Y258700D01*
X325665Y258778D01*
X325605Y258857D01*
X325548Y258939D01*
X325494Y259023D01*
X325444Y259109D01*
X325397Y259197D01*
X325353Y259287D01*
X325313Y259378D01*
X325277Y259471D01*
X325244Y259565D01*
X325215Y259661D01*
X325190Y259757D01*
X325169Y259854D01*
X325151Y259953D01*
X325138Y260051D01*
X325128Y260151D01*
X325122Y260250D01*
X325120Y260350D01*
X325120Y273050D02*
X325122Y273150D01*
X325128Y273249D01*
X325138Y273349D01*
X325151Y273447D01*
X325169Y273546D01*
X325190Y273643D01*
X325215Y273739D01*
X325244Y273835D01*
X325277Y273929D01*
X325313Y274022D01*
X325353Y274113D01*
X325397Y274203D01*
X325444Y274291D01*
X325494Y274377D01*
X325548Y274461D01*
X325605Y274543D01*
X325665Y274622D01*
X325729Y274700D01*
X325795Y274774D01*
X325864Y274846D01*
X325936Y274915D01*
X326010Y274981D01*
X326088Y275045D01*
X326167Y275105D01*
X326249Y275162D01*
X326333Y275216D01*
X326419Y275266D01*
X326507Y275313D01*
X326597Y275357D01*
X326688Y275397D01*
X326781Y275433D01*
X326875Y275466D01*
X326971Y275495D01*
X327067Y275520D01*
X327164Y275541D01*
X327263Y275559D01*
X327361Y275572D01*
X327461Y275582D01*
X327560Y275588D01*
X327660Y275590D01*
X358140Y275590D02*
X358240Y275588D01*
X358339Y275582D01*
X358439Y275572D01*
X358537Y275559D01*
X358636Y275541D01*
X358733Y275520D01*
X358829Y275495D01*
X358925Y275466D01*
X359019Y275433D01*
X359112Y275397D01*
X359203Y275357D01*
X359293Y275313D01*
X359381Y275266D01*
X359467Y275216D01*
X359551Y275162D01*
X359633Y275105D01*
X359712Y275045D01*
X359790Y274981D01*
X359864Y274915D01*
X359936Y274846D01*
X360005Y274774D01*
X360071Y274700D01*
X360135Y274622D01*
X360195Y274543D01*
X360252Y274461D01*
X360306Y274377D01*
X360356Y274291D01*
X360403Y274203D01*
X360447Y274113D01*
X360487Y274022D01*
X360523Y273929D01*
X360556Y273835D01*
X360585Y273739D01*
X360610Y273643D01*
X360631Y273546D01*
X360649Y273447D01*
X360662Y273349D01*
X360672Y273249D01*
X360678Y273150D01*
X360680Y273050D01*
X360680Y260350D02*
X360678Y260250D01*
X360672Y260151D01*
X360662Y260051D01*
X360649Y259953D01*
X360631Y259854D01*
X360610Y259757D01*
X360585Y259661D01*
X360556Y259565D01*
X360523Y259471D01*
X360487Y259378D01*
X360447Y259287D01*
X360403Y259197D01*
X360356Y259109D01*
X360306Y259023D01*
X360252Y258939D01*
X360195Y258857D01*
X360135Y258778D01*
X360071Y258700D01*
X360005Y258626D01*
X359936Y258554D01*
X359864Y258485D01*
X359790Y258419D01*
X359712Y258355D01*
X359633Y258295D01*
X359551Y258238D01*
X359467Y258184D01*
X359381Y258134D01*
X359293Y258087D01*
X359203Y258043D01*
X359112Y258003D01*
X359019Y257967D01*
X358925Y257934D01*
X358829Y257905D01*
X358733Y257880D01*
X358636Y257859D01*
X358537Y257841D01*
X358439Y257828D01*
X358339Y257818D01*
X358240Y257812D01*
X358140Y257810D01*
X330200Y257810D02*
X327660Y257810D01*
X330200Y257810D02*
X331470Y259080D01*
X330200Y275590D02*
X327660Y275590D01*
X330200Y275590D02*
X331470Y274320D01*
X354330Y259080D02*
X355600Y257810D01*
X354330Y259080D02*
X331470Y259080D01*
X354330Y274320D02*
X355600Y275590D01*
X354330Y274320D02*
X331470Y274320D01*
X355600Y257810D02*
X358140Y257810D01*
X358140Y275590D02*
X355600Y275590D01*
D10*
X354811Y254895D02*
X354811Y247523D01*
X354811Y254895D02*
X351125Y254895D01*
X349897Y253667D01*
X349897Y251209D01*
X351125Y249980D01*
X354811Y249980D01*
X352354Y249980D02*
X349897Y247523D01*
X343641Y247523D02*
X343641Y254895D01*
X347327Y251209D01*
X342412Y251209D01*
X339843Y253667D02*
X338614Y254895D01*
X336157Y254895D01*
X334928Y253667D01*
X334928Y252438D01*
X336157Y251209D01*
X337386Y251209D01*
X336157Y251209D02*
X334928Y249980D01*
X334928Y248752D01*
X336157Y247523D01*
X338614Y247523D01*
X339843Y248752D01*
X444119Y265770D02*
X444119Y270685D01*
X442890Y271913D01*
X440433Y271913D01*
X439204Y270685D01*
X439204Y265770D01*
X440433Y264541D01*
X442890Y264541D01*
X444119Y265770D01*
X441662Y266998D02*
X439204Y264541D01*
X436635Y269456D02*
X434177Y271913D01*
X434177Y264541D01*
X431720Y264541D02*
X436635Y264541D01*
D12*
X401320Y196850D02*
X401322Y196750D01*
X401328Y196651D01*
X401338Y196551D01*
X401351Y196453D01*
X401369Y196354D01*
X401390Y196257D01*
X401415Y196161D01*
X401444Y196065D01*
X401477Y195971D01*
X401513Y195878D01*
X401553Y195787D01*
X401597Y195697D01*
X401644Y195609D01*
X401694Y195523D01*
X401748Y195439D01*
X401805Y195357D01*
X401865Y195278D01*
X401929Y195200D01*
X401995Y195126D01*
X402064Y195054D01*
X402136Y194985D01*
X402210Y194919D01*
X402288Y194855D01*
X402367Y194795D01*
X402449Y194738D01*
X402533Y194684D01*
X402619Y194634D01*
X402707Y194587D01*
X402797Y194543D01*
X402888Y194503D01*
X402981Y194467D01*
X403075Y194434D01*
X403171Y194405D01*
X403267Y194380D01*
X403364Y194359D01*
X403463Y194341D01*
X403561Y194328D01*
X403661Y194318D01*
X403760Y194312D01*
X403860Y194310D01*
X401320Y209550D02*
X401322Y209650D01*
X401328Y209749D01*
X401338Y209849D01*
X401351Y209947D01*
X401369Y210046D01*
X401390Y210143D01*
X401415Y210239D01*
X401444Y210335D01*
X401477Y210429D01*
X401513Y210522D01*
X401553Y210613D01*
X401597Y210703D01*
X401644Y210791D01*
X401694Y210877D01*
X401748Y210961D01*
X401805Y211043D01*
X401865Y211122D01*
X401929Y211200D01*
X401995Y211274D01*
X402064Y211346D01*
X402136Y211415D01*
X402210Y211481D01*
X402288Y211545D01*
X402367Y211605D01*
X402449Y211662D01*
X402533Y211716D01*
X402619Y211766D01*
X402707Y211813D01*
X402797Y211857D01*
X402888Y211897D01*
X402981Y211933D01*
X403075Y211966D01*
X403171Y211995D01*
X403267Y212020D01*
X403364Y212041D01*
X403463Y212059D01*
X403561Y212072D01*
X403661Y212082D01*
X403760Y212088D01*
X403860Y212090D01*
X434340Y212090D02*
X434440Y212088D01*
X434539Y212082D01*
X434639Y212072D01*
X434737Y212059D01*
X434836Y212041D01*
X434933Y212020D01*
X435029Y211995D01*
X435125Y211966D01*
X435219Y211933D01*
X435312Y211897D01*
X435403Y211857D01*
X435493Y211813D01*
X435581Y211766D01*
X435667Y211716D01*
X435751Y211662D01*
X435833Y211605D01*
X435912Y211545D01*
X435990Y211481D01*
X436064Y211415D01*
X436136Y211346D01*
X436205Y211274D01*
X436271Y211200D01*
X436335Y211122D01*
X436395Y211043D01*
X436452Y210961D01*
X436506Y210877D01*
X436556Y210791D01*
X436603Y210703D01*
X436647Y210613D01*
X436687Y210522D01*
X436723Y210429D01*
X436756Y210335D01*
X436785Y210239D01*
X436810Y210143D01*
X436831Y210046D01*
X436849Y209947D01*
X436862Y209849D01*
X436872Y209749D01*
X436878Y209650D01*
X436880Y209550D01*
X436880Y196850D02*
X436878Y196750D01*
X436872Y196651D01*
X436862Y196551D01*
X436849Y196453D01*
X436831Y196354D01*
X436810Y196257D01*
X436785Y196161D01*
X436756Y196065D01*
X436723Y195971D01*
X436687Y195878D01*
X436647Y195787D01*
X436603Y195697D01*
X436556Y195609D01*
X436506Y195523D01*
X436452Y195439D01*
X436395Y195357D01*
X436335Y195278D01*
X436271Y195200D01*
X436205Y195126D01*
X436136Y195054D01*
X436064Y194985D01*
X435990Y194919D01*
X435912Y194855D01*
X435833Y194795D01*
X435751Y194738D01*
X435667Y194684D01*
X435581Y194634D01*
X435493Y194587D01*
X435403Y194543D01*
X435312Y194503D01*
X435219Y194467D01*
X435125Y194434D01*
X435029Y194405D01*
X434933Y194380D01*
X434836Y194359D01*
X434737Y194341D01*
X434639Y194328D01*
X434539Y194318D01*
X434440Y194312D01*
X434340Y194310D01*
X406400Y194310D02*
X403860Y194310D01*
X406400Y194310D02*
X407670Y195580D01*
X406400Y212090D02*
X403860Y212090D01*
X406400Y212090D02*
X407670Y210820D01*
X430530Y195580D02*
X431800Y194310D01*
X430530Y195580D02*
X407670Y195580D01*
X430530Y210820D02*
X431800Y212090D01*
X430530Y210820D02*
X407670Y210820D01*
X431800Y194310D02*
X434340Y194310D01*
X434340Y212090D02*
X431800Y212090D01*
D10*
X457681Y185045D02*
X457681Y177673D01*
X457681Y185045D02*
X453995Y185045D01*
X452767Y183817D01*
X452767Y181359D01*
X453995Y180130D01*
X457681Y180130D01*
X455224Y180130D02*
X452767Y177673D01*
X446511Y177673D02*
X446511Y185045D01*
X450197Y181359D01*
X445282Y181359D01*
X439027Y177673D02*
X439027Y185045D01*
X442713Y181359D01*
X437798Y181359D01*
D12*
X467360Y257810D02*
X467260Y257812D01*
X467161Y257818D01*
X467061Y257828D01*
X466963Y257841D01*
X466864Y257859D01*
X466767Y257880D01*
X466671Y257905D01*
X466575Y257934D01*
X466481Y257967D01*
X466388Y258003D01*
X466297Y258043D01*
X466207Y258087D01*
X466119Y258134D01*
X466033Y258184D01*
X465949Y258238D01*
X465867Y258295D01*
X465788Y258355D01*
X465710Y258419D01*
X465636Y258485D01*
X465564Y258554D01*
X465495Y258626D01*
X465429Y258700D01*
X465365Y258778D01*
X465305Y258857D01*
X465248Y258939D01*
X465194Y259023D01*
X465144Y259109D01*
X465097Y259197D01*
X465053Y259287D01*
X465013Y259378D01*
X464977Y259471D01*
X464944Y259565D01*
X464915Y259661D01*
X464890Y259757D01*
X464869Y259854D01*
X464851Y259953D01*
X464838Y260051D01*
X464828Y260151D01*
X464822Y260250D01*
X464820Y260350D01*
X464820Y273050D02*
X464822Y273150D01*
X464828Y273249D01*
X464838Y273349D01*
X464851Y273447D01*
X464869Y273546D01*
X464890Y273643D01*
X464915Y273739D01*
X464944Y273835D01*
X464977Y273929D01*
X465013Y274022D01*
X465053Y274113D01*
X465097Y274203D01*
X465144Y274291D01*
X465194Y274377D01*
X465248Y274461D01*
X465305Y274543D01*
X465365Y274622D01*
X465429Y274700D01*
X465495Y274774D01*
X465564Y274846D01*
X465636Y274915D01*
X465710Y274981D01*
X465788Y275045D01*
X465867Y275105D01*
X465949Y275162D01*
X466033Y275216D01*
X466119Y275266D01*
X466207Y275313D01*
X466297Y275357D01*
X466388Y275397D01*
X466481Y275433D01*
X466575Y275466D01*
X466671Y275495D01*
X466767Y275520D01*
X466864Y275541D01*
X466963Y275559D01*
X467061Y275572D01*
X467161Y275582D01*
X467260Y275588D01*
X467360Y275590D01*
X497840Y275590D02*
X497940Y275588D01*
X498039Y275582D01*
X498139Y275572D01*
X498237Y275559D01*
X498336Y275541D01*
X498433Y275520D01*
X498529Y275495D01*
X498625Y275466D01*
X498719Y275433D01*
X498812Y275397D01*
X498903Y275357D01*
X498993Y275313D01*
X499081Y275266D01*
X499167Y275216D01*
X499251Y275162D01*
X499333Y275105D01*
X499412Y275045D01*
X499490Y274981D01*
X499564Y274915D01*
X499636Y274846D01*
X499705Y274774D01*
X499771Y274700D01*
X499835Y274622D01*
X499895Y274543D01*
X499952Y274461D01*
X500006Y274377D01*
X500056Y274291D01*
X500103Y274203D01*
X500147Y274113D01*
X500187Y274022D01*
X500223Y273929D01*
X500256Y273835D01*
X500285Y273739D01*
X500310Y273643D01*
X500331Y273546D01*
X500349Y273447D01*
X500362Y273349D01*
X500372Y273249D01*
X500378Y273150D01*
X500380Y273050D01*
X500380Y260350D02*
X500378Y260250D01*
X500372Y260151D01*
X500362Y260051D01*
X500349Y259953D01*
X500331Y259854D01*
X500310Y259757D01*
X500285Y259661D01*
X500256Y259565D01*
X500223Y259471D01*
X500187Y259378D01*
X500147Y259287D01*
X500103Y259197D01*
X500056Y259109D01*
X500006Y259023D01*
X499952Y258939D01*
X499895Y258857D01*
X499835Y258778D01*
X499771Y258700D01*
X499705Y258626D01*
X499636Y258554D01*
X499564Y258485D01*
X499490Y258419D01*
X499412Y258355D01*
X499333Y258295D01*
X499251Y258238D01*
X499167Y258184D01*
X499081Y258134D01*
X498993Y258087D01*
X498903Y258043D01*
X498812Y258003D01*
X498719Y257967D01*
X498625Y257934D01*
X498529Y257905D01*
X498433Y257880D01*
X498336Y257859D01*
X498237Y257841D01*
X498139Y257828D01*
X498039Y257818D01*
X497940Y257812D01*
X497840Y257810D01*
X469900Y257810D02*
X467360Y257810D01*
X469900Y257810D02*
X471170Y259080D01*
X469900Y275590D02*
X467360Y275590D01*
X469900Y275590D02*
X471170Y274320D01*
X494030Y259080D02*
X495300Y257810D01*
X494030Y259080D02*
X471170Y259080D01*
X494030Y274320D02*
X495300Y275590D01*
X494030Y274320D02*
X471170Y274320D01*
X495300Y257810D02*
X497840Y257810D01*
X497840Y275590D02*
X495300Y275590D01*
D10*
X497051Y280543D02*
X497051Y287915D01*
X493365Y287915D01*
X492137Y286687D01*
X492137Y284229D01*
X493365Y283000D01*
X497051Y283000D01*
X494594Y283000D02*
X492137Y280543D01*
X485881Y280543D02*
X485881Y287915D01*
X489567Y284229D01*
X484652Y284229D01*
X482083Y287915D02*
X477168Y287915D01*
X482083Y287915D02*
X482083Y284229D01*
X479626Y285458D01*
X478397Y285458D01*
X477168Y284229D01*
X477168Y281772D01*
X478397Y280543D01*
X480854Y280543D01*
X482083Y281772D01*
X585089Y260525D02*
X585089Y255610D01*
X585089Y260525D02*
X583860Y261753D01*
X581403Y261753D01*
X580174Y260525D01*
X580174Y255610D01*
X581403Y254381D01*
X583860Y254381D01*
X585089Y255610D01*
X582632Y256838D02*
X580174Y254381D01*
X577605Y260525D02*
X576376Y261753D01*
X573919Y261753D01*
X572690Y260525D01*
X572690Y259296D01*
X573919Y258067D01*
X575147Y258067D01*
X573919Y258067D02*
X572690Y256838D01*
X572690Y255610D01*
X573919Y254381D01*
X576376Y254381D01*
X577605Y255610D01*
D12*
X541020Y196850D02*
X541022Y196750D01*
X541028Y196651D01*
X541038Y196551D01*
X541051Y196453D01*
X541069Y196354D01*
X541090Y196257D01*
X541115Y196161D01*
X541144Y196065D01*
X541177Y195971D01*
X541213Y195878D01*
X541253Y195787D01*
X541297Y195697D01*
X541344Y195609D01*
X541394Y195523D01*
X541448Y195439D01*
X541505Y195357D01*
X541565Y195278D01*
X541629Y195200D01*
X541695Y195126D01*
X541764Y195054D01*
X541836Y194985D01*
X541910Y194919D01*
X541988Y194855D01*
X542067Y194795D01*
X542149Y194738D01*
X542233Y194684D01*
X542319Y194634D01*
X542407Y194587D01*
X542497Y194543D01*
X542588Y194503D01*
X542681Y194467D01*
X542775Y194434D01*
X542871Y194405D01*
X542967Y194380D01*
X543064Y194359D01*
X543163Y194341D01*
X543261Y194328D01*
X543361Y194318D01*
X543460Y194312D01*
X543560Y194310D01*
X541020Y209550D02*
X541022Y209650D01*
X541028Y209749D01*
X541038Y209849D01*
X541051Y209947D01*
X541069Y210046D01*
X541090Y210143D01*
X541115Y210239D01*
X541144Y210335D01*
X541177Y210429D01*
X541213Y210522D01*
X541253Y210613D01*
X541297Y210703D01*
X541344Y210791D01*
X541394Y210877D01*
X541448Y210961D01*
X541505Y211043D01*
X541565Y211122D01*
X541629Y211200D01*
X541695Y211274D01*
X541764Y211346D01*
X541836Y211415D01*
X541910Y211481D01*
X541988Y211545D01*
X542067Y211605D01*
X542149Y211662D01*
X542233Y211716D01*
X542319Y211766D01*
X542407Y211813D01*
X542497Y211857D01*
X542588Y211897D01*
X542681Y211933D01*
X542775Y211966D01*
X542871Y211995D01*
X542967Y212020D01*
X543064Y212041D01*
X543163Y212059D01*
X543261Y212072D01*
X543361Y212082D01*
X543460Y212088D01*
X543560Y212090D01*
X574040Y212090D02*
X574140Y212088D01*
X574239Y212082D01*
X574339Y212072D01*
X574437Y212059D01*
X574536Y212041D01*
X574633Y212020D01*
X574729Y211995D01*
X574825Y211966D01*
X574919Y211933D01*
X575012Y211897D01*
X575103Y211857D01*
X575193Y211813D01*
X575281Y211766D01*
X575367Y211716D01*
X575451Y211662D01*
X575533Y211605D01*
X575612Y211545D01*
X575690Y211481D01*
X575764Y211415D01*
X575836Y211346D01*
X575905Y211274D01*
X575971Y211200D01*
X576035Y211122D01*
X576095Y211043D01*
X576152Y210961D01*
X576206Y210877D01*
X576256Y210791D01*
X576303Y210703D01*
X576347Y210613D01*
X576387Y210522D01*
X576423Y210429D01*
X576456Y210335D01*
X576485Y210239D01*
X576510Y210143D01*
X576531Y210046D01*
X576549Y209947D01*
X576562Y209849D01*
X576572Y209749D01*
X576578Y209650D01*
X576580Y209550D01*
X576580Y196850D02*
X576578Y196750D01*
X576572Y196651D01*
X576562Y196551D01*
X576549Y196453D01*
X576531Y196354D01*
X576510Y196257D01*
X576485Y196161D01*
X576456Y196065D01*
X576423Y195971D01*
X576387Y195878D01*
X576347Y195787D01*
X576303Y195697D01*
X576256Y195609D01*
X576206Y195523D01*
X576152Y195439D01*
X576095Y195357D01*
X576035Y195278D01*
X575971Y195200D01*
X575905Y195126D01*
X575836Y195054D01*
X575764Y194985D01*
X575690Y194919D01*
X575612Y194855D01*
X575533Y194795D01*
X575451Y194738D01*
X575367Y194684D01*
X575281Y194634D01*
X575193Y194587D01*
X575103Y194543D01*
X575012Y194503D01*
X574919Y194467D01*
X574825Y194434D01*
X574729Y194405D01*
X574633Y194380D01*
X574536Y194359D01*
X574437Y194341D01*
X574339Y194328D01*
X574239Y194318D01*
X574140Y194312D01*
X574040Y194310D01*
X546100Y194310D02*
X543560Y194310D01*
X546100Y194310D02*
X547370Y195580D01*
X546100Y212090D02*
X543560Y212090D01*
X546100Y212090D02*
X547370Y210820D01*
X570230Y195580D02*
X571500Y194310D01*
X570230Y195580D02*
X547370Y195580D01*
X570230Y210820D02*
X571500Y212090D01*
X570230Y210820D02*
X547370Y210820D01*
X571500Y194310D02*
X574040Y194310D01*
X574040Y212090D02*
X571500Y212090D01*
D10*
X579601Y191395D02*
X579601Y184023D01*
X579601Y191395D02*
X575915Y191395D01*
X574687Y190167D01*
X574687Y187709D01*
X575915Y186480D01*
X579601Y186480D01*
X577144Y186480D02*
X574687Y184023D01*
X568431Y184023D02*
X568431Y191395D01*
X572117Y187709D01*
X567202Y187709D01*
X562176Y190167D02*
X559718Y191395D01*
X562176Y190167D02*
X564633Y187709D01*
X564633Y185252D01*
X563404Y184023D01*
X560947Y184023D01*
X559718Y185252D01*
X559718Y186480D01*
X560947Y187709D01*
X564633Y187709D01*
D12*
X500380Y247650D02*
X500378Y247750D01*
X500372Y247849D01*
X500362Y247949D01*
X500349Y248047D01*
X500331Y248146D01*
X500310Y248243D01*
X500285Y248339D01*
X500256Y248435D01*
X500223Y248529D01*
X500187Y248622D01*
X500147Y248713D01*
X500103Y248803D01*
X500056Y248891D01*
X500006Y248977D01*
X499952Y249061D01*
X499895Y249143D01*
X499835Y249222D01*
X499771Y249300D01*
X499705Y249374D01*
X499636Y249446D01*
X499564Y249515D01*
X499490Y249581D01*
X499412Y249645D01*
X499333Y249705D01*
X499251Y249762D01*
X499167Y249816D01*
X499081Y249866D01*
X498993Y249913D01*
X498903Y249957D01*
X498812Y249997D01*
X498719Y250033D01*
X498625Y250066D01*
X498529Y250095D01*
X498433Y250120D01*
X498336Y250141D01*
X498237Y250159D01*
X498139Y250172D01*
X498039Y250182D01*
X497940Y250188D01*
X497840Y250190D01*
X500380Y234950D02*
X500378Y234850D01*
X500372Y234751D01*
X500362Y234651D01*
X500349Y234553D01*
X500331Y234454D01*
X500310Y234357D01*
X500285Y234261D01*
X500256Y234165D01*
X500223Y234071D01*
X500187Y233978D01*
X500147Y233887D01*
X500103Y233797D01*
X500056Y233709D01*
X500006Y233623D01*
X499952Y233539D01*
X499895Y233457D01*
X499835Y233378D01*
X499771Y233300D01*
X499705Y233226D01*
X499636Y233154D01*
X499564Y233085D01*
X499490Y233019D01*
X499412Y232955D01*
X499333Y232895D01*
X499251Y232838D01*
X499167Y232784D01*
X499081Y232734D01*
X498993Y232687D01*
X498903Y232643D01*
X498812Y232603D01*
X498719Y232567D01*
X498625Y232534D01*
X498529Y232505D01*
X498433Y232480D01*
X498336Y232459D01*
X498237Y232441D01*
X498139Y232428D01*
X498039Y232418D01*
X497940Y232412D01*
X497840Y232410D01*
X467360Y232410D02*
X467260Y232412D01*
X467161Y232418D01*
X467061Y232428D01*
X466963Y232441D01*
X466864Y232459D01*
X466767Y232480D01*
X466671Y232505D01*
X466575Y232534D01*
X466481Y232567D01*
X466388Y232603D01*
X466297Y232643D01*
X466207Y232687D01*
X466119Y232734D01*
X466033Y232784D01*
X465949Y232838D01*
X465867Y232895D01*
X465788Y232955D01*
X465710Y233019D01*
X465636Y233085D01*
X465564Y233154D01*
X465495Y233226D01*
X465429Y233300D01*
X465365Y233378D01*
X465305Y233457D01*
X465248Y233539D01*
X465194Y233623D01*
X465144Y233709D01*
X465097Y233797D01*
X465053Y233887D01*
X465013Y233978D01*
X464977Y234071D01*
X464944Y234165D01*
X464915Y234261D01*
X464890Y234357D01*
X464869Y234454D01*
X464851Y234553D01*
X464838Y234651D01*
X464828Y234751D01*
X464822Y234850D01*
X464820Y234950D01*
X464820Y247650D02*
X464822Y247750D01*
X464828Y247849D01*
X464838Y247949D01*
X464851Y248047D01*
X464869Y248146D01*
X464890Y248243D01*
X464915Y248339D01*
X464944Y248435D01*
X464977Y248529D01*
X465013Y248622D01*
X465053Y248713D01*
X465097Y248803D01*
X465144Y248891D01*
X465194Y248977D01*
X465248Y249061D01*
X465305Y249143D01*
X465365Y249222D01*
X465429Y249300D01*
X465495Y249374D01*
X465564Y249446D01*
X465636Y249515D01*
X465710Y249581D01*
X465788Y249645D01*
X465867Y249705D01*
X465949Y249762D01*
X466033Y249816D01*
X466119Y249866D01*
X466207Y249913D01*
X466297Y249957D01*
X466388Y249997D01*
X466481Y250033D01*
X466575Y250066D01*
X466671Y250095D01*
X466767Y250120D01*
X466864Y250141D01*
X466963Y250159D01*
X467061Y250172D01*
X467161Y250182D01*
X467260Y250188D01*
X467360Y250190D01*
X495300Y250190D02*
X497840Y250190D01*
X495300Y250190D02*
X494030Y248920D01*
X495300Y232410D02*
X497840Y232410D01*
X495300Y232410D02*
X494030Y233680D01*
X471170Y248920D02*
X469900Y250190D01*
X471170Y248920D02*
X494030Y248920D01*
X471170Y233680D02*
X469900Y232410D01*
X471170Y233680D02*
X494030Y233680D01*
X469900Y250190D02*
X467360Y250190D01*
X467360Y232410D02*
X469900Y232410D01*
D10*
X491109Y227463D02*
X491109Y220091D01*
X491109Y227463D02*
X487423Y227463D01*
X486194Y226235D01*
X486194Y223777D01*
X487423Y222548D01*
X491109Y222548D01*
X488652Y222548D02*
X486194Y220091D01*
X479939Y220091D02*
X479939Y227463D01*
X483625Y223777D01*
X478710Y223777D01*
X476141Y227463D02*
X471226Y227463D01*
X471226Y226235D01*
X476141Y221320D01*
X476141Y220091D01*
D16*
X1626300Y950500D02*
X1761300Y950500D01*
X1626300Y950500D02*
X1626300Y931500D01*
X1626300Y916500D02*
X1626300Y906500D01*
X1626300Y891500D02*
X1626300Y886500D01*
X1626300Y871500D02*
X1626300Y861500D01*
X1626300Y846500D02*
X1626300Y827500D01*
X1761300Y827500D01*
X1761300Y832000D01*
X1764300Y832000D01*
X1764300Y874000D01*
X1758300Y874000D01*
X1758300Y904000D01*
X1764300Y904000D01*
X1764300Y946000D01*
X1761300Y946000D01*
X1761300Y950500D02*
X1761407Y950502D01*
X1761514Y950508D01*
X1761621Y950517D01*
X1761727Y950531D01*
X1761833Y950548D01*
X1761938Y950569D01*
X1762042Y950593D01*
X1762145Y950622D01*
X1762247Y950654D01*
X1762348Y950689D01*
X1762448Y950728D01*
X1762546Y950771D01*
X1762643Y950817D01*
X1762738Y950867D01*
X1762831Y950920D01*
X1762922Y950976D01*
X1763011Y951036D01*
X1763098Y951098D01*
X1763182Y951164D01*
X1763265Y951233D01*
X1763344Y951304D01*
X1763421Y951379D01*
X1763496Y951456D01*
X1763567Y951535D01*
X1763636Y951618D01*
X1763702Y951702D01*
X1763764Y951789D01*
X1763824Y951878D01*
X1763880Y951969D01*
X1763933Y952062D01*
X1763983Y952157D01*
X1764029Y952254D01*
X1764072Y952352D01*
X1764111Y952452D01*
X1764146Y952553D01*
X1764178Y952655D01*
X1764207Y952758D01*
X1764231Y952862D01*
X1764252Y952967D01*
X1764269Y953073D01*
X1764283Y953179D01*
X1764292Y953286D01*
X1764298Y953393D01*
X1764300Y953500D01*
X1761300Y827500D02*
X1761407Y827498D01*
X1761514Y827492D01*
X1761621Y827483D01*
X1761727Y827469D01*
X1761833Y827452D01*
X1761938Y827431D01*
X1762042Y827407D01*
X1762145Y827378D01*
X1762247Y827346D01*
X1762348Y827311D01*
X1762448Y827272D01*
X1762546Y827229D01*
X1762643Y827183D01*
X1762738Y827133D01*
X1762831Y827080D01*
X1762922Y827024D01*
X1763011Y826964D01*
X1763098Y826902D01*
X1763182Y826836D01*
X1763265Y826767D01*
X1763344Y826696D01*
X1763421Y826621D01*
X1763496Y826544D01*
X1763567Y826465D01*
X1763636Y826382D01*
X1763702Y826298D01*
X1763764Y826211D01*
X1763824Y826122D01*
X1763880Y826031D01*
X1763933Y825938D01*
X1763983Y825843D01*
X1764029Y825746D01*
X1764072Y825648D01*
X1764111Y825548D01*
X1764146Y825447D01*
X1764178Y825345D01*
X1764207Y825242D01*
X1764231Y825138D01*
X1764252Y825033D01*
X1764269Y824927D01*
X1764283Y824821D01*
X1764292Y824714D01*
X1764298Y824607D01*
X1764300Y824500D01*
X1761300Y946000D02*
X1761300Y950500D01*
X1655300Y964000D02*
X1650300Y951500D01*
X1655300Y964000D02*
X1670300Y964000D01*
X1675300Y951500D01*
X1675300Y826500D02*
X1670300Y814000D01*
X1655300Y814000D01*
X1650300Y826500D01*
X1710300Y904000D02*
X1750300Y914000D01*
X1750300Y924000D01*
X1710300Y934000D01*
X1750300Y854000D02*
X1710300Y844000D01*
X1750300Y854000D02*
X1750300Y864000D01*
X1710300Y874000D01*
D20*
X1675300Y871500D02*
X1675300Y906500D01*
X1675300Y907000D02*
X1681800Y905500D01*
X1685300Y904500D01*
X1687300Y903500D01*
X1688800Y902000D01*
X1685300Y897500D02*
X1681800Y896500D01*
X1685300Y897500D02*
X1687300Y898500D01*
X1688800Y900000D01*
X1688800Y902000D01*
X1668800Y884500D02*
X1665300Y885500D01*
X1663300Y886500D01*
X1661800Y888000D01*
X1668800Y893500D02*
X1681800Y896500D01*
X1668800Y893500D02*
X1665300Y892500D01*
X1663300Y891500D01*
X1661800Y890000D01*
X1661800Y888000D01*
X1668800Y884500D02*
X1681800Y881500D01*
X1685300Y880500D01*
X1687300Y879500D01*
X1688800Y878000D01*
X1681800Y872500D02*
X1675300Y871000D01*
X1681800Y872500D02*
X1685300Y873500D01*
X1687300Y874500D01*
X1688800Y876000D01*
X1688800Y878000D01*
X1653279Y889000D02*
X1653286Y889565D01*
X1653307Y890130D01*
X1653341Y890694D01*
X1653390Y891256D01*
X1653452Y891818D01*
X1653528Y892378D01*
X1653618Y892936D01*
X1653721Y893491D01*
X1653838Y894044D01*
X1653969Y894594D01*
X1654113Y895140D01*
X1654270Y895683D01*
X1654441Y896221D01*
X1654625Y896756D01*
X1654822Y897285D01*
X1655031Y897810D01*
X1655254Y898329D01*
X1655489Y898843D01*
X1655737Y899351D01*
X1655997Y899852D01*
X1656270Y900347D01*
X1656554Y900835D01*
X1656851Y901316D01*
X1657159Y901790D01*
X1657478Y902256D01*
X1657809Y902714D01*
X1658151Y903163D01*
X1658505Y903604D01*
X1658868Y904037D01*
X1659243Y904460D01*
X1659627Y904874D01*
X1660022Y905278D01*
X1660426Y905673D01*
X1660840Y906057D01*
X1661263Y906432D01*
X1661696Y906795D01*
X1662137Y907149D01*
X1662586Y907491D01*
X1663044Y907822D01*
X1663510Y908141D01*
X1663984Y908449D01*
X1664465Y908746D01*
X1664953Y909030D01*
X1665448Y909303D01*
X1665949Y909563D01*
X1666457Y909811D01*
X1666971Y910046D01*
X1667490Y910269D01*
X1668015Y910478D01*
X1668544Y910675D01*
X1669079Y910859D01*
X1669617Y911030D01*
X1670160Y911187D01*
X1670706Y911331D01*
X1671256Y911462D01*
X1671809Y911579D01*
X1672364Y911682D01*
X1672922Y911772D01*
X1673482Y911848D01*
X1674044Y911910D01*
X1674606Y911959D01*
X1675170Y911993D01*
X1675735Y912014D01*
X1676300Y912021D01*
X1676865Y912014D01*
X1677430Y911993D01*
X1677994Y911959D01*
X1678556Y911910D01*
X1679118Y911848D01*
X1679678Y911772D01*
X1680236Y911682D01*
X1680791Y911579D01*
X1681344Y911462D01*
X1681894Y911331D01*
X1682440Y911187D01*
X1682983Y911030D01*
X1683521Y910859D01*
X1684056Y910675D01*
X1684585Y910478D01*
X1685110Y910269D01*
X1685629Y910046D01*
X1686143Y909811D01*
X1686651Y909563D01*
X1687152Y909303D01*
X1687647Y909030D01*
X1688135Y908746D01*
X1688616Y908449D01*
X1689090Y908141D01*
X1689556Y907822D01*
X1690014Y907491D01*
X1690463Y907149D01*
X1690904Y906795D01*
X1691337Y906432D01*
X1691760Y906057D01*
X1692174Y905673D01*
X1692578Y905278D01*
X1692973Y904874D01*
X1693357Y904460D01*
X1693732Y904037D01*
X1694095Y903604D01*
X1694449Y903163D01*
X1694791Y902714D01*
X1695122Y902256D01*
X1695441Y901790D01*
X1695749Y901316D01*
X1696046Y900835D01*
X1696330Y900347D01*
X1696603Y899852D01*
X1696863Y899351D01*
X1697111Y898843D01*
X1697346Y898329D01*
X1697569Y897810D01*
X1697778Y897285D01*
X1697975Y896756D01*
X1698159Y896221D01*
X1698330Y895683D01*
X1698487Y895140D01*
X1698631Y894594D01*
X1698762Y894044D01*
X1698879Y893491D01*
X1698982Y892936D01*
X1699072Y892378D01*
X1699148Y891818D01*
X1699210Y891256D01*
X1699259Y890694D01*
X1699293Y890130D01*
X1699314Y889565D01*
X1699321Y889000D01*
X1699314Y888435D01*
X1699293Y887870D01*
X1699259Y887306D01*
X1699210Y886744D01*
X1699148Y886182D01*
X1699072Y885622D01*
X1698982Y885064D01*
X1698879Y884509D01*
X1698762Y883956D01*
X1698631Y883406D01*
X1698487Y882860D01*
X1698330Y882317D01*
X1698159Y881779D01*
X1697975Y881244D01*
X1697778Y880715D01*
X1697569Y880190D01*
X1697346Y879671D01*
X1697111Y879157D01*
X1696863Y878649D01*
X1696603Y878148D01*
X1696330Y877653D01*
X1696046Y877165D01*
X1695749Y876684D01*
X1695441Y876210D01*
X1695122Y875744D01*
X1694791Y875286D01*
X1694449Y874837D01*
X1694095Y874396D01*
X1693732Y873963D01*
X1693357Y873540D01*
X1692973Y873126D01*
X1692578Y872722D01*
X1692174Y872327D01*
X1691760Y871943D01*
X1691337Y871568D01*
X1690904Y871205D01*
X1690463Y870851D01*
X1690014Y870509D01*
X1689556Y870178D01*
X1689090Y869859D01*
X1688616Y869551D01*
X1688135Y869254D01*
X1687647Y868970D01*
X1687152Y868697D01*
X1686651Y868437D01*
X1686143Y868189D01*
X1685629Y867954D01*
X1685110Y867731D01*
X1684585Y867522D01*
X1684056Y867325D01*
X1683521Y867141D01*
X1682983Y866970D01*
X1682440Y866813D01*
X1681894Y866669D01*
X1681344Y866538D01*
X1680791Y866421D01*
X1680236Y866318D01*
X1679678Y866228D01*
X1679118Y866152D01*
X1678556Y866090D01*
X1677994Y866041D01*
X1677430Y866007D01*
X1676865Y865986D01*
X1676300Y865979D01*
X1675735Y865986D01*
X1675170Y866007D01*
X1674606Y866041D01*
X1674044Y866090D01*
X1673482Y866152D01*
X1672922Y866228D01*
X1672364Y866318D01*
X1671809Y866421D01*
X1671256Y866538D01*
X1670706Y866669D01*
X1670160Y866813D01*
X1669617Y866970D01*
X1669079Y867141D01*
X1668544Y867325D01*
X1668015Y867522D01*
X1667490Y867731D01*
X1666971Y867954D01*
X1666457Y868189D01*
X1665949Y868437D01*
X1665448Y868697D01*
X1664953Y868970D01*
X1664465Y869254D01*
X1663984Y869551D01*
X1663510Y869859D01*
X1663044Y870178D01*
X1662586Y870509D01*
X1662137Y870851D01*
X1661696Y871205D01*
X1661263Y871568D01*
X1660840Y871943D01*
X1660426Y872327D01*
X1660022Y872722D01*
X1659627Y873126D01*
X1659243Y873540D01*
X1658868Y873963D01*
X1658505Y874396D01*
X1658151Y874837D01*
X1657809Y875286D01*
X1657478Y875744D01*
X1657159Y876210D01*
X1656851Y876684D01*
X1656554Y877165D01*
X1656270Y877653D01*
X1655997Y878148D01*
X1655737Y878649D01*
X1655489Y879157D01*
X1655254Y879671D01*
X1655031Y880190D01*
X1654822Y880715D01*
X1654625Y881244D01*
X1654441Y881779D01*
X1654270Y882317D01*
X1654113Y882860D01*
X1653969Y883406D01*
X1653838Y883956D01*
X1653721Y884509D01*
X1653618Y885064D01*
X1653528Y885622D01*
X1653452Y886182D01*
X1653390Y886744D01*
X1653341Y887306D01*
X1653307Y887870D01*
X1653286Y888435D01*
X1653279Y889000D01*
D13*
X1739673Y871442D02*
X1747300Y871442D01*
X1739673Y871442D02*
X1738148Y872968D01*
X1738148Y876018D01*
X1739673Y877544D01*
X1747300Y877544D01*
X1747300Y885374D02*
X1745775Y886899D01*
X1747300Y885374D02*
X1747300Y882323D01*
X1745775Y880798D01*
X1744249Y880798D01*
X1742724Y882323D01*
X1742724Y885374D01*
X1741199Y886899D01*
X1739673Y886899D01*
X1738148Y885374D01*
X1738148Y882323D01*
X1739673Y880798D01*
X1738148Y890153D02*
X1747300Y890153D01*
X1747300Y894729D01*
X1745775Y896254D01*
X1744249Y896254D01*
X1742724Y894729D01*
X1741199Y896254D01*
X1739673Y896254D01*
X1738148Y894729D01*
X1738148Y890153D01*
X1742724Y890153D02*
X1742724Y894729D01*
D21*
X1764300Y954000D03*
X1764300Y824000D03*
D10*
X1734604Y965581D02*
X1739519Y972953D01*
X1734604Y972953D02*
X1739519Y965581D01*
X1732035Y965581D02*
X1727120Y965581D01*
X1732035Y965581D02*
X1727120Y970496D01*
X1727120Y971725D01*
X1728349Y972953D01*
X1730806Y972953D01*
X1732035Y971725D01*
X1371733Y235331D02*
X1365590Y235331D01*
X1364361Y236560D01*
X1364361Y239017D01*
X1365590Y240246D01*
X1371733Y240246D01*
X1369276Y242815D02*
X1371733Y245273D01*
X1364361Y245273D01*
X1364361Y247730D02*
X1364361Y242815D01*
M02*
