G04 EAGLE Gerber RS-274X export*
G75*
%MOMM*%
%FSLAX34Y34*%
%LPD*%
%INSolderpaste Bottom*%
%IPPOS*%
%AMOC8*
5,1,8,0,0,1.08239X$1,22.5*%
G01*
%ADD10R,1.000000X1.100000*%
%ADD11R,2.200000X0.600000*%
%ADD12R,1.450000X0.450000*%
%ADD13R,1.800000X1.000000*%
%ADD14R,1.000000X1.800000*%
%ADD15R,1.400000X1.400000*%
%ADD16R,0.660400X2.032000*%
%ADD17R,0.700000X1.000000*%
%ADD18R,6.200000X5.400000*%
%ADD19R,1.600000X1.000000*%
%ADD20R,0.850000X0.700000*%
%ADD21R,1.600000X1.803000*%
%ADD22R,1.000000X1.400000*%
%ADD23R,4.000000X1.120000*%
%ADD24R,0.600000X2.200000*%


D10*
X1490100Y342900D03*
X1507100Y342900D03*
D11*
X977300Y692150D03*
X1029300Y692150D03*
X977300Y679450D03*
X977300Y704850D03*
X977300Y717550D03*
X1029300Y679450D03*
X1029300Y704850D03*
X1029300Y717550D03*
D12*
X1456650Y539300D03*
X1456650Y545800D03*
X1456650Y552300D03*
X1456650Y558800D03*
X1456650Y565300D03*
X1456650Y571800D03*
X1456650Y578300D03*
X1515150Y578300D03*
X1515150Y571800D03*
X1515150Y565300D03*
X1515150Y558800D03*
X1515150Y552300D03*
X1515150Y545800D03*
X1515150Y539300D03*
D13*
X1460500Y204500D03*
X1460500Y176500D03*
D14*
X1281400Y101600D03*
X1309400Y101600D03*
D15*
X1428700Y190500D03*
X1390700Y190500D03*
X1289000Y139700D03*
X1251000Y139700D03*
D13*
X1498600Y204500D03*
X1498600Y176500D03*
D15*
X1530400Y190500D03*
X1568400Y190500D03*
D10*
X1397000Y592700D03*
X1397000Y575700D03*
D16*
X1060450Y807466D03*
X1060450Y868934D03*
X1047750Y807466D03*
X1035050Y807466D03*
X1047750Y868934D03*
X1035050Y868934D03*
X1022350Y807466D03*
X1022350Y868934D03*
X1009650Y807466D03*
X1009650Y868934D03*
X996950Y807466D03*
X984250Y807466D03*
X996950Y868934D03*
X984250Y868934D03*
X971550Y807466D03*
X971550Y868934D03*
X819150Y807466D03*
X819150Y868934D03*
X806450Y807466D03*
X793750Y807466D03*
X806450Y868934D03*
X793750Y868934D03*
X781050Y807466D03*
X781050Y868934D03*
X768350Y807466D03*
X768350Y868934D03*
X755650Y807466D03*
X742950Y807466D03*
X755650Y868934D03*
X742950Y868934D03*
X730250Y807466D03*
X730250Y868934D03*
D11*
X1524600Y431800D03*
X1472600Y431800D03*
X1524600Y444500D03*
X1524600Y419100D03*
X1524600Y406400D03*
X1472600Y444500D03*
X1472600Y419100D03*
X1472600Y406400D03*
X1524600Y381000D03*
X1472600Y381000D03*
X1524600Y393700D03*
X1524600Y368300D03*
X1472600Y393700D03*
X1472600Y368300D03*
D17*
X381000Y734900D03*
X371500Y712900D03*
X390500Y712900D03*
D10*
X469900Y389500D03*
X469900Y372500D03*
X381000Y237100D03*
X381000Y220100D03*
D18*
X1041800Y304800D03*
D19*
X1114800Y327600D03*
X1114800Y282000D03*
D20*
X999600Y342900D03*
X983600Y342900D03*
D21*
X1208020Y203200D03*
X1179580Y203200D03*
D11*
X1498000Y254000D03*
X1550000Y254000D03*
X1498000Y241300D03*
X1498000Y266700D03*
X1498000Y279400D03*
X1550000Y241300D03*
X1550000Y266700D03*
X1550000Y279400D03*
X1498000Y304800D03*
X1550000Y304800D03*
X1498000Y292100D03*
X1498000Y317500D03*
X1550000Y292100D03*
X1550000Y317500D03*
X634400Y412750D03*
X686400Y412750D03*
X634400Y400050D03*
X634400Y425450D03*
X634400Y438150D03*
X686400Y400050D03*
X686400Y425450D03*
X686400Y438150D03*
D22*
X292100Y265000D03*
X282600Y243000D03*
X301600Y243000D03*
X419100Y265000D03*
X409600Y243000D03*
X428600Y243000D03*
X558800Y252300D03*
X549300Y230300D03*
X568300Y230300D03*
D23*
X1625300Y899000D03*
X1625300Y879000D03*
X1625300Y924000D03*
X1625300Y854000D03*
D24*
X1339850Y228000D03*
X1339850Y280000D03*
X1352550Y228000D03*
X1327150Y228000D03*
X1314450Y228000D03*
X1352550Y280000D03*
X1327150Y280000D03*
X1314450Y280000D03*
M02*
