G04 EAGLE Gerber RS-274X export*
G75*
%MOMM*%
%FSLAX34Y34*%
%LPD*%
%INSoldermask Bottom*%
%IPPOS*%
%AMOC8*
5,1,8,0,0,1.08239X$1,22.5*%
G01*
%ADD10R,3.703200X1.903200*%
%ADD11P,1.539592X8X22.500000*%
%ADD12P,1.539592X8X202.500000*%
%ADD13R,1.203200X1.303200*%
%ADD14C,1.727200*%
%ADD15R,2.403200X0.803200*%
%ADD16C,2.133600*%
%ADD17R,2.082800X2.082800*%
%ADD18P,2.969212X8X112.500000*%
%ADD19P,2.144431X8X22.500000*%
%ADD20C,2.403200*%
%ADD21R,1.703200X1.703200*%
%ADD22C,1.879600*%
%ADD23P,1.843527X8X292.500000*%
%ADD24C,1.703200*%
%ADD25R,1.653200X0.653200*%
%ADD26R,2.003200X1.203200*%
%ADD27R,1.203200X2.003200*%
%ADD28P,1.951982X8X22.500000*%
%ADD29C,1.803400*%
%ADD30P,1.951982X8X202.500000*%
%ADD31R,1.603200X1.603200*%
%ADD32P,1.869504X8X22.500000*%
%ADD33P,1.539592X8X112.500000*%
%ADD34R,0.863600X2.235200*%
%ADD35C,2.903200*%
%ADD36R,0.903200X1.203200*%
%ADD37P,1.539592X8X292.500000*%
%ADD38R,6.403200X5.603200*%
%ADD39R,1.803200X1.203200*%
%ADD40R,1.053200X0.903200*%
%ADD41R,1.803200X2.006200*%
%ADD42C,1.503200*%
%ADD43C,4.553200*%
%ADD44C,2.203200*%
%ADD45R,1.203200X1.603200*%
%ADD46R,4.203200X1.323200*%
%ADD47C,2.503200*%
%ADD48R,0.803200X2.403200*%
%ADD49C,2.082800*%
%ADD50C,0.889000*%
%ADD51C,0.908800*%


D10*
X1689608Y483616D03*
X1689608Y456184D03*
X1689608Y428752D03*
X1689608Y401320D03*
X1689608Y373888D03*
X1689608Y346456D03*
X1689608Y319024D03*
X1689608Y291592D03*
X1689608Y264160D03*
X1689608Y236728D03*
X1689608Y209296D03*
X1689608Y181864D03*
D11*
X1231900Y190500D03*
X1282700Y190500D03*
X1308100Y190500D03*
X1358900Y190500D03*
D12*
X1447800Y342900D03*
X1397000Y342900D03*
D11*
X1397000Y292100D03*
X1447800Y292100D03*
X1397000Y241300D03*
X1447800Y241300D03*
X1397000Y266700D03*
X1447800Y266700D03*
D13*
X1490100Y342900D03*
X1507100Y342900D03*
D11*
X1397000Y317500D03*
X1447800Y317500D03*
X1587500Y419100D03*
X1638300Y419100D03*
X1587500Y444500D03*
X1638300Y444500D03*
X1587500Y469900D03*
X1638300Y469900D03*
X1587500Y495300D03*
X1638300Y495300D03*
D14*
X1574800Y345440D02*
X1559560Y345440D01*
X1559560Y370840D02*
X1574800Y370840D01*
X1574800Y396240D02*
X1559560Y396240D01*
D15*
X977300Y692150D03*
X1029300Y692150D03*
X977300Y679450D03*
X977300Y704850D03*
X977300Y717550D03*
X1029300Y679450D03*
X1029300Y704850D03*
X1029300Y717550D03*
D16*
X1245000Y393300D03*
X1295000Y393300D03*
X1245000Y343300D03*
X1295000Y343300D03*
X1245000Y545700D03*
X1295000Y545700D03*
X1245000Y495700D03*
X1295000Y495700D03*
D17*
X621900Y488800D03*
X596900Y488800D03*
X571900Y488800D03*
D18*
X643900Y558800D03*
X549900Y558800D03*
D12*
X495300Y825500D03*
X444500Y825500D03*
X584200Y800100D03*
X533400Y800100D03*
X1066800Y635000D03*
X1016000Y635000D03*
X495300Y800100D03*
X444500Y800100D03*
D19*
X292100Y527050D03*
X292100Y603250D03*
X292100Y501650D03*
D20*
X292100Y558800D03*
D21*
X1117600Y800100D03*
X1574800Y723900D03*
X1143000Y647700D03*
D22*
X1117600Y647700D03*
D23*
X1168400Y647700D03*
X1574800Y749300D03*
D24*
X1574800Y774700D03*
X1574800Y698500D03*
X1574800Y673100D03*
X1447800Y647700D03*
X1447800Y800100D03*
X1143000Y800100D03*
X1168400Y800100D03*
X1193800Y800100D03*
X1219200Y800100D03*
X1244600Y800100D03*
X1270000Y800100D03*
X1295400Y800100D03*
X1320800Y800100D03*
X1346200Y800100D03*
X1371600Y800100D03*
X1397000Y800100D03*
X1422400Y800100D03*
X1143000Y673100D03*
X1422400Y647700D03*
X1397000Y647700D03*
X1371600Y647700D03*
X1346200Y647700D03*
X1320800Y647700D03*
X1295400Y647700D03*
X1270000Y647700D03*
X1244600Y647700D03*
X1219200Y647700D03*
X1193800Y647700D03*
D23*
X1473200Y800100D03*
D24*
X1524000Y800100D03*
X1549400Y800100D03*
X1574800Y800100D03*
X1600200Y800100D03*
X1625600Y800100D03*
X1651000Y800100D03*
X1676400Y800100D03*
X1701800Y800100D03*
X1498600Y647700D03*
X1524000Y647700D03*
X1549400Y647700D03*
X1574800Y647700D03*
X1600200Y647700D03*
X1625600Y647700D03*
X1651000Y647700D03*
X1676400Y647700D03*
X1701800Y647700D03*
X1181100Y770100D03*
X1206500Y770100D03*
X1231900Y770100D03*
X1257300Y770100D03*
X1282700Y770100D03*
X1498600Y800100D03*
D21*
X1473200Y647700D03*
D25*
X1456650Y539300D03*
X1456650Y545800D03*
X1456650Y552300D03*
X1456650Y558800D03*
X1456650Y565300D03*
X1456650Y571800D03*
X1456650Y578300D03*
X1515150Y578300D03*
X1515150Y571800D03*
X1515150Y565300D03*
X1515150Y558800D03*
X1515150Y552300D03*
X1515150Y545800D03*
X1515150Y539300D03*
D26*
X1460500Y204500D03*
X1460500Y176500D03*
D27*
X1281400Y101600D03*
X1309400Y101600D03*
D28*
X1490980Y38100D03*
D29*
X1455420Y38100D03*
D30*
X1341120Y38100D03*
D29*
X1376680Y38100D03*
D31*
X1428700Y190500D03*
X1390700Y190500D03*
X1289000Y139700D03*
X1251000Y139700D03*
D32*
X1358900Y127000D03*
X1358900Y101600D03*
X1384300Y127000D03*
X1384300Y101600D03*
X1409700Y127000D03*
X1409700Y101600D03*
X1435100Y127000D03*
X1435100Y101600D03*
X1460500Y127000D03*
X1460500Y101600D03*
X1485900Y127000D03*
X1485900Y101600D03*
X1511300Y127000D03*
X1511300Y101600D03*
X1536700Y127000D03*
X1536700Y101600D03*
D26*
X1498600Y204500D03*
X1498600Y176500D03*
D30*
X1557020Y38100D03*
D29*
X1592580Y38100D03*
D31*
X1530400Y190500D03*
X1568400Y190500D03*
D13*
X1397000Y592700D03*
X1397000Y575700D03*
D17*
X990200Y488800D03*
X965200Y488800D03*
X940200Y488800D03*
D18*
X1012200Y558800D03*
X918200Y558800D03*
D11*
X1600200Y330200D03*
X1651000Y330200D03*
X1600200Y355600D03*
X1651000Y355600D03*
X1600200Y381000D03*
X1651000Y381000D03*
D33*
X1092200Y482600D03*
X1092200Y533400D03*
X1356360Y679450D03*
X1356360Y730250D03*
X1587500Y546100D03*
X1587500Y596900D03*
D16*
X762400Y152000D03*
X812400Y152000D03*
X762400Y102000D03*
X812400Y102000D03*
X1143400Y469500D03*
X1193400Y469500D03*
X1143400Y419500D03*
X1193400Y419500D03*
X940200Y152000D03*
X990200Y152000D03*
X940200Y102000D03*
X990200Y102000D03*
X1346600Y469500D03*
X1396600Y469500D03*
X1346600Y419500D03*
X1396600Y419500D03*
D34*
X1060450Y807466D03*
X1060450Y868934D03*
X1047750Y807466D03*
X1035050Y807466D03*
X1047750Y868934D03*
X1035050Y868934D03*
X1022350Y807466D03*
X1022350Y868934D03*
X1009650Y807466D03*
X1009650Y868934D03*
X996950Y807466D03*
X984250Y807466D03*
X996950Y868934D03*
X984250Y868934D03*
X971550Y807466D03*
X971550Y868934D03*
D17*
X812400Y488800D03*
X787400Y488800D03*
X762400Y488800D03*
D18*
X834400Y558800D03*
X740400Y558800D03*
D17*
X698100Y907900D03*
X673100Y907900D03*
X648100Y907900D03*
D18*
X720100Y977900D03*
X626100Y977900D03*
D17*
X914000Y907900D03*
X889000Y907900D03*
X864000Y907900D03*
D18*
X936000Y977900D03*
X842000Y977900D03*
D34*
X819150Y807466D03*
X819150Y868934D03*
X806450Y807466D03*
X793750Y807466D03*
X806450Y868934D03*
X793750Y868934D03*
X781050Y807466D03*
X781050Y868934D03*
X768350Y807466D03*
X768350Y868934D03*
X755650Y807466D03*
X742950Y807466D03*
X755650Y868934D03*
X742950Y868934D03*
X730250Y807466D03*
X730250Y868934D03*
D24*
X1549000Y1022500D03*
D21*
X1499000Y1022500D03*
D24*
X1499000Y877500D03*
X1524000Y877500D03*
X1549000Y877500D03*
D35*
X1467000Y939000D02*
X1467000Y966000D01*
X1581000Y966000D02*
X1581000Y939000D01*
D16*
X1118000Y152000D03*
X1168000Y152000D03*
X1118000Y102000D03*
X1168000Y102000D03*
D17*
X698100Y692000D03*
X673100Y692000D03*
X648100Y692000D03*
D18*
X720100Y762000D03*
X626100Y762000D03*
D17*
X914000Y692000D03*
X889000Y692000D03*
X864000Y692000D03*
D18*
X936000Y762000D03*
X842000Y762000D03*
D17*
X812400Y285600D03*
X787400Y285600D03*
X762400Y285600D03*
D18*
X834400Y355600D03*
X740400Y355600D03*
D15*
X1524600Y431800D03*
X1472600Y431800D03*
X1524600Y444500D03*
X1524600Y419100D03*
X1524600Y406400D03*
X1472600Y444500D03*
X1472600Y419100D03*
X1472600Y406400D03*
X1524600Y381000D03*
X1472600Y381000D03*
X1524600Y393700D03*
X1524600Y368300D03*
X1472600Y393700D03*
X1472600Y368300D03*
D36*
X381000Y734900D03*
X371500Y712900D03*
X390500Y712900D03*
D37*
X469900Y457200D03*
X469900Y406400D03*
D13*
X469900Y389500D03*
X469900Y372500D03*
D28*
X1033780Y393700D03*
D29*
X998220Y393700D03*
D13*
X381000Y237100D03*
X381000Y220100D03*
D38*
X1041800Y304800D03*
D39*
X1114800Y327600D03*
X1114800Y282000D03*
D40*
X999600Y342900D03*
X983600Y342900D03*
D41*
X1208020Y203200D03*
X1179580Y203200D03*
D28*
X1198880Y266700D03*
D29*
X1163320Y266700D03*
D15*
X1498000Y254000D03*
X1550000Y254000D03*
X1498000Y241300D03*
X1498000Y266700D03*
X1498000Y279400D03*
X1550000Y241300D03*
X1550000Y266700D03*
X1550000Y279400D03*
X1498000Y304800D03*
X1550000Y304800D03*
X1498000Y292100D03*
X1498000Y317500D03*
X1550000Y292100D03*
X1550000Y317500D03*
D12*
X444500Y673100D03*
X393700Y673100D03*
D33*
X1079500Y673100D03*
X1079500Y723900D03*
D11*
X482600Y673100D03*
X533400Y673100D03*
D12*
X444500Y647700D03*
X393700Y647700D03*
D19*
X419100Y527050D03*
X419100Y603250D03*
X419100Y501650D03*
D20*
X419100Y558800D03*
D42*
X355600Y876300D03*
X375600Y876300D03*
X395600Y876300D03*
X335600Y876300D03*
X315600Y876300D03*
X415600Y876300D03*
D43*
X310600Y986300D03*
X420600Y986300D03*
D21*
X1231900Y1066800D03*
D24*
X1257300Y1066800D03*
X1282700Y1066800D03*
X1308100Y1066800D03*
D44*
X1165860Y1055370D03*
X1374140Y1055370D03*
X1374140Y824230D03*
X1165860Y824230D03*
D15*
X634400Y412750D03*
X686400Y412750D03*
X634400Y400050D03*
X634400Y425450D03*
X634400Y438150D03*
X686400Y400050D03*
X686400Y425450D03*
X686400Y438150D03*
D12*
X571500Y393700D03*
X520700Y393700D03*
D11*
X520700Y419100D03*
X571500Y419100D03*
D12*
X571500Y450850D03*
X520700Y450850D03*
D11*
X520700Y368300D03*
X571500Y368300D03*
D19*
X292100Y323850D03*
X292100Y400050D03*
X292100Y298450D03*
D20*
X292100Y355600D03*
D12*
X571500Y342900D03*
X520700Y342900D03*
X571500Y292100D03*
X520700Y292100D03*
D37*
X723900Y444500D03*
X723900Y393700D03*
D11*
X520700Y317500D03*
X571500Y317500D03*
D19*
X419100Y323850D03*
X419100Y400050D03*
X419100Y298450D03*
D20*
X419100Y355600D03*
D19*
X292100Y95250D03*
X292100Y171450D03*
X292100Y69850D03*
D20*
X292100Y127000D03*
D45*
X292100Y265000D03*
X282600Y243000D03*
X301600Y243000D03*
D11*
X266700Y203200D03*
X317500Y203200D03*
X317500Y266700D03*
X368300Y266700D03*
D19*
X419100Y95250D03*
X419100Y171450D03*
X419100Y69850D03*
D20*
X419100Y127000D03*
D45*
X419100Y265000D03*
X409600Y243000D03*
X428600Y243000D03*
D11*
X393700Y203200D03*
X444500Y203200D03*
X457200Y266700D03*
X508000Y266700D03*
D19*
X546100Y95250D03*
X546100Y171450D03*
X546100Y69850D03*
D20*
X546100Y127000D03*
D45*
X558800Y252300D03*
X549300Y230300D03*
X568300Y230300D03*
D11*
X533400Y203200D03*
X584200Y203200D03*
D12*
X508000Y241300D03*
X457200Y241300D03*
D46*
X1625300Y899000D03*
X1625300Y879000D03*
X1625300Y924000D03*
X1625300Y854000D03*
D47*
X1662500Y954700D03*
X1662500Y823300D03*
D48*
X1339850Y228000D03*
X1339850Y280000D03*
X1352550Y228000D03*
X1327150Y228000D03*
X1314450Y228000D03*
X1352550Y280000D03*
X1327150Y280000D03*
X1314450Y280000D03*
D49*
X1231900Y609600D03*
X1257300Y609600D03*
X1282700Y609600D03*
X1308100Y609600D03*
X1333500Y609600D03*
X1231900Y584200D03*
X1257300Y584200D03*
D14*
X1511300Y502920D02*
X1511300Y487680D01*
X1536700Y487680D02*
X1536700Y502920D01*
X1460500Y502920D02*
X1460500Y487680D01*
X1435100Y487680D02*
X1435100Y502920D01*
D50*
X1304544Y265176D03*
X1482090Y285750D03*
X1493520Y408432D03*
X1460754Y243840D03*
X547878Y245364D03*
X1524762Y275082D03*
X1504188Y354330D03*
X1326642Y251460D03*
X1255776Y182118D03*
X381762Y713232D03*
X1386840Y576072D03*
X1481328Y266700D03*
X1029462Y726186D03*
X1566672Y291846D03*
X1456182Y419100D03*
X634746Y446532D03*
X977646Y762762D03*
X1625346Y190500D03*
X1686306Y656082D03*
X1620774Y377190D03*
X1469898Y543306D03*
X894588Y871728D03*
X1054608Y853440D03*
X1568196Y409956D03*
X1546098Y349758D03*
X1519428Y465582D03*
X1525524Y471678D03*
X1540002Y425958D03*
X1430274Y592074D03*
X1428750Y432054D03*
X1405128Y455676D03*
X1200150Y565404D03*
D51*
X1168908Y596646D03*
D50*
X1345692Y264414D03*
X1037082Y637794D03*
X901446Y762762D03*
X764286Y301752D03*
X981456Y333756D03*
X1350264Y375666D03*
X1262634Y288036D03*
X1507236Y413004D03*
X883158Y871728D03*
X848868Y915162D03*
X873252Y945642D03*
X895350Y880872D03*
X1003554Y826770D03*
X1389888Y852678D03*
X784098Y901446D03*
X801624Y918972D03*
X1002030Y902208D03*
X986790Y886968D03*
X771144Y901446D03*
X788670Y918972D03*
X953262Y933450D03*
X759714Y902970D03*
X771906Y915162D03*
X963168Y951738D03*
X934974Y923544D03*
X1109472Y778002D03*
X1011174Y714756D03*
X671322Y419100D03*
X991362Y671322D03*
X1042416Y755904D03*
X901446Y750570D03*
X1294638Y846582D03*
X1288542Y840486D03*
X1283970Y832866D03*
X1280160Y639318D03*
X780288Y540258D03*
X1312926Y783336D03*
X1264158Y551688D03*
X1024890Y822960D03*
X1060704Y702564D03*
X1194816Y588264D03*
X1204722Y578358D03*
X1040130Y665226D03*
X1052322Y653034D03*
X1262634Y422148D03*
X1045464Y726186D03*
X1060704Y710946D03*
X1181862Y550926D03*
X1200150Y550926D03*
M02*
